/* XPM */
static const char * error_xpm[] = {
/* columns rows colors chars-per-pixel */
"48 48 4 1",
"  c None",
"X c #242424",
"o c #DCDF00",
". c #C00000",
/* pixels */
"                                                ",
"                                                ",
"                                                ",
"                                                ",
"                                                ",
"                    .....                       ",
"                .............                   ",
"              .................                 ",
"             ...................                ",
"           .......................              ",
"          .........................             ",
"         ...........................            ",
"         ...........................X           ",
"        .............................X          ",
"       ...............................          ",
"       ...............................X         ",
"      .................................X        ",
"      .................................X        ",
"      .................................XX       ",
"      ...ooooooooooooooooooooooooooo...XX       ",
"     ....ooooooooooooooooooooooooooo....X       ",
"     ....ooooooooooooooooooooooooooo....X       ",
"     ....ooooooooooooooooooooooooooo....XX      ",
"     ....ooooooooooooooooooooooooooo....XX      ",
"     ....ooooooooooooooooooooooooooo....XX      ",
"      ...ooooooooooooooooooooooooooo...XXX      ",
"      ...ooooooooooooooooooooooooooo...XXX      ",
"      .................................XX       ",
"      .................................XX       ",
"       ...............................XXX       ",
"       ...............................XXX       ",
"        .............................XXX        ",
"         ...........................XXXX        ",
"         ...........................XXX         ",
"          .........................XXX          ",
"           .......................XXXX          ",
"            X...................XXXXX           ",
"             X.................XXXXX            ",
"               X.............XXXXX              ",
"                XXXX.....XXXXXXXX               ",
"                  XXXXXXXXXXXXX                 ",
"                      XXXXX                     ",
"                                                ",
"                                                ",
"                                                ",
"                                                ",
"                                                ",
"                                                "
};
