/* XPM */
static const char * warning_xpm[] = {
/* columns rows colors chars-per-pixel */
"48 48 9 1",
"@ c Black",
"o c #A6A800",
"+ c #8A8C00",
"$ c #B8BA00",
"  c None",
"O c #6E7000",
"X c #DCDF00",
". c #C00000",
"# c #373800",
/* pixels */
"                                                ",
"                                                ",
"                                                ",
"                                                ",
"                                                ",
"                                                ",
"                                                ",
"                      .                         ",
"                     ...                        ",
"                     ...                        ",
"                    .....                       ",
"                   ...X..                       ",
"                   ..XXX..                      ",
"                  ...XXX...                     ",
"                  ..XXXXX..                     ",
"                 ..XXXXXX...                    ",
"                ...XXoO+XX..                    ",
"                ..XXXO@#XXX..                   ",
"               ..XXXXO@#XXX...                  ",
"              ...XXXXO@#XXXX..                  ",
"              ..XXXXXO@#XXXX...                 ",
"             ...XXXXXo@OXXXXX..                 ",
"            ...XXXXXXo@OXXXXXX..                ",
"            ..XXXXXXX$@OXXXXXX...               ",
"           ...XXXXXXXX@XXXXXXXX..               ",
"          ...XXXXXXXXXXXXXXXXXX...              ",
"          ..XXXXXXXXXXOXXXXXXXXX..              ",
"         ...XXXXXXXXXO@#XXXXXXXXX..             ",
"         ..XXXXXXXXXXX#XXXXXXXXXX...            ",
"        ...XXXXXXXXXXXXXXXXXXXXXXX..            ",
"       ...XXXXXXXXXXXXXXXXXXXXXXXX...           ",
"       ..............................           ",
"       ..............................           ",
"                                                ",
"                                                ",
"                                                ",
"                                                ",
"                                                ",
"                                                ",
"                                                ",
"                                                ",
"                                                ",
"                                                ",
"                                                ",
"                                                ",
"                                                ",
"                                                ",
"                                                "
};
