/* XPM */
static const char * addbookm_xpm[] = {
/* columns rows colors chars-per-pixel */
"16 15 3 1",
". c Black",
"X c #00C000",
"  c None",
/* pixels */
"        ....... ",
"        .XXXXX. ",
"   ..   .XXXXX. ",
"   ..   .XXXXX. ",
" ...... .XXXXX. ",
" ...... .XXXXX. ",
"   ..   .XXXXX. ",
"   ..   .XXXXX. ",
"        .XXXXX. ",
"        .XXXXX. ",
"        .XXXXX. ",
"        .XXXXX. ",
"        .XX.XX. ",
"        .X. .X. ",
"        ..   .. "
};
