/* XPM */
static const char * cdrom_xpm[] = {
/* columns rows colors chars-per-pixel */
"16 15 36 1",
"= c #9BACC2",
"y c #547B99",
"$ c #FFFFFF",
"@ c #839CB5",
"o c #547897",
"4 c #4D7492",
"% c #F1F4F7",
"X c #5A809C",
"< c #8497A5",
"0 c #7898AD",
"+ c #CAD2DC",
"r c #ACAEB2",
"2 c #BECAD9",
"* c #65839D",
"e c #DCE2EA",
"- c #ADBED2",
"t c #597B9A",
"  c None",
"1 c #467291",
"9 c #D6DFE7",
"O c #7393AB",
"u c #49708B",
"5 c #A0BACB",
"& c #AABFCD",
"8 c #B9CBD5",
"; c #B4C4D3",
": c #6F90A6",
"3 c #A8B6CA",
"# c #ADBACE",
"w c #E4E9ED",
". c #8EA9BC",
"> c #B3BFD1",
", c #C2CBDB",
"6 c #C0D1DC",
"7 c #A2B3C5",
"q c #5D7C93",
/* pixels */
"     .XooOo+    ",
"    X@#$$$%o&   ",
"   *=-;$$$$$o+  ",
"  +O#;-$$$$$$:  ",
"  o=>,-<1<$2-o  ",
"  o3>--1$122-*  ",
"  o=--$<4<22-X  ",
"  o5$$$$$26;7*  ",
"   X%$$$$2;-X8  ",
"  90*9$$$-7Xqo  ",
" wXwe@O44X4<r<o ",
" X8628>22222<<*4",
" ttyyyoo4441uuuo",
" t>$$$$$$$$$$$>o",
" XXXtyyyoo44411u"
};
