/* XPM */
static const char * dir_up_xpm[] = {
/* columns rows colors chars-per-pixel */
"16 15 31 1",
"6 c #9BACC2",
"o c #9AEA53",
"7 c #94A5BD",
"8 c #547897",
"5 c #839CB5",
"@ c #376485",
"$ c #5A809C",
"# c #7F99B4",
": c #D1D9E5",
"< c #EAEDF3",
"& c #446A8C",
"q c #65839D",
"> c #DCE2EA",
", c #E1E6EE",
"2 c #F5F6F7",
"O c #8DA0B9",
"  c None",
"% c #467291",
". c #305F81",
"X c #7393AB",
"+ c #6A89A2",
"4 c #A8B6CA",
"1 c #EEF1F3",
"3 c #F8F9FA",
"0 c #215579",
"9 c #7F97B0",
"* c #B3BFD1",
"w c #7A90AC",
"- c #C2CBDB",
"; c #CAD6E1",
"= c #BBC4D6",
/* pixels */
"         ..     ",
"        X.o.    ",
"....   X.ooo.   ",
".OO+....ooooo.  ",
".OOOOOO@@ooo..  ",
".OOOO#OO@ooo.$  ",
".OOOOOOO@ooo.$  ",
".O%............&",
".O&*=-;:>,<1231.",
".+.4*=-;:>,<12$.",
"..564*=-;:>,<1. ",
".@O764*=-;:>,<. ",
".89O764*=-;:>$$ ",
"0qw9O764*=-;:.  ",
"0.............  "
};
