/* XPM */
static const char * exefile_xpm[] = {
/* columns rows colors chars-per-pixel */
"16 16 51 1",
"% c #E8E8EC",
"= c #E8E8ED",
"z c #CACAD4",
"8 c #D9D9E1",
"p c #D2D2DA",
"u c #E1E1E7",
"a c #D2D2DB",
"< c #E9E9ED",
"q c #DADAE1",
"+ c #F1F1F4",
"g c #D3D3DB",
"1 c #E2E2E8",
"x c #D3D3DC",
"5 c #00A5FF",
"$ c #EAEAEE",
"4 c #DBDBE2",
"h c #CCCCD6",
"y c #D4D4DC",
"r c #E3E3E9",
"d c #D4D4DD",
"7 c #DCDCE2",
": c #EBEBEF",
"0 c #DCDCE3",
"  c None",
"O c #F3F3F5",
"> c #E4E4E9",
"& c #F3F3F6",
"j c #D5D5DD",
"6 c #E4E4EA",
". c #C6C6D5",
"# c #ECECF0",
"f c #CECED7",
"l c #CECED8",
"e c #D6D6DE",
"; c #EDEDF0",
"3 c #DEDEE4",
", c #EDEDF1",
"c c #CFCFD8",
"o c #F5F5F7",
"- c #E6E6EB",
"w c #D7D7DF",
"v c #C8C8D3",
"i c #DFDFE5",
"@ c #EEEEF2",
"s c #D0D0D9",
"X c #9494AD",
"9 c #D8D8DF",
"t c #D8D8E0",
"* c #EFEFF2",
"2 c #E0E0E6",
"k c #D1D1DA",
/* pixels */
"  ........X     ",
"  .oO+@#$%XX    ",
"  .&+*#$=-XXX   ",
"  .+*;:=->XXXX  ",
"  .*,:<->1234X  ",
"  .,5:5612378X  ",
"  5,5559530qwX  ",
"  55555550q9eX  ",
" 5555r5555teyX  ",
"  55rui559eypX  ",
" 5555i5555yasX  ",
"  5555555dasfX  ",
"  5355595gsfhX  ",
"  .3595jgklhzX  ",
"  .0qwjxkchzvX  ",
"  XXXXXXXXXXXX  "
};
