/* XPM */
static const char * floppy_xpm[] = {
/* columns rows colors chars-per-pixel */
"16 15 18 1",
"& c #E3E4E6",
"+ c #FFFFFF",
". c #446A8C",
"o c #697787",
"> c #5F666D",
"* c #B2B3B3",
"  c None",
", c #4B4C4D",
"= c #DCDBDA",
"$ c #1B4467",
": c #E4E9ED",
"@ c #979BA0",
"X c #203646",
"O c #215579",
"- c #545B63",
"; c #636465",
"# c #CAD6E1",
"% c #7F8286",
/* pixels */
"  .XoooooooXO   ",
"  .o+++++++.O   ",
"  .o+OOOOO+.O   ",
"  .o+++++++.O   ",
"  .o@@@@@@@.O   ",
"  ..........O   ",
"  ..#+++++#.O   ",
"  ..+$O+++#.O   ",
"  ..+$O+++#.O   ",
" %&.........*%  ",
"%=+++++++++++&% ",
"--------------; ",
"-:::::::::::::- ",
"-:X:XXXXXXXXX:> ",
"-*************, "
};
