/* XPM */
static const char * listview_xpm[] = {
/* columns rows colors chars-per-pixel */
"16 15 4 1",
"  c Black",
". c #FFFFFF",
"X c #000084",
"o c #848484",
/* pixels */
"                ",
" .............. ",
" .XXX.......... ",
" .XXX.  o   o . ",
" .XXX.......... ",
" .............. ",
" .XXX.......... ",
" .XXX.   o    . ",
" .XXX.......... ",
" .............. ",
" .XXX.......... ",
" .XXX. o    o . ",
" .XXX.......... ",
" .............. ",
"                "
};
