/* XPM */
static const char * missimg_xpm[] = {
/* columns rows colors chars-per-pixel */
"32 32 5 1",
"X c Black",
"o c #FFFFFF",
"  c None",
". c #C0C0C0",
"O c #E0E0E0",
/* pixels */
" .............................X ",
" .ooooooooooooooooooooooooooooX ",
" .ooooooooooooooooooooooooooooX ",
" .ooOOOOOOOOOOOOOOOOOOOOOOOOooX ",
" .ooOOOOOOOOOOOOOOOOOOOOOOOOooX ",
" .ooOOOOOOOOOOOOOOOOOOOOOOOOooX ",
" .ooOOOOOOOOOOOOOOOOOOOOOOOOooX ",
" .ooOOOOOOOOOOOOOOOOOOOOOOOOooX ",
" .ooOOOOOOOOOOOOOOOOOOOOOOOOooX ",
" .ooOOOOOOOXOOOOOOOOOOOOOOOOooX ",
" XXXOOOOOXX XOOOOOOOOOOOOOOOooX ",
"    XXXXX    XOOOOOOOOOOOOOOooX ",
"              XOOOXXXOOOOOOOooX ",
"               XXX   XXOOOOOooX ",
"                       XOOOOooX ",
" .                      XOOOooX ",
" ..                      XXOooX ",
" .o..                      XooX ",
" .ooO...                    XXX ",
" .ooOOOO..........              ",
" .ooOOOOOOOOOOOOOO..            ",
" .ooOOOOOOOOOOOOOOOO..          ",
" .ooOOOOOOOOOOOOOOOOOO......... ",
" .ooOOOOOOOOOOOOOOOOOOOOOOOOooX ",
" .ooOOOOOOOOOOOOOOOOOOOOOOOOooX ",
" .ooOOOOOOOOOOOOOOOOOOOOOOOOooX ",
" .ooOOOOOOOOOOOOOOOOOOOOOOOOooX ",
" .ooOOOOOOOOOOOOOOOOOOOOOOOOooX ",
" .ooOOOOOOOOOOOOOOOOOOOOOOOOooX ",
" .ooooooooooooooooooooooooooooX ",
" .ooooooooooooooooooooooooooooX ",
" XXXXXXXXXXXXXXXXXXXXXXXXXXXXXX "
};
