/* XPM */
static const char * quit_xpm[] = {
/* columns rows colors chars-per-pixel */
"16 15 69 1",
"@ c Black",
"i c #9AEA53",
"D c #7E9BB1",
"H c #839FB4",
", c #B7C7D3",
"8 c #BCCBD6",
"7 c #C1CFDA",
"v c #92ABBD",
"- c #D0DBE2",
"O c #547897",
"+ c #376485",
"L c #7090A8",
"t c #AEC0CE",
"g c #B3C4D1",
"S c #84A0B4",
"G c #89A4B8",
"> c #BDCCD7",
"F c #5A809C",
"2 c #C2D0DA",
"k c #93ACBE",
"= c #D6E0E6",
"* c #446A8C",
"z c #A5B9C8",
"# c #DEE5EB",
"0 c #AFC1CE",
"r c #B4C5D2",
"p c #B9C9D5",
"A c #8AA5B8",
"M c #92AABD",
"j c #A6BAC9",
"K c #7796AC",
"l c #ABBECC",
"o c #E4EAEF",
"9 c #B5C6D2",
"  c None",
"; c #C9D6DF",
"X c #305F81",
"m c #98AFC0",
"V c #9DB3C3",
"% c #D1DBE3",
"u c #A2B7C6",
"y c #A7BBCA",
"h c #ACBFCD",
"4 c #B6C7D3",
"w c #C0CFD9",
"d c #982106",
"B c #85A0B5",
"6 c #C8D4DE",
"c c #99B0C1",
"x c #9EB4C4",
"$ c #D7E0E7",
"q c #A8BCCA",
"s c #ADC0CD",
"3 c #BCCCD7",
"N c #8BA5B9",
": c #C4D1DB",
"1 c #C9D5DE",
"f c #9AB1C2",
"n c #A4B9C8",
"a c #B3C5D1",
". c #215579",
"J c #7D9AB0",
"& c #829EB5",
"e c #BBCAD6",
"b c #8CA6B9",
"Z c #91AABC",
"C c #96AEC0",
"< c #CFDAE2",
"5 c #AFC2CF",
/* pixels */
" ..XXXXXXXXXX   ",
" XoO+X@@@@@@X   ",
" X#$%&X*@@@@X   ",
" X=-;:>,X@@@X   ",
" X<12345X@@@X   ",
" X67890qX@XXX   ",
" XwertyuX@XiX   ",
" XpasddfX++iiX  ",
" XghjddkXiiiiiX ",
" XlzxcvbXiiiiiiX",
" XnxmMNBXiiiiiX ",
" XVCZASDXXXiiX  ",
" XXFGHJKX XiX   ",
"   FXXFLX XX    ",
"      XX*       "
};
