/* XPM */
static const char * repview_xpm[] = {
/* columns rows colors chars-per-pixel */
"16 15 3 1",
"  c Black",
"X c #FFFFFF",
". c #C0C0C0",
/* pixels */
"                ",
" .............. ",
" .  .    .    . ",
" .............. ",
" .............. ",
" XXXXXXXXXXXXXX ",
" X  X    X    X ",
" XXXXXXXXXXXXXX ",
" X  X    X    X ",
" XXXXXXXXXXXXXX ",
" X  X    X    X ",
" XXXXXXXXXXXXXX ",
" X  X    X    X ",
" XXXXXXXXXXXXXX ",
"                "
};
