/* XPM */
static const char * tipicon_xpm[] = {
/* columns rows colors chars-per-pixel */
"32 32 9 1",
"$ c Black",
"O c #FFFFFF",
"@ c #808080",
"+ c #000080",
"o c #E8EB01",
"  c None",
"X c #FFFF40",
"# c #C0C0C0",
". c #ABAD01",
/* pixels */
"                                ",
"             .....              ",
"           ..XXXXX..            ",
"         ..XXXXXXXXo..          ",
"        .XXXOXXXXXXXoo.         ",
"        .XOOXXX+XXXXXo.         ",
"       .XOOOXX+++XXXXoo.        ",
"       .XOOXXX+++XXXXXo.        ",
"      .XOOOXXX+++XXXXXXo.       ",
"      .XOOXXXX+++XXXXXXo.       ",
"      .XXXXXXX+++XXXXXXX.       ",
"      .XXXXXXX+++XXXXXXo.       ",
"      .XXXXXXX+++XXXXXoo.       ",
"       .XXXXXX+++XXXXXo.        ",
"       .XXXXXXX+XXXXXXo.        ",
"        .XXXXXXXXXXXXo.         ",
"        .XXXXX+++XXXoo.         ",
"         .XXXX+++XXoo.          ",
"          .XXXXXXXXo.           ",
"          ..XXXXXXo..           ",
"           .XXXXXo..            ",
"           @#######@            ",
"           @@@@@@@@@            ",
"           @#######@            ",
"           @@@@@@@@@            ",
"           @#######@            ",
"            @@@@@@@             ",
"              ###               ",
"              $$$               ",
"                                ",
"                                ",
"                                "
};
