<svg width="15" height="15" viewBox="0 0 15 15" fill="none" xmlns="http://www.w3.org/2000/svg">
<g clip-path="url(#clip0_47_46)">
<path d="M8.70711 0.792985C8.31659 0.402461 7.68357 0.402461 7.29305 0.792985C6.9026 1.18351 6.90255 1.81655 7.29305 2.20705L11.586 6.50002H1.00008C0.447775 6.50006 7.53403e-05 6.94776 7.53403e-05 7.50002C7.53403e-05 8.05224 0.447875 8.49998 1.00008 8.50002H11.586L7.29305 12.7929C6.9026 13.1835 6.90255 13.8165 7.29305 14.207C7.68355 14.5975 8.31658 14.5975 8.70711 14.207L14.7071 8.20705C15.0976 7.81652 15.0976 7.18351 14.7071 6.79299L8.70711 0.792985Z" fill="white"/>
</g>
<defs>
<clipPath id="clip0_47_46">
<rect width="15" height="15" fill="white" transform="matrix(-1 0 0 1 15 0)"/>
</clipPath>
</defs>
</svg>
