/* XPM */
#pragma GCC system_header
static char * frame_icon_xpm[] = {
/* columns rows colors chars-per-pixel */
"128 128 74 1 ",
"  c black",
". c #0030FF",
"X c #0031FF",
"o c #0032FF",
"O c #0033FF",
"+ c #0034FF",
"@ c #0035FF",
"# c #0036FF",
"$ c #0037FF",
"% c #0038FF",
"& c #0039FF",
"* c #003AFF",
"= c #003BFF",
"- c #003CFF",
"; c #003DFF",
": c #003EFF",
"> c #003FFF",
", c #0040FF",
"< c #0041FF",
"1 c #0042FF",
"2 c #0043FF",
"3 c #0044FF",
"4 c #0045FF",
"5 c #0046FF",
"6 c #0047FF",
"7 c #0048FF",
"8 c #0049FF",
"9 c #004AFF",
"0 c #004BFF",
"q c #004CFF",
"w c #004DFF",
"e c #004EFF",
"r c #004FFF",
"t c #0050FF",
"y c #0051FF",
"u c #0052FF",
"i c #0053FF",
"p c #0054FF",
"a c #0055FF",
"s c #0056FF",
"d c #0057FF",
"f c #0058FF",
"g c #0059FF",
"h c #005AFF",
"j c #005BFF",
"k c #005CFE",
"l c #005CFF",
"z c #005DFF",
"x c #005EFF",
"c c #005FFF",
"v c #0061FD",
"b c #0060FF",
"n c #0061FF",
"m c #0063FE",
"M c #0062FF",
"N c #0063FF",
"B c #0064FF",
"V c #0065FF",
"C c #0066FF",
"Z c #0067FF",
"A c #0068FF",
"S c #0069FF",
"D c #006AFF",
"F c #006BFF",
"G c #006CFF",
"H c #006DFF",
"J c #006EFF",
"K c #006FFF",
"L c #0070FF",
"P c #0071FF",
"I c #0072FF",
"U c #0073FF",
"Y c #0074FF",
"T c None",
/* pixels */
"TTTTTTTTTTTTTTTTTTTTTTTTTTTTTTTTTTTTTTTTTTTTTTTTTTTTTTTTTTTTTTTTTTTTTTTTTTTTTTTTTTTTTTTTTTTTTTTTTTTTTTTTTTTTTTTTTTTTTTTTTTTTTTTT",
"TTTTTTTTTTTTTTTTTTTTTTTTTTTTTTTTTTTTTTTTTTTTTTTTTTTTTTTTTTTTTTTTTTTTTTTTTTTTTTTTTTTTTTTTTTTTTTTTTTTTTTTTTTTTTTTTTTTTTTTTTTTTTTTT",
"TTTTTTTTTTTTTTTTTTTTTTTTTTTTTTTTTTTTTTTTTTTTTTTTTTTTTTTTTTTTTTTTTTTTTTTTTTTTTTTTTTTTTTTTTTTTTTTTTTTTTTTTTTTTTTTTTTTTTTTTTTTTTTTT",
"TTTTTTTTTTTTTTTTTTTTTTTTTTTTTTTTTTTTTTTTTTTTTTTTTTTTTTTTTTTTTTTTTTTTTTTTTTTTTTTTTTTTTTTTTTTTTTTTTTTTTTTTTTTTTTTTTTTTTTTTTTTTTTTT",
"TTTTTTTTTTTTTTTTTTTTTTTTTTTTTTTTTTTTTTTTTTTTTTTTTTTTTTTTTTTTTTTTTTTTTTTTTTTTTTTTTTTTTTTTTTTTTTTTTTTTTTTTTTTTTTTTTTTTTTTTTTTTTTTT",
"TTTTTTTTTTTTTTTTTTTTTTTTTTTTTTTTTTTTTTTTTTTTTTTTTTTTTTTTTTTTTTTTTTTTTTTTTTTTTTTTTTTTTTTTTTTTTTTTTTTTTTTTTTTTTTTTTTTTTTTTTTTTTTTT",
"TTTTTTTTTTTTTTTTTTTTTTTTTTTTTTTTTTTTTTTTTTTTTTTTTTTTTTTTTTTTTTTTTTTTTTTTTTTTTTTTTTTTTTTTTTTTTTTTTTTTTTTTTTTTTTTTTTTTTTTTTTTTTTTT",
"TTTTTTTTTTTTTTTTTTTTTTTTTTTTTTTTTTTTTTTTTTTTTTTTTTTTTTTTTTTTTTTTTTTTTTTTTTTTTTTTTTTTTTTTTTTTTTTTTTTTTTTTTTTTTTTTTTTTTTTTTTTTTTTT",
"TTTTTTTTTTTTTTTTTTTTTTTTTTTTTTTTTTTTTTTTTTTTTTTTTTTTTTTTTTTTTTTTTTTTTTTTTTTTTTTTTTTTTTTTTTTTTTTTTTTTTTTTTTTTTTTTTTTTTTTTTTTTTTTT",
"TTTTTTTTTTTTTTTTTTTTTTTTTTTTTTTTTTTTTTTTTTTTTTTTTTTTTTTTTTTTTTTTTTTTTTTTTTTTTTTTTTTTTTTTTTTTTTTTTTTTTTTTTTTTTTTTTTTTTTTTTTTTTTTT",
"TTTTTTTTTTTTTTTTTTTTTTTTTTTTTTTTTTTTTTTTTTTTTTTTTTTTTTTTTTTTTTTTTTTTTTTTTTTTTTTTTTTTTTTTTTTTTTTTTTTTTTTTTTTTTTTTTTTTTTTTTTTTTTTT",
"TTTTTTTTTTTTTTTTTTTTTTTTTTTTTTTTTTTTTTTTTTTTTTTTTTTTTTTTTTTTTTTTTTTTTTTTTTTTTTTTTTTTTTTTTTTTTTTTTTTTTTTTTTTTTTTTTTTTTTTTTTTTTTTT",
"TTTTTTTTTTTTTTTTTTTTTTTTTTTTTTTTTTTTTTTTTTTxxccbbbbMMMMMMMMNNNVVVVVVCCZAAAAAAASDDDFGGGHHHHHHKKKKKKKPIPPIITTTTTTTTTTTTTTTTTTTTTTT",
"TTT                    TTTTTTTTTTTTTTTTlzxcccbbbnnnMMMNNNBBBVVVCCCZZZAAASSSDDDDFFFGGGHHHJJJKKKLLLPPIIIIIUUYYTTTTTTTTTTTTTTTTTTTT",
"T                      TTTTTTTTTTTTTTkzzxxcccbbbnnnMMMNNNBBBVVVCCCZZZAAASSSDDDDFFFGGGHHHJJJKKKLLLPPPIIIIUUYYYUTTTTTTTTTTTTTTTTTT",
"T                      TTTTTTTTTTTTjllzzxxxcccbbbnnnnMMMNNNBBBVVVCCCZZZAZASASDDDFFFGGGHHHJJJKKKLLLLPPPIIIUUUYYYYTTTTTTTTTTTTTTTT",
"T                      TTTTTTTTTTThjlllzzzxxxcccbbnnnMMMMNNNBBBVVVCCCZZZZAAASSSDDDFFFGGGHHHJJJKKLLLLPPPIIIUUUYYYUTTTTTTTTTTTTTTT",
"T      TTTTTTTTTT      TTTTTTTTTTghjlllzzzzxxxcccbbbnnnMMMNNBBBBVVVCCCZZZAAASSSDDDFFFFGGGHHHJJJKKKLLLPPPIIUUUUYYYYUTTTTTTTTTTTTT",
"T    TTTTTTTTTTTTT     TTTTTTTTTghhjjllllzzzxxxcccbbbnnnMMMNNNBBBVVVCCCZZZZAAASSSDDFFFFGGGHHHJJJKKKLLLPPPIIIUUUYYYUUTTTTTTTTTTTT",
"T    TTTTTTTTTTTTT     TTTTTTTTfghhhjjjlllzzzxxxcccbbbnnnMMMNNNNBBBVVVCCCZZZAAASSSDDDFFFGGGHHHJJJKKKLLLLPPIIIIUUUYYUITTTTTTTTTTT",
"T    TTTTTTTTTTTTT     TTTTTTTdfggghhjjjlllzzzzxxxcccbbbnbnMMMNNNBBBVVVCCCZZZAAAASSDDDFFFGGGGHHHJJJKKKLLLPPPIIIUUUYYUTTTTTTTTTTT",
"T    TTTTTTTTTTTTT     TTTTTTadfgggghhhjjjlllzzzxxxcccbbbbnnMMMNNNBBBVVVCCCZZZZAAASSSDDDFFFGGGHHHJJJKKKKLLPPPIIIUUUYUUTTTTTTTTTT",
"T     TTTTTTTTTTTT     TTTTTTsdfffggghhhjjjlllzzzxxxcccbbbnnnnMMMNNNBBBVVVCCCZZZAAASSSDDDFFFGGGHHHJJJKKKLLLLPPPIIIUUUUUTTTTTTTTT",
"T                      TTTTTpaddfffgggghhhjjjllzzzxxxxcccbbbnnnMMMNNNBBBVVVCCCZZZAAAASSSDDDFFGGGGHHHJJJKKKLLLPPPIIIUUUUTTTTTTTTT",
"T                      TTTTTasdddfffgggghhhjjjlllzzzxxxcccbbbnnnnMMMNNBBBVVVCCCZZZAAAASSSDDDFFFGGGHHHJJJKKKLLLLPPPIIUUUITTTTTTTT",
"T                      TTTTTasssdddfffggghhhjjjlllzzzxxxcccbbbnnnMMMMNNNBBBVVVCCCZZZAAASSSDDDFFFGGGHHHJJJKKKLLLPPPPIIIUUTTTTTTTT",
"TT                     TTTTuaasssdddfffgggghhhjjjlllzzzxxxcccbbbnnnMMMNNNBBBVVVCCCZZZAAAASSSDDDFFFGGGHHHJJJKKKLKLPPPIIIUPTTTTTTT",
"TTT                    TTTTipaaasssddfffggghhhhjjjlllzzzxxxcccbbbnnnnMMMNNNBBBVVVCCZZZAAAASSSDDDFFFGGGHHHJJJKKKKLLLPPPIIITTTTTTT",
"TTTTT      TTTTTTT     TTTTippaaasssdddfffggghhhhjjjlllzzzxxcccbbbnnnnMMMNNNBBBVVVCCCZZZAAAASSSDDDFFFGGGHHJJJKKKLLLLPPPIITTTTTTT",
"TTTT      TTTTTTTT     TTTTipppaaasssdddfffggghhhjjjlllzzzxxxccccbbbnnMMMNNNBBBBVVVCCCZZZAAASSSDDDFFFGGGHHHHJJJKKKLLPPPIPTTTTTTT",
"TTT       TTTTTTTT     TTTtiipppaaasssdddfffggghhhjjjjlllzzzxxxcccbbbnnnMMMNNNBBBVVVCCCZZZAAASSSDDDDFFFGGGHHHJJJKKKLLLPPPTTTTTTT",
"TT       TTTTTTTTT     TTTtiiipppaaassssdddfffggghhhjjjlllzzzxxxcccbbbnnnMMMNNNBBBBVVVCCCZCZAAASSSDDDFFFGGGHHHJJJKKKLLLPKTTTTTTT",
"T       TTTTTTTTTT     TTTtuuiiipppaaasssdddfffggghghjjjlllzzzxzxccccbbbnnnMMMNNNBBBVVVCCCCZZAAASASDDDFFFGGGHHHJJJJKKKLLKTTTTTTT",
"T      TTTTTTTTTTT     TTTtuuuiiipppaapssaddsffdggfghggjhhljjzlzxzzcxxbbcnnbMMnNNMBBNVVBCCCZZCAAZASAADDDFFFGGGHHHJJJKKKLKTTTTTTT",
"T     TTTTTTTTTTTT     TTTrttuyyuuupipppppaasddsdddffffghhhhhjjllzzzxxccccbbbbbnnMMMMNNNBBBVVCCCCZAAASDDDFFFGGGHHHJJJKKKKTTTTTTT",
"TTTTTTTTTTTTTTTTTTTTTTTTTTTrryTTTTTTTTTTTTTTTTTTTTTTTTTTTTTTTTTTTTTTTTTTTTTTTTTTTTTTTTTTTTTTTTTTTTTCZSSSDDFFFGGGHHHJJJJKJTTTTTTT",
"TTTTTTTTTTTTTTTTTTTTTTTTTTTTTTTTTTTTTTTTTTTTTTTTTTTTTTTTTTTTTTTTTTTTTTTTTTTTTTTTTTTTTTTTTTTTTTTTTTTTASSSSDDDFFFGGGHHHJJJJTTTTTTT",
"TTTTTTTTTTTTTTTTTTTTTTTTTTTTTTTTTTTTTTTTTTTTTTTTTTTTTTTTTTTTTTTTTTTTTTTTTTTTTTTTTTTTTTTTTTTTTTTTTTTTZAASSSDDDFFFGGGHHHJJHTTTTTTT",
"T                  TTTTTTTTTTTTTTTTTTTTTTTTTTTTTTTTTTTTTTTTTTTTTTTTTTTTTTTTTTTTTTTTTTTTTTTTTTTTTTTTTCAAAASSSDDDFFFGGHHHJHTTTTTTT",
"T                     TTTTTTTTTTTTTTTTTTTTTTTTTTTTTTTTTTTTTTTTTTTTTTTTTTTTTTTTTTTTTTTTTTTTTTTTTTTTTTCZAAASSSSDDDFFFGGGHHGTTTTTTT",
"T                      TTTTTTTTTTTTTTTTTTTTTTTTTTTTTTTTTTTTTTTTTTTTTTTTTTTTTTTTTTTTTTTTTTTTTTTTTTTTTCZZZAAASSSDDDFFFGGGHGTTTTTTT",
"T                      TTTTTTTTTTTTTTTTTTTTTTTTTTTTTTTTTTTTTTTTTTTTTTTTTTTTTTTTTTTTTTTTTTTTTTTTTTTTTVCZZZAAASSSDDDFFFGGGGTTTTTTT",
"T                      TTTTTTTTTTTTTTTTTTTTTTTTTTTTTTTTTTTTTTTTTTTTTTTTTTTTTTTTTTTTTTTTTTTTTTTTTTTTTVCCZZZAAASSSDDDFFFFGFTTTTTTT",
"T     TTTTTTTTTTTT      TTTTTTTTTTTTTTTTTTTTTTTTTTTTTTTTTTTTTTTTTTTTTTTTTTTTTTTTTTTTTTTTTTTTTTTTTTTTVCCCCZZZAAASSSDDDFFFFTTTTTTT",
"T     TTTTTTTTTTTT      TTTTTTTTTTTTTTTTTTTTTTTTTTTTTTTTTTTTTTTTTTTTTTTTTTTTTTTTTTTTTTTTTTTTTTTTTTTTBVVCCCZZZAAASSSDDDFFDTTTTTTT",
"T     TTTTTTTTTTTT      TTTTTTTTTTTTTTTTTTTTTTTTTTTTTTTTTTTTTTTTTTTTTTTTTTTTTTTTTTTTTTTTTTTTTTTTTTTTBVVVCCCCZZZAAASSDDDFDTTTTTTT",
"T     TTTTTTTTTTTT      TTTTTTTTTTTTTTTTTTTTTTTTTTTTTTTTTTTTTTTTTTTTTTTTTTTTTTTTTTTTTTTTTTTTTTTTTTTTNBVVVCCCCZZZAAASSSDDSTTTTTTT",
"T     TTTTTTTTTTTT      TTTTTTTTTTTTTTTTTTTTTTTTTTTTTTTTTTTTTTTTTTTTTTTTTTTTTTTTTTTTTTTTTTTTTTTTTTTTNBBBVVVCCCZZZAAASSSDSTTTTTTT",
"T     TTTTTTTTTTTT      TTTTTTTTTTTTTTTTTTTTTTTTTTTTTTTTTTTTTTTTTTTTTTTTTTTTTTTTTTTTTTTTTTTTTTTTTTTTNNBBBVVVCCCZZZZAAASSATTTTTTT",
"T                      TTTTTTTTTTTTTTTTTTTTTTTTTTTTTTTTTTTTTTTTTTTTTTTTTTTTTTTTTTTTTTTTTTTTTTTTTTTTTMNNNBBVVVCCCZZZZAAASATTTTTTT",
"T                      TTTTTTTTTTTTTTTTTTTTTTTTTTTTTTTTTTTTTTTTTTTTTTTTTTTTTTTTTTTTTTTTTTTTTTTTTTTTTMMNNNBBBVVVCCCZZZAAAATTTTTTT",
"T                      TTTTTTTTTTTTTTTTTTTTTTTTTTTTTTTTTTTTTTTTTTTTTTTTTTTTTTTTTTTTTTTTTTTTTTTTTTTTcnMMMNNBBBVVVCCCZZZZAZTTTTTTT",
"T                     TTTTTTTTTTTTTTTTTTTTqeewrrrtttyyyuuuiiipppaaasssdddfffggghhhjjjhlllzzzxxxcccbbbMMMNNNBBBVVVCCCZZZAZTTTTTTT",
"T                   TTTTTTTTTTTTTTTTTTTTTTweerrrrtttyyyuuuiiipppaaasssdddfffggghhhjjjlllzzzxxxxcccbbbnMMMNNNNBBBVVVCCCZZZTTTTTTT",
"T     TTTTTTTTTTTTTTTTTTTTTTTTTTTTTTTTTTTTqeerrrrtttyyyuuuiiipppaaasssdddfffggghhhjjjlllzzzxxxxcccbbbnnnMMMNNNBBBVVVCCCZCTTTTTTT",
"T     TTTTTTTTTTTTTTTTTTTTTTTTTTTTTTTTTTTTqweeerrrtttyyyuuuiiipppaaasssddddffgggghhjjjjlllzzzxxxcccbbbnnnMMMNNNBBBVVVCCCCTTTTTTT",
"T     TTTTTTTTTTTTTTTTTTTTTTTTTTTTTTTTTTTTqwweeerrrttttyyyuuiiipppaaaasssdddfdfggghhhjjjlllzzzxxxxccbbbbnnMMMNNNNBBBVVVCCTTTTTTT",
"T     TTTTTTTTTTTTTTTTTTTTTTTTTTTTTTTTTTTT0wwweeerrrttttyyyuuuiiipppaaasssddddfffgghhhjjjlllzzzxxxxcccbbbnnnMMMNNNBBBVVVVTTTTTTT",
"T     TTTTTTTTTTTTTTTTTTTTTTTTTTTTTTTTTTTT9qqwwweeerrrtttyyyuuuiiipppaaasssdddfffgggghhhjjjlllzzzxxxcccbbbnnnMMMNNNBBBVVNTTTTTTT",
"T     TTTTTTTTTTTTTTTTTTTTTTTTTTTTTTTTTTTT8qqqwwweeerrrttttyyyuuuiiippaaaasssdddfffggghhhjjjlllzzzxxxccccbbbnnnMMMNNNBBBNTTTTTTT",
"T    TTTTTTTTTTTTTTTTTTTTTTTTTTTTTTTTTTTTT700qqwwweeerrrttttyyyuuuiiipppaaasssdddffffggghhhjjlllzzzxxxccccbbbnnnMMMNNNBBBvTTTTTT",
"TTTTTTTTTTTTTTTTTTTTTTTTTTTTTTTTTTTTTTTTTT7000qqqwwweeerrrtttyyyuuuiiipppaaasssdddfffgggghhhjjjlllzzzxxxcccbbbnnnnMMNNNBBmTTTTTT",
"TTTTTTTTTTTTTTTTTTTTTTTTTTTTTTTTTTTTTTTTTT79000qqqwwweeerrrtttyyyyuuuiiipppaaasssdddfffggghhhjjjlllzzzxxxccccbbbnnnMMMNNNNMTTTTT",
"TTTTTTTTTTTTTTTTTTTTTTTTTTTTTTTTTTTTTTTTTT799900qqqqwweeerrrtttyyyuuuuiiipppaaasssdddffffggghhhjjjllzzzxxxcccbbbnnnnMMMNNNNTTTTT",
"TTTT                   TTTTTTTTTTTTTTTTTTT7999000qqqqwwweeerrrtttyyyuuiiippppaaasssdddfffggghhhjjjjlllzzzxxxcccbbbnnMMMMNNNNTTTT",
"TT                     TTTTTTTTTTTTTTTTTTT688990000qqqwwweeerrrtttyyyuuuiuipppaaassssdddfffgghhhhjjjlllzzzxxxcccbbbnnnMMMNMMTTTT",
"T                      TTTTTTTTTTTTTTTTTTT6888999000qqqwwweeerrrtttyyyuuuuiiipppaaasssdddfffggghhhjjjlllzzzxxxcccbbbnnnMMMMnTTTT",
"T                      TTTTTTTTTTTTTTTTTTT67788999000qqqwwwweeerrrtrtyyyuuuiiipppaaassssdddffggghhhjjjjlllzzzxxxcxcbbbnnnMMMnTTT",
"T                      TTTTTTTTTTTTTTTTTTT5777888999000qqqwwweeerrrrttyyyuuuiiipppaaasssddddfffggghhhjjjlllzzzxxxxccbbbnnnMMnTTT",
"T     TTTTTTTTTTTTTTTTTTTTTTTTTTTTTTTTTTTT46777888999000qqqwwweeerrrttttyyyuuuiiipppaaasssdddfffggghhhjjjlllzzzxxxccccbbbnnnnTTT",
"T     TTTTTTTTTTTTTTTTTTTTTTTTTTTTTTTTTTTT4667777888999000qqwwwweeerrrtttyyyuuuiiipppaaaasssddddfffggghhjjllllzzzxxxcccbbbnnnTTT",
"T     TTTTTTTTTTTTTTTTTTTTTTTTTTTTTTTTTTTT45556677787898900000qwqwewerertttyttyyyuuiiippasssddddfffggghhgjjjlllzzzxxxccccbbbcTTT",
"T     TTTTTTTTTTTTTTTTTTTTTTTTTTTTTTTTTTTTT335445557768878880090qqwwweeeeeerttryyyuyuiuiaaaaaasssdddfffgfhjjjlllzzzxxxcccbbbcTTT",
"T     TTTTTTTTTTTTTTTTTTTTTTTTTTTTTTTTTTTTTTTTTTTTTTTTTTTTTTTTTTTTTTTTTTTTTTTTTTTTTTTTTTTTTTTTTTTTTTTTTdfhhhjjjlllzzzxxxcxcbcTTT",
"T     TTTTTTTTTTTTTTTTTTTTTTTTTTTTTTTTTTTTTTTTTTTTTTTTTTTTTTTTTTTTTTTTTTTTTTTTTTTTTTTTTTTTTTTTTTTTTTTTTTfghhhjjjlllzzzxxxxccxTTT",
"T     TTTTTTTTTTTTTTTTTTTTTTTTTTTTTTTTTTTTTTTTTTTTTTTTTTTTTTTTTTTTTTTTTTTTTTTTTTTTTTTTTTTTTTTTTTTTTTTTTTfgghhhhjjlllzzzxxxccxTTT",
"T     TTTTTTTTTTTTTTTTTTTTTTTTTTTTTTTTTTTTTTTTTTTTTTTTTTTTTTTTTTTTTTTTTTTTTTTTTTTTTTTTTTTTTTTTTTTTTTTTTTdggghhhjjjlllzzzzxxxzTTT",
"T     TTTTTTTTTTTTTTTTTTTTTTTTTTTTTTTTTTTTTTTTTTTTTTTTTTTTTTTTTTTTTTTTTTTTTTTTTTTTTTTTTTTTTTTTTTTTTTTTTTdfgggghhhjjjlllzzzxxzTTT",
"T     TTTTTTTTTTTTTTTTTTTTTTTTTTTTTTTTTTTTTTTTTTTTTTTTTTTTTTTTTTTTTTTTTTTTTTTTTTTTTTTTTTTTTTTTTTTTTTTTTTdfffggghhhjjjlllzzzxzTTT",
"T     TTTTTTTTTTTTTTTTTTTTTTTTTTTTTTTTTTTTTTTTTTTTTTTTTTTTTTTTTTTTTTTTTTTTTTTTTTTTTTTTTTTTTTTTTTTTTTTTTTsdfffggghhhjjjlllzzzlTTT",
"T     TTTTTTTTTTTTTTTTTTTTTTTTTTTTTTTTTTTTTTTTTTTTTTTTTTTTTTTTTTTTTTTTTTTTTTTTTTTTTTTTTTTTTTTTTTTTTTTTTTsdddfffggghhjjjjlllzlTTT",
"T     TTTTTTTTTTTTTTTTTTTTTTTTTTTTTTTTTTTTTTTTTTTTTTTTTTTTTTTTTTTTTTTTTTTTTTTTTTTTTTTTTTTTTTTTTTTTTTTTTTasdddfffggghhhjjjllljTTT",
"T                      TTTTTTTTTTTTTTTTTTTTTTTTTTTTTTTTTTTTTTTTTTTTTTTTTTTTTTTTTTTTTTTTTTTTTTTTTTTTTTTTTassddddfffgghhhjjjlljTTT",
"T                      TTTTTTTTTTTTTTTTTTTTTTTTTTTTTTTTTTTTTTTTTTTTTTTTTTTTTTTTTTTTTTTTTTTTTTTTTTTTTTTTTasssdddffffggghhhjjjhTTT",
"T                      TTTTTTTTTTTTTTTTTTTTTTTTTTTTTTTTTTTTTTTTTTTTTTTTTTTTTTTTTTTTTTTTTTTTTTTTTTTTTTTTTpaasssdddfffggghhhjjhTTT",
"TT                      TTTTTTTTTTTTTTTTTTTTTTTTTTTTTTTTTTTTTTTTTTTTTTTTTTTTTTTTTTTTTTTTTTTTTTTTTTTTTTTTpaaasssddddfffggghhhhTTT",
"TTT                    TTTTTTTTTTTTTTTTTTTTTTTTTTTTTTTTTTTTTTTTTTTTTTTTTTTTTTTTTTTTTTTTTTTTTTTTTTTTTTTTTipaaasssddddfffggghhgTTT",
"TTTTTTTTTTTTTTTTTTTTTTTTTTTTTTTTTTTTTTTTTTTTTTTTTTTTTTTTTTTTTTTTTTTTTTTTTTTTTTTTTTTTTTTTTTTTTTTTTTTTTTTTippaaaasssddfffggghhgTTT",
"TTTTTTTTTTTTTTTTTTTTTTTTTTTTTTTTTTTTTTTTTTTTTTTTTTTTTTTTTTTTTTTTTTTTTTTTTTTTTTTTTTTTTTTTTTTTTTTTTTTTTTTTiipppaaasssdddfffgggfTTT",
"TTTTTTTTTTTTTTTTTTTTTTTTTTTTTTTTTTTTTTTTTTTTTTTTTTTTTTTTTTTTTTTTTTTTTTTTTTTTTTTTTTTTTTTTTTTTTTTTTTTTTTTTyiipppaaasssdddfffggfTTT",
"TTTT                TTTTTT$%$%%&****=**===---;;:>>::>>>,,,,222112223334444555666788899900qqqqeeerrrerrrryiiipppaaaasssdddffffTTT",
"TT                    TTTT$%&&&&***==---;;;;:::>>>,,,<<<1112223334445556666777888999000q0qwqqeeerrrtttyyyuuiiipppaaasssdddffdTTT",
"T                      TTT#%&&&&***==---;;;;:::>>>,,,<<<111222333444555666677788899000qqqqwwweeerrrtttyyyuuuiiipppaaassssddddTTT",
"T                      TTT#%%&&&&***===---;;;:::>>>,,,,<<<112223334445556666777888999000qqqwwweeerrrrtttyyuuuiiipppaaassssdddTTT",
"T                      TTT#$%%%&&&***===---;;;:::>>>,,,<<<<111222333444555666777888999000qqqwwweeerrrttttyyyuuuiiipppaaasssddTTT",
"T     TTTTTTTTTTTT     TTT@$$%%%&&&&***===---;;::::>>>,,,<<<1112223334445556666777888999000qqqwwweeerrrtttyyyuuuiiipppaaasssaTTT",
"T    TTTTTTTTTTTTTT    TTTT@$$%%%&&&&***===---;;;:::>>>,,,,<<<111222334445556667777888999000qqqwwweeerrrrtttyyyuuuiipppaaasaaTTT",
"T    TTTTTTTTTTTTTTTTTTTTTT+@$$$%$%&&&***===---;;;:::>>>,,,<<<<111222333444555656777888999900qqqwwweeerrrttttyyyuuuiiipppaaapTTT",
"T    TTTTTTTTTTTTTTTTTTTTTT+@#$$$$%%%&&&***===---;;;:::>>,,,<<<<1112223334445555666777888999000qqqwwweerrrrtttyyyuuuiiipppaaTTTT",
"T                   TTTTTTTO@##$$$%%%&&&****===---;;;:::>>>,,,<<<1112223334445556667778889999000qqqwwweeerrrtttyyyuuuiiippppTTTT",
"T                     TTTTTT+@###$$$%%%&&&***==----;;;:::>>>,,,<<<1112222333444555666777888990000qqqwwweeerrrtttyyyuuuuiiiuiTTTT",
"T                      TTTTTO@@###$$$%%%&&&***===---;;;:::>>>>,,,<<<111222333444555666777888999000qqqwwwweeerrrtttyyyuuuiiuTTTTT",
"TT                     TTTTTT+@@###$$$$%%&&&&**====---;;;:::>>>,,,<<<1112223334445556666777889999000qqqwwweeerrrtttyyyuuuuyTTTTT",
"TTT                    TTTTTTO+@@####$$$%%%&&&***===---;;;:::>>>,,,,<<1112223333444555666777888999000qqqwwweeeerrrttyyyuytTTTTTT",
"TTTTTTTTTTTTTTTTTT     TTTTTTTOO@@@###$$$%%%%&&***===---;;;:::>>>>,,,<<<111222333444555666677888999000qqqwwweeeerrrtttytytTTTTTT",
"TTTTTTTTTTTTTTTTTT     TTTTTTTXOO@@@###$$$%%%&&&&***===---;;;:::>>>,,,<<<1112223334445556667777888999000qqqwwweeerrrtttttTTTTTTT",
"T    TTTTTTTTTTTTT     TTTTTTTToO++@@####$$$%%%&&&***===---;;;:::>>>>,,,<<<111222333444555666777888999000qqqwwweeerrrrteTTTTTTTT",
"T     TTTTTTTTTTTT     TTTTTTTTToO++@@@###$$$%%%&&&&***===--;;;:::>>>,,,,<<<111222333444555666677788899900qqqwwweeeereeTTTTTTTTT",
"T                      TTTTTTTTTTXo++@@@###$$$%%%&&&&***===---;;;:::>>>,,,<<<1111223334445556667777888999000qqqwwweewwTTTTTTTTTT",
"T                      TTTTTTTTTTT.oO++@@@###$$$%%%&&&***===---;;;:::>>>,,,,<<<111222333444555666777888999000qqqwwqwqTTTTTTTTTTT",
"T                      TTTTTTTTTTTTTXO++@@@###$$$%%%&&&&***===--;;;:::>>>,,,,<<<1112223334445556667777888999000q0q9TTTTTTTTTTTTT",
"TT                    TTTTTTTTTTTTTTTTo+O@@@###$$$%%%&&&***===----;;;;::>>>,,,<<<11222233344455566677788899999000TTTTTTTTTTTTTTT",
"TTT                  TTTTTTTTTTTTTTTTTTTTO+++@@@#$$$%%%%%%&&&**====--;::::::>,,,,,<1112222233335446556667878877TTTTTTTTTTTTTTTTT",
"TTTTTTTTTTTTTTTTTTTTTTTTTTTTTTTTTTTTTTTTTTTTTTTTTTTTTTTTTTTTTTTTTTTTTTTTTTTTTTTTTTTTTTTTTTTTTTTTTTTTTTTTTTTTTTTTTTTTTTTTTTTTTTTT",
"TTTTTTTTTTTTTTTTTTTTTTTTTTTTTTTTTTTTTTTTTTTTTTTTTTTTTTTTTTTTTTTTTTTTTTTTTTTTTTTTTTTTTTTTTTTTTTTTTTTTTTTTTTTTTTTTTTTTTTTTTTTTTTTT",
"TTTTTTTTTTTTTTTTTTTTTTTTTTTTTTTTTTTTTTTTTTTTTTTTTTTTTTTTTTTTTTTTTTTTTTTTTTTTTTTTTTTTTTTTTTTTTTTTTTTTTTTTTTTTTTTTTTTTTTTTTTTTTTTT",
"TTTTTTTTTTTTTTTTTTTTTTTTTTTTTTTTTTTTTTTTTTTTTTTTTTTTTTTTTTTTTTTTTTTTTTTTTTTTTTTTTTTTTTTTTTTTTTTTTTTTTTTTTTTTTTTTTTTTTTTTTTTTTTTT",
"TTTTTTTTTTTTTTTTTTTTTTTTTTTTTTTTTTTTTTTTTTTTTTTTTTTTTTTTTTTTTTTTTTTTTTTTTTTTTTTTTTTTTTTTTTTTTTTTTTTTTTTTTTTTTTTTTTTTTTTTTTTTTTTT",
"TTTTTTTTTTTTTTTTTTTTTTTTTTTTTTTTTTTTTTTTTTTTTTTTTTTTTTTTTTTTTTTTTTTTTTTTTTTTTTTTTTTTTTTTTTTTTTTTTTTTTTTTTTTTTTTTTTTTTTTTTTTTTTTT",
"TTTTTTTTTTTTTTTTTTTTTTTTTTTTTTTTTTTTTTTTTTTTTTTTTTTTTTTTTTTTTTTTTTTTTTTTTTTTTTTTTTTTTTTTTTTTTTTTTTTTTTTTTTTTTTTTTTTTTTTTTTTTTTTT",
"TTTTTTTTTTTTTTTTTTTTTTTTTTTTTTTTTTTTTTTTTTTTTTTTTTTTTTTTTTTTTTTTTTTTTTTTTTTTTTTTTTTTTTTTTTTTTTTTTTTTTTTTTTTTTTTTTTTTTTTTTTTTTTTT",
"TTTTTTTTTTTTTTTTTTTTTTTTTTTTTTTTTTTTTTTTTTTTTTTTTTTTTTTTTTTTTTTTTTTTTTTTTTTTTTTTTTTTTTTTTTTTTTTTTTTTTTTTTTTTTTTTTTTTTTTTTTTTTTTT",
"TTTTTTTTTTTTTTTTTTTTTTTTTTTTTTTTTTTTTTTTTTTTTTTTTTTTTTTTTTTTTTTTTTTTTTTTTTTTTTTTTTTTTTTTTTTTTTTTTTTTTTTTTTTTTTTTTTTTTTTTTTTTTTTT",
"TTTTTTTTTTTTTTTTTTTTTTTTTTTTTTTTTTTTTTTTTTTTTTTTTTTTTTTTTTTTTTTTTTTTTTTTTTTTTTTTTTTTTTTTTTTTTTTTTTTTTTTTTTTTTTTTTTTTTTTTTTTTTTTT",
"TTTTTTTTTTTTTTTTTTTTTTTTTTTTTTTTTTTTTTTTTTTTTTTTTTTTTTTTTTTTTTTTTTTTTTTTTTTTTTTTTTTTTTTTTTTTTTTTTTTTTTTTTTTTTTTTTTTTTTTTTTTTTTTT",
"TTTTTTTTTTTTTTTTTTTTTTTTTTTTTTTTTTTTTTTTTTTTTTTTTTTTTTTTTTTTTTTTTTTTTTTTTTTTTTTTTTTTTTTTTTTTTTTTTTTTTTTTTTTTTTTTTTTTTTTTTTTTTTTT",
"TTTTTTTTTTTTTTTTTTTTTTTTTTTTTTTTTTTTTTTTTTTTTTTTTTTTTTTTTTTTTTTTTTTTTTTTTTTTTTTTTTTTTTTTTTTTTTTTTTTTTTTTTTTTTTTTTTTTTTTTTTTTTTTT",
"TTTTTTTTTTTTTTTTTTTTTTTTTTTTTTTTTTTTTTTTTTTTTTTTTTTTTTTTTTTTTTTTTTTTTTTTTTTTTTTTTTTTTTTTTTTTTTTTTTTTTTTTTTTTTTTTTTTTTTTTTTTTTTTT"
};
