<?xml version="1.0" encoding="UTF-8"?>
<svg xmlns="http://www.w3.org/2000/svg" viewBox="0 0 200 200" width="256" height="256">
 <path fill="#0064e7" d="m165.37035 35.44379c-.73874.007-1.16117.0403-1.16117.0403h-156.0855725v20.84679h146.4639325s8.88545-.2872 8.76122 14.37897c-.077 16.31981-6.97629 16.09063-8.76122 16.08997h-146.1962425v21.38112h146.1962425s9.37305-1.13832 9.29607 15.1815c-.077 16.31981-6.9768 16.09012-8.76173 16.08946h-146.7305825l-.26769 20.84679h149.4038025s33.69854 1.72921 33.91628-31.80168c.21773-33.53089-2.61267-29.61175-9.14466-33.31321 8.49159-3.266 8.9271-8.70935 8.9271-35.27278 0-23.24302-20.68464-24.51297-25.85578-24.46724z"/>
</svg>
