<svg height="256pt" preserveAspectRatio="xMidYMid meet" viewBox="0 0 4096 4096" width="256pt" xmlns="http://www.w3.org/2000/svg" xmlns:xlink="http://www.w3.org/1999/xlink"><linearGradient id="a" gradientUnits="userSpaceOnUse" x1="20622.121" x2="20622.121" y1="1442.7061" y2="38992.512"><stop offset="0" stop-color="#4f34c9"/><stop offset="1" stop-color="#7d69c6"/></linearGradient><path d="m327.11261 340.74228h3434.6821v3380.1636h-3434.6821z" fill="#fff" fill-rule="evenodd" stroke-width="14.0423"/><path d="m6993 39149c-501-26-1033-129-1513-294-889-305-1701-846-2330-1550-795-892-1263-1963-1387-3175-17-167-18-774-18-13680 0-12891 1-13513 18-13680 173-1702 1065-3180 2482-4115 747-493 1615-796 2535-887 198-19 27180-19 27375 0 618 61 1201 214 1749 459 477 213 903 479 1321 827 143 119 517 490 636 631 453 537 777 1093 1005 1729 164 455 268 931 309 1416 14 167 15 1504 12 13710-3 12668-4 13533-20 13655-47 358-105 657-182 925-261 921-751 1752-1430 2424-983 975-2252 1534-3645 1606-235 12-26683 11-26917-1zm20032-10189c983-11 1049-14 1610-96 778-113 1358-273 1934-536 531-242 955-526 1320-883 359-351 595-672 816-1110 245-485 388-972 480-1630 62-448 62-1295-1-1755-125-922-403-1640-878-2273-46-62-127-159-180-217s-96-107-96-110 44-52 96-110c163-179 333-416 479-670 332-576 547-1322 610-2122 20-250 20-900 0-1153-73-931-333-1731-778-2390-255-378-589-726-972-1010-615-458-1456-806-2365-979-482-92-952-150-1365-168-161-7-3390-12-9845-15l-9604-4-61 22c-88 31-167 82-222 143-56 61-115 176-132 254-8 37-11 405-11 1245 0 1313-2 1254 63 1386 65 134 219 247 367 270 44 7 3029 12 9230 16 5041 2 9316 9 9500 14 300 8 348 11 461 35 376 77 629 195 815 380 217 218 342 510 416 976 18 114 18 692 0 805-54 341-139 595-262 785-217 332-526 500-1095 594l-150 25-9455 3-9455 4-74 27c-182 64-316 219-350 402-8 40-11 430-11 1244 0 1251-1 1217 44 1339 35 95 154 220 253 267 28 14 80 31 115 39 54 12 1425 15 9458 20 5989 3 9439 9 9517 15 459 37 865 206 1084 451 202 225 317 510 380 935 19 124 19 687 1 810-68 452-194 746-412 965-209 210-487 335-910 406-86 15-468 17-3900 24-2093 4-6357 8-9477 9-4072 1-5687 4-5725 12-201 42-374 215-417 417-15 73-16 2393 0 2477 33 181 169 338 344 400l70 25 8940-1c4917 0 9327-4 9800-9z" fill="url(#a)" transform="matrix(.1 0 0 -.1 0 4096)"/></svg>
