/* XPM */
static const char * question_xpm[] = {
/* columns rows colors chars-per-pixel */
"48 48 21 1",
". c Black",
"> c #696969",
"O c #1F1F00",
"+ c #181818",
"o c #F6F900",
"; c #3F3F00",
"$ c #111111",
"  c None",
"& c #202020",
"X c #AAAA00",
"@ c #949400",
": c #303030",
"1 c #383838",
"% c #2A2A00",
", c #404040",
"= c #B4B400",
"- c #484848",
"# c #151500",
"< c #9F9F00",
"2 c #6A6A00",
"* c #353500",
/* pixels */
"                                                ",
"                                                ",
"                                                ",
"                                                ",
"                   .........                    ",
"                 ...XXXXXXX..                   ",
"               ..XXXXoooooXXXO+                 ",
"             ..XXooooooooooooX@..               ",
"            ..XoooooooooooooooXX#.              ",
"           $%XoooooooooooooooooXX#.             ",
"          &.XoooooooXXXXXXooooooXX..            ",
"          .XooooooXX.$...$XXoooooX*.            ",
"         $.XoooooX%.$     .*oooooo=..           ",
"         .XooooooX..      -.XoooooX..           ",
"         .XoooooX..+       .XoooooX;.           ",
"         ...XXXX..:        .XoooooX;.           ",
"          ........        >.XoooooX;.           ",
"                          +.XoooooX..           ",
"                         ,.Xoooooo<..           ",
"                        1#XooooooXO..           ",
"                       &#XooooooX2..            ",
"                      $%XooooooXX..             ",
"                     $%XooooooXX..              ",
"                    $%XooooooXX..               ",
"                   &.XooooooXX..                ",
"                   .XooooooXX..                 ",
"                  &.XoooooXX..                  ",
"                  ..XooooXX..                   ",
"                  ..XooooX...                   ",
"                  ..XXooXX..&                   ",
"                  ...XXXXX..                    ",
"                   ........                     ",
"                                                ",
"                                                ",
"                   .......                      ",
"                  ..XXXXX..                     ",
"                 ..XXoooXX..                    ",
"                 ..XoooooX..                    ",
"                 ..XoooooX..                    ",
"                 ..XXoooXX..                    ",
"                  ..XXXXX..                     ",
"                   .......                      ",
"                                                ",
"                                                ",
"                                                ",
"                                                ",
"                                                ",
"                                                "
};
