<?xml version="1.0" encoding="UTF-8" ?>
<!DOCTYPE svg PUBLIC "-//W3C//DTD SVG 1.1//EN" "http://www.w3.org/Graphics/SVG/1.1/DTD/svg11.dtd">
<svg width="82pt" height="82pt" viewBox="0 0 82 82" version="1.1" xmlns="http://www.w3.org/2000/svg">
<g id="#1b1b1bff">
<path fill="#1b1b1b" opacity="1.00" d=" M 31.39 1.60 C 42.33 -0.56 54.40 0.74 63.63 7.39 C 72.32 13.75 79.27 23.19 80.97 34.01 C 82.40 43.01 81.13 52.62 76.55 60.58 C 70.26 71.28 59.45 79.78 46.90 81.30 C 40.44 81.78 33.74 81.85 27.60 79.49 C 17.46 76.02 9.10 68.15 4.31 58.64 C -0.81 47.65 -0.92 34.28 4.42 23.35 C 9.79 12.74 19.63 4.15 31.39 1.60 M 33.31 5.33 C 22.08 7.40 12.77 15.65 7.81 25.72 C 3.82 34.06 3.53 43.92 6.30 52.67 C 9.22 61.72 16.18 69.06 24.39 73.64 C 31.53 77.62 40.04 78.27 48.01 77.04 C 56.84 75.44 64.55 69.95 70.13 63.08 C 76.34 55.27 78.58 44.77 77.07 35.01 C 75.57 25.13 69.36 16.36 61.33 10.62 C 53.26 4.93 42.86 3.70 33.31 5.33 Z" />
</g>
<g id="#313131ff">
<path fill="#313131" opacity="1.00" d=" M 33.31 5.33 C 42.86 3.70 53.26 4.93 61.33 10.62 C 69.36 16.36 75.57 25.13 77.07 35.01 C 78.58 44.77 76.34 55.27 70.13 63.08 C 64.55 69.95 56.84 75.44 48.01 77.04 C 40.04 78.27 31.53 77.62 24.39 73.64 C 16.18 69.06 9.22 61.72 6.30 52.67 C 3.53 43.92 3.82 34.06 7.81 25.72 C 12.77 15.65 22.08 7.40 33.31 5.33 M 35.41 8.52 C 21.78 10.09 10.55 21.78 8.42 35.15 C 7.20 43.06 8.44 51.53 12.75 58.35 C 18.74 67.82 29.55 74.56 40.95 74.06 C 49.72 74.47 58.28 70.55 64.28 64.26 C 73.57 55.77 76.31 41.59 72.19 29.91 C 69.22 21.73 62.99 14.64 55.05 11.00 C 48.96 8.10 42.01 7.82 35.41 8.52 Z" />
</g>
<g id="#626262ff">
<path fill="#626262" opacity="1.00" d=" M 35.41 8.52 C 42.01 7.82 48.96 8.10 55.05 11.00 C 62.99 14.64 69.22 21.73 72.19 29.91 C 76.31 41.59 73.57 55.77 64.28 64.26 C 58.28 70.55 49.72 74.47 40.95 74.06 C 29.55 74.56 18.74 67.82 12.75 58.35 C 8.44 51.53 7.20 43.06 8.42 35.15 C 10.55 21.78 21.78 10.09 35.41 8.52 M 36.36 11.39 C 22.76 12.95 11.61 25.38 11.02 38.97 C 10.56 46.10 12.48 53.48 16.89 59.17 C 22.59 66.46 31.60 71.54 41.02 71.09 C 56.30 71.61 70.41 58.37 70.96 43.11 C 72.06 31.59 65.51 19.97 55.39 14.52 C 49.62 11.33 42.83 10.64 36.36 11.39 Z" />
</g>
<g id="#4f4f4fff">
<path fill="#4f4f4f" opacity="1.00" d=" M 36.36 11.39 C 42.83 10.64 49.62 11.33 55.39 14.52 C 65.51 19.97 72.06 31.59 70.96 43.11 C 70.41 58.37 56.30 71.61 41.02 71.09 C 31.60 71.54 22.59 66.46 16.89 59.17 C 12.48 53.48 10.56 46.10 11.02 38.97 C 11.61 25.38 22.76 12.95 36.36 11.39 M 34.49 19.68 C 28.57 21.20 23.88 25.72 21.03 30.98 C 17.26 38.44 18.11 48.08 23.29 54.67 C 27.56 59.90 34.02 63.74 40.95 63.31 C 46.43 63.64 51.74 61.38 55.75 57.73 C 62.32 52.32 64.75 42.86 62.46 34.79 C 61.20 30.26 58.26 26.34 54.72 23.34 C 49.14 18.74 41.31 18.12 34.49 19.68 Z" />
<path fill="#4f4f4f" opacity="1.00" d=" M 35.43 24.56 C 41.54 23.13 48.85 23.77 53.27 28.72 C 59.01 34.31 59.93 43.90 55.56 50.57 C 52.33 55.26 46.83 58.69 40.99 58.32 C 32.43 58.76 24.42 51.45 23.81 42.95 C 22.74 35.12 27.85 26.89 35.43 24.56 Z" />
</g>
<g id="#e23838ff">
<path fill="#e23838" opacity="1.00" d=" M 34.49 19.68 C 41.31 18.12 49.14 18.74 54.72 23.34 C 58.26 26.34 61.20 30.26 62.46 34.79 C 64.75 42.86 62.32 52.32 55.75 57.73 C 51.74 61.38 46.43 63.64 40.95 63.31 C 34.02 63.74 27.56 59.90 23.29 54.67 C 18.11 48.08 17.26 38.44 21.03 30.98 C 23.88 25.72 28.57 21.20 34.49 19.68 M 35.43 24.56 C 27.85 26.89 22.74 35.12 23.81 42.95 C 24.42 51.45 32.43 58.76 40.99 58.32 C 46.83 58.69 52.33 55.26 55.56 50.57 C 59.93 43.90 59.01 34.31 53.27 28.72 C 48.85 23.77 41.54 23.13 35.43 24.56 Z" />
</g>
</svg>
