<?xml version="1.0" encoding="UTF-8" ?>
<!DOCTYPE svg PUBLIC "-//W3C//DTD SVG 1.1//EN" "http://www.w3.org/Graphics/SVG/1.1/DTD/svg11.dtd">
<svg width="82pt" height="82pt" viewBox="0 0 82 82" version="1.1" xmlns="http://www.w3.org/2000/svg">
<g id="#1b1b1bff">
<path fill="#1b1b1b" opacity="1.00" d=" M 31.45 1.59 C 42.35 -0.54 54.37 0.74 63.57 7.36 C 72.07 13.55 78.90 22.67 80.82 33.17 C 82.49 42.41 81.27 52.35 76.56 60.57 C 70.27 71.27 59.46 79.79 46.90 81.30 C 40.70 81.76 34.27 81.86 28.34 79.74 C 17.89 76.40 9.23 68.40 4.32 58.68 C -0.81 47.68 -0.92 34.29 4.42 23.34 C 9.80 12.72 19.66 4.12 31.45 1.59 M 33.27 5.35 C 22.04 7.36 12.80 15.68 7.80 25.69 C 3.85 34.03 3.57 43.90 6.30 52.65 C 9.07 61.52 15.84 68.64 23.72 73.29 C 31.31 77.64 40.44 78.34 48.93 76.84 C 57.39 75.10 64.63 69.69 70.09 63.16 C 76.93 54.64 78.87 42.89 76.54 32.36 C 74.50 23.78 68.91 16.29 61.94 11.04 C 53.81 4.98 43.06 3.69 33.27 5.35 Z" />
</g>
<g id="#313131ff">
<path fill="#313131" opacity="1.00" d=" M 33.27 5.35 C 43.06 3.69 53.81 4.98 61.94 11.04 C 68.91 16.29 74.50 23.78 76.54 32.36 C 78.87 42.89 76.93 54.64 70.09 63.16 C 64.63 69.69 57.39 75.10 48.93 76.84 C 40.44 78.34 31.31 77.64 23.72 73.29 C 15.84 68.64 9.07 61.52 6.30 52.65 C 3.57 43.90 3.85 34.03 7.80 25.69 C 12.80 15.68 22.04 7.36 33.27 5.35 M 35.32 8.53 C 21.74 10.14 10.57 21.78 8.43 35.10 C 7.14 43.26 8.52 52.03 13.15 58.97 C 19.22 68.11 29.83 74.57 41.00 74.07 C 49.74 74.45 58.27 70.55 64.26 64.28 C 72.51 56.77 75.61 44.72 73.33 33.96 C 71.23 24.04 64.22 15.22 55.00 10.98 C 48.89 8.08 41.93 7.82 35.32 8.53 Z" />
</g>
<g id="#626262ff">
<path fill="#626262" opacity="1.00" d=" M 35.32 8.53 C 41.93 7.82 48.89 8.08 55.00 10.98 C 64.22 15.22 71.23 24.04 73.33 33.96 C 75.61 44.72 72.51 56.77 64.26 64.28 C 58.27 70.55 49.74 74.45 41.00 74.07 C 29.83 74.57 19.22 68.11 13.15 58.97 C 8.52 52.03 7.14 43.26 8.43 35.10 C 10.57 21.78 21.74 10.14 35.32 8.53 M 36.32 11.39 C 21.31 13.19 9.56 28.03 11.05 43.03 C 11.45 58.70 26.38 72.22 42.00 71.05 C 56.60 71.05 69.87 58.51 70.88 43.97 C 72.38 32.19 65.76 20.09 55.37 14.54 C 49.60 11.35 42.79 10.60 36.32 11.39 Z" />
</g>
<g id="#4f4f4fff">
<path fill="#4f4f4f" opacity="1.00" d=" M 36.32 11.39 C 42.79 10.60 49.60 11.35 55.37 14.54 C 65.76 20.09 72.38 32.19 70.88 43.97 C 69.87 58.51 56.60 71.05 42.00 71.05 C 26.38 72.22 11.45 58.70 11.05 43.03 C 9.56 28.03 21.31 13.19 36.32 11.39 M 25.23 28.90 C 29.37 32.93 33.42 37.04 37.50 41.13 C 33.46 45.79 27.89 49.29 25.11 54.92 C 25.86 55.43 27.34 56.45 28.08 56.96 C 32.85 53.36 36.65 48.69 41.00 44.63 C 45.40 48.73 49.22 53.47 54.08 57.06 C 54.68 56.52 55.90 55.43 56.51 54.88 C 56.90 53.08 55.23 51.95 54.20 50.78 C 50.94 47.59 47.72 44.36 44.50 41.13 C 48.22 37.24 52.22 33.63 55.84 29.65 C 57.44 28.37 55.77 26.62 55.25 25.29 C 53.63 25.86 51.95 26.46 50.78 27.80 C 47.53 31.08 44.29 34.37 41.00 37.61 C 37.00 33.58 32.88 29.66 29.02 25.49 C 26.99 25.72 25.66 26.90 25.23 28.90 Z" />
</g>
<g id="#7eabe2ff">
<path fill="#7eabe2" opacity="1.00" d=" M 25.23 28.90 C 25.66 26.90 26.99 25.72 29.02 25.49 C 32.88 29.66 37.00 33.58 41.00 37.61 C 44.29 34.37 47.53 31.08 50.78 27.80 C 51.95 26.46 53.63 25.86 55.25 25.29 C 55.77 26.62 57.44 28.37 55.84 29.65 C 52.22 33.63 48.22 37.24 44.50 41.13 C 47.72 44.36 50.94 47.59 54.20 50.78 C 55.23 51.95 56.90 53.08 56.51 54.88 C 55.90 55.43 54.68 56.52 54.08 57.06 C 49.22 53.47 45.40 48.73 41.00 44.63 C 36.65 48.69 32.85 53.36 28.08 56.96 C 27.34 56.45 25.86 55.43 25.11 54.92 C 27.89 49.29 33.46 45.79 37.50 41.13 C 33.42 37.04 29.37 32.93 25.23 28.90 Z" />
</g>
</svg>
