<?xml version="1.0" encoding="UTF-8" ?>
<!DOCTYPE svg PUBLIC "-//W3C//DTD SVG 1.1//EN" "http://www.w3.org/Graphics/SVG/1.1/DTD/svg11.dtd">
<svg width="100pt" height="100pt" viewBox="0 0 100 100" version="1.1" xmlns="http://www.w3.org/2000/svg">
<g id="#232323ff">
<path fill="#232323" opacity="1.00" d=" M 36.40 3.39 C 44.21 2.47 52.18 3.27 60.05 2.98 C 63.53 2.45 66.59 5.01 67.91 8.02 C 67.68 14.95 67.33 21.92 66.57 28.81 C 63.61 33.43 60.17 37.81 56.70 42.07 C 52.39 42.80 47.56 42.82 43.29 42.07 C 39.83 37.81 36.40 33.45 33.44 28.83 C 32.66 22.59 32.62 16.27 32.10 10.00 C 31.54 7.04 34.16 4.80 36.40 3.39 M 38.72 9.65 C 38.63 15.45 38.66 21.32 39.81 27.04 C 41.72 30.43 44.55 33.20 46.90 36.28 C 48.96 36.28 51.02 36.28 53.07 36.28 C 55.97 32.34 60.43 28.97 60.92 23.78 C 61.40 19.49 61.54 15.15 61.16 10.85 C 60.58 9.02 58.55 9.36 57.05 9.21 C 50.94 9.21 44.80 8.93 38.72 9.65 Z" />
<path fill="#232323" opacity="1.00" d=" M 2.97 40.01 C 2.32 36.09 5.92 31.65 10.02 32.26 C 15.70 32.54 21.38 32.97 27.07 33.29 C 29.10 33.22 30.62 34.71 32.16 35.83 C 35.60 38.55 39.21 41.07 42.54 43.94 C 42.18 48.18 43.15 52.65 41.99 56.74 C 37.73 60.24 33.37 63.72 28.72 66.70 C 22.52 67.45 16.23 67.58 9.99 68.00 C 6.81 68.57 4.05 65.74 3.12 62.99 C 2.80 55.34 3.13 47.67 2.97 40.01 M 9.62 38.70 C 8.93 46.20 9.02 53.78 9.55 61.29 C 15.33 61.08 21.29 61.97 26.91 60.32 C 30.38 58.36 33.21 55.51 36.28 53.02 C 36.28 51.04 36.27 49.06 36.26 47.08 C 32.28 44.44 29.16 39.60 24.00 39.44 C 19.22 38.90 14.43 38.51 9.62 38.70 Z" />
<path fill="#232323" opacity="1.00" d=" M 88.30 32.32 C 92.48 31.12 97.19 34.57 97.01 38.94 C 97.00 46.31 96.99 53.68 97.01 61.05 C 97.38 64.15 94.78 67.03 92.00 67.91 C 85.32 68.00 78.64 67.26 71.97 66.86 C 68.79 65.78 66.45 63.07 63.68 61.22 C 61.67 59.47 58.90 58.31 57.64 55.88 C 57.36 51.94 57.37 47.97 57.67 44.03 C 60.04 41.25 63.37 39.50 66.13 37.14 C 68.27 35.69 70.20 33.45 72.94 33.30 C 78.06 32.93 83.19 32.71 88.30 32.32 M 73.07 39.96 C 69.64 41.87 66.84 44.69 63.75 47.08 C 63.73 49.04 63.72 51.01 63.71 52.98 C 67.08 55.73 70.18 59.00 74.18 60.86 C 79.51 61.85 85.00 61.05 90.40 61.30 C 91.03 53.79 91.04 46.21 90.41 38.70 C 84.61 38.55 78.77 38.86 73.07 39.96 Z" />
</g>
<g id="#535353ff">
<path fill="#535353" opacity="1.00" d=" M 38.72 9.65 C 44.80 8.93 50.94 9.21 57.05 9.21 C 58.55 9.36 60.58 9.02 61.16 10.85 C 61.54 15.15 61.40 19.49 60.92 23.78 C 60.43 28.97 55.97 32.34 53.07 36.28 C 51.02 36.28 48.96 36.28 46.90 36.28 C 44.55 33.20 41.72 30.43 39.81 27.04 C 38.66 21.32 38.63 15.45 38.72 9.65 Z" />
<path fill="#535353" opacity="1.00" d=" M 9.62 38.70 C 14.43 38.51 19.22 38.90 24.00 39.44 C 29.16 39.60 32.28 44.44 36.26 47.08 C 36.27 49.06 36.28 51.04 36.28 53.02 C 33.21 55.51 30.38 58.36 26.91 60.32 C 21.29 61.97 15.33 61.08 9.55 61.29 C 9.02 53.78 8.93 46.20 9.62 38.70 Z" />
<path fill="#535353" opacity="1.00" d=" M 73.07 39.96 C 78.77 38.86 84.61 38.55 90.41 38.70 C 91.04 46.21 91.03 53.79 90.40 61.30 C 85.00 61.05 79.51 61.85 74.18 60.86 C 70.18 59.00 67.08 55.73 63.71 52.98 C 63.72 51.01 63.73 49.04 63.75 47.08 C 66.84 44.69 69.64 41.87 73.07 39.96 Z" />
<path fill="#535353" opacity="1.00" d=" M 43.30 58.25 C 47.14 56.81 51.85 57.60 56.01 57.76 C 58.67 59.86 60.24 63.00 62.39 65.58 C 64.15 68.20 67.05 70.49 66.88 73.94 C 67.24 79.29 67.54 84.64 67.87 89.99 C 68.47 93.69 64.67 97.49 60.97 96.96 C 53.30 96.91 45.62 97.00 37.94 96.92 C 35.31 97.14 33.64 94.62 32.29 92.74 C 32.00 86.47 32.92 80.17 33.16 73.89 C 33.01 71.00 35.14 68.91 36.71 66.75 C 38.96 63.96 40.85 60.88 43.30 58.25 M 37.42 72.48 C 37.29 78.62 36.55 84.72 36.24 90.85 C 36.89 91.51 37.54 92.16 38.19 92.81 C 46.06 92.80 53.93 92.80 61.80 92.81 C 62.46 92.16 63.11 91.50 63.77 90.85 C 63.45 84.71 62.72 78.61 62.57 72.47 C 59.73 68.91 57.14 65.15 54.24 61.64 C 51.41 61.66 48.59 61.66 45.76 61.64 C 42.86 65.16 40.26 68.91 37.42 72.48 Z" />
</g>
<g id="#f7f7f7ff">
<path fill="#f7f7f7" opacity="1.00" d=" M 37.42 72.48 C 40.26 68.91 42.86 65.16 45.76 61.64 C 48.59 61.66 51.41 61.66 54.24 61.64 C 57.14 65.15 59.73 68.91 62.57 72.47 C 62.72 78.61 63.45 84.71 63.77 90.85 C 63.11 91.50 62.46 92.16 61.80 92.81 C 53.93 92.80 46.06 92.80 38.19 92.81 C 37.54 92.16 36.89 91.51 36.24 90.85 C 36.55 84.72 37.29 78.62 37.42 72.48 Z" />
</g>
</svg>
