<?xml version="1.0" encoding="UTF-8" ?>
<!DOCTYPE svg PUBLIC "-//W3C//DTD SVG 1.1//EN" "http://www.w3.org/Graphics/SVG/1.1/DTD/svg11.dtd">
<svg width="100pt" height="100pt" viewBox="0 0 100 100" version="1.1" xmlns="http://www.w3.org/2000/svg">
<g id="#202020ff">
<path fill="#202020" opacity="1.00" d=" M 31.93 7.32 C 33.98 5.55 35.82 2.75 38.89 3.02 C 45.95 2.93 53.02 3.02 60.08 2.98 C 64.39 2.40 68.87 6.58 67.87 10.99 C 67.32 16.93 67.42 22.95 66.50 28.84 C 64.74 32.18 62.08 34.94 59.95 38.04 C 58.72 39.51 57.77 41.41 56.04 42.33 C 51.82 42.75 47.57 42.45 43.34 42.41 C 40.45 38.38 37.31 34.53 34.45 30.48 C 33.00 28.64 33.14 26.20 32.93 23.99 C 32.63 18.43 32.28 12.88 31.93 7.32 M 38.31 7.42 C 37.15 7.75 36.39 8.91 36.40 10.09 C 36.12 14.76 36.62 19.43 37.00 24.08 C 37.28 28.97 40.74 32.80 43.77 36.34 C 45.45 38.61 48.42 38.75 51.00 38.63 C 55.54 38.92 57.82 34.34 60.24 31.28 C 63.97 26.58 63.14 20.26 63.68 14.67 C 63.52 12.37 64.51 9.24 62.27 7.68 C 59.33 6.57 56.06 7.03 52.98 6.93 C 48.09 7.12 43.13 6.48 38.31 7.42 Z" />
<path fill="#202020" opacity="1.00" d=" M 7.22 32.07 C 14.32 32.61 21.48 32.66 28.55 33.54 C 33.45 36.55 38.17 40.07 42.33 44.04 C 42.67 48.00 42.67 52.01 42.32 55.97 C 40.60 58.67 37.48 60.10 35.10 62.18 C 32.29 64.10 29.77 67.18 26.06 67.03 C 20.69 67.32 15.33 67.77 9.96 67.99 C 6.81 68.52 4.02 65.75 3.15 62.99 C 2.79 54.98 3.07 46.95 3.00 38.93 C 2.65 35.89 5.45 34.08 7.22 32.07 M 9.37 36.62 C 7.29 36.91 7.08 39.35 7.02 41.00 C 6.84 46.66 6.95 52.34 6.95 58.00 C 7.12 59.97 6.81 62.99 9.25 63.68 C 13.82 64.16 18.44 63.50 23.01 63.25 C 29.03 63.11 33.85 58.78 37.73 54.63 C 39.17 51.27 39.39 46.25 36.12 43.82 C 32.61 40.87 28.91 37.36 24.08 37.12 C 19.19 36.78 14.25 36.06 9.37 36.62 Z" />
<path fill="#202020" opacity="1.00" d=" M 87.34 32.35 C 91.30 31.28 95.58 33.06 96.83 37.11 C 97.29 43.73 96.84 50.38 97.03 57.00 C 96.88 60.06 97.77 63.84 94.97 66.00 C 92.88 68.94 89.00 67.83 85.96 67.79 C 81.08 67.30 76.12 67.50 71.29 66.61 C 67.52 64.63 64.41 61.61 60.93 59.18 C 59.61 58.00 57.50 57.02 57.57 54.95 C 57.40 51.30 57.30 47.62 57.72 43.98 C 61.89 40.06 66.56 36.53 71.45 33.55 C 76.70 32.76 82.05 32.86 87.34 32.35 M 88.45 36.41 C 83.13 36.59 77.69 36.55 72.49 37.81 C 68.46 39.76 64.69 42.59 61.88 46.09 C 61.10 49.43 60.69 53.84 63.69 56.24 C 67.25 59.30 71.06 62.90 76.02 63.14 C 80.64 63.52 85.28 63.99 89.92 63.79 C 91.14 63.81 92.42 63.01 92.62 61.75 C 93.40 57.89 92.97 53.92 93.05 50.02 C 92.96 46.11 93.41 42.13 92.58 38.27 C 92.06 36.47 89.98 36.43 88.45 36.41 Z" />
<path fill="#202020" opacity="1.00" d=" M 43.32 58.25 C 47.14 56.78 51.78 57.50 55.89 57.76 C 58.53 59.55 60.00 62.58 62.02 64.98 C 63.87 67.76 66.82 70.23 66.88 73.82 C 67.24 79.55 67.68 85.27 67.91 91.00 C 68.11 93.57 65.74 95.36 63.88 96.71 C 59.29 97.37 54.61 96.86 49.99 97.00 C 45.37 96.86 40.71 97.37 36.13 96.71 C 33.92 95.22 31.42 93.00 32.10 90.02 C 32.64 83.82 32.51 77.52 33.56 71.39 C 36.39 66.74 39.79 62.39 43.32 58.25 M 45.46 62.29 C 42.30 65.15 39.62 68.65 37.79 72.51 C 36.44 77.24 36.59 82.24 36.32 87.11 C 36.47 89.00 35.74 92.06 38.25 92.63 C 44.44 93.55 50.74 92.84 56.98 93.07 C 59.11 92.81 61.99 93.45 63.42 91.42 C 64.17 86.63 63.37 81.76 63.11 76.95 C 63.06 71.68 59.36 67.58 56.14 63.79 C 53.72 60.62 48.74 60.82 45.46 62.29 Z" />
</g>
<g id="#313131ff">
<path fill="#313131" opacity="1.00" d=" M 38.31 7.42 C 43.13 6.48 48.09 7.12 52.98 6.93 C 56.06 7.03 59.33 6.57 62.27 7.68 C 64.51 9.24 63.52 12.37 63.68 14.67 C 63.14 20.26 63.97 26.58 60.24 31.28 C 57.82 34.34 55.54 38.92 51.00 38.63 C 48.42 38.75 45.45 38.61 43.77 36.34 C 40.74 32.80 37.28 28.97 37.00 24.08 C 36.62 19.43 36.12 14.76 36.40 10.09 C 36.39 8.91 37.15 7.75 38.31 7.42 M 40.09 9.94 L 39.48 10.50 C 38.71 14.80 39.30 19.22 39.59 23.55 C 39.89 28.70 44.23 32.12 47.07 36.01 C 49.03 35.99 50.98 35.98 52.93 35.97 C 55.28 32.96 58.12 30.24 59.78 26.75 C 61.09 21.24 60.62 15.49 60.93 9.87 C 54.01 9.53 46.98 8.94 40.09 9.94 Z" />
<path fill="#313131" opacity="1.00" d=" M 9.37 36.62 C 14.25 36.06 19.19 36.78 24.08 37.12 C 28.91 37.36 32.61 40.87 36.12 43.82 C 39.39 46.25 39.17 51.27 37.73 54.63 C 33.85 58.78 29.03 63.11 23.01 63.25 C 18.44 63.50 13.82 64.16 9.25 63.68 C 6.81 62.99 7.12 59.97 6.95 58.00 C 6.95 52.34 6.84 46.66 7.02 41.00 C 7.08 39.35 7.29 36.91 9.37 36.62 M 10.16 39.52 C 8.65 46.42 9.90 53.58 9.48 60.59 C 15.06 60.98 20.77 61.20 26.28 60.07 C 30.01 58.45 32.83 55.34 36.00 52.88 C 35.97 51.00 35.95 49.12 35.93 47.24 C 31.94 44.35 28.47 39.77 23.13 39.67 C 18.82 39.36 14.47 39.05 10.16 39.52 Z" />
<path fill="#313131" opacity="1.00" d=" M 88.45 36.41 C 89.98 36.43 92.06 36.47 92.58 38.27 C 93.41 42.13 92.96 46.11 93.05 50.02 C 92.97 53.92 93.40 57.89 92.62 61.75 C 92.42 63.01 91.14 63.81 89.92 63.79 C 85.28 63.99 80.64 63.52 76.02 63.14 C 71.06 62.90 67.25 59.30 63.69 56.24 C 60.69 53.84 61.10 49.43 61.88 46.09 C 64.69 42.59 68.46 39.76 72.49 37.81 C 77.69 36.55 83.13 36.59 88.45 36.41 M 73.35 40.35 C 69.99 42.10 66.88 44.50 64.43 47.39 C 64.02 49.17 64.01 51.01 63.87 52.82 C 67.10 55.26 69.93 58.40 73.70 60.03 C 79.21 61.20 84.94 61.03 90.52 60.52 C 90.38 53.43 90.86 46.32 90.04 39.26 C 84.48 39.55 78.78 38.94 73.35 40.35 Z" />
<path fill="#313131" opacity="1.00" d=" M 45.46 62.29 C 48.74 60.82 53.72 60.62 56.14 63.79 C 59.36 67.58 63.06 71.68 63.11 76.95 C 63.37 81.76 64.17 86.63 63.42 91.42 C 61.99 93.45 59.11 92.81 56.98 93.07 C 50.74 92.84 44.44 93.55 38.25 92.63 C 35.74 92.06 36.47 89.00 36.32 87.11 C 36.59 82.24 36.44 77.24 37.79 72.51 C 39.62 68.65 42.30 65.15 45.46 62.29 M 45.82 65.80 C 43.17 68.90 39.97 72.12 39.62 76.41 C 39.08 81.08 39.13 85.80 39.49 90.48 C 46.50 90.50 53.52 90.48 60.53 90.52 C 60.81 84.80 61.21 78.89 59.66 73.32 C 57.92 69.97 55.53 66.84 52.60 64.46 C 50.35 63.63 47.35 63.68 45.82 65.80 Z" />
</g>
<g id="#626262ff">
<path fill="#626262" opacity="1.00" d=" M 40.09 9.94 C 46.98 8.94 54.01 9.53 60.93 9.87 C 60.62 15.49 61.09 21.24 59.78 26.75 C 58.12 30.24 55.28 32.96 52.93 35.97 C 50.98 35.98 49.03 35.99 47.07 36.01 C 44.23 32.12 39.89 28.70 39.59 23.55 C 39.30 19.22 38.71 14.80 39.48 10.50 L 40.09 9.94 M 43.25 13.50 C 43.30 18.92 42.58 25.14 46.55 29.48 C 47.78 30.70 49.63 33.37 51.41 31.52 C 57.12 27.35 56.97 19.80 56.82 13.47 C 52.30 13.41 47.78 13.42 43.25 13.50 Z" />
<path fill="#626262" opacity="1.00" d=" M 10.16 39.52 C 14.47 39.05 18.82 39.36 23.13 39.67 C 28.47 39.77 31.94 44.35 35.93 47.24 C 35.95 49.12 35.97 51.00 36.00 52.88 C 32.83 55.34 30.01 58.45 26.28 60.07 C 20.77 61.20 15.06 60.98 9.48 60.59 C 9.90 53.58 8.65 46.42 10.16 39.52 M 13.49 43.30 C 13.42 47.84 13.41 52.38 13.47 56.92 C 17.19 56.86 20.97 57.06 24.63 56.26 C 28.04 55.31 30.35 52.40 32.83 50.07 C 30.58 48.03 28.51 45.62 25.65 44.40 C 21.74 43.11 17.55 43.43 13.49 43.30 Z" />
<path fill="#626262" opacity="1.00" d=" M 73.35 40.35 C 78.78 38.94 84.48 39.55 90.04 39.26 C 90.86 46.32 90.38 53.43 90.52 60.52 C 84.94 61.03 79.21 61.20 73.70 60.03 C 69.93 58.40 67.10 55.26 63.87 52.82 C 64.01 51.01 64.02 49.17 64.43 47.39 C 66.88 44.50 69.99 42.10 73.35 40.35 M 70.65 46.68 C 69.08 47.85 66.68 50.33 69.01 52.01 C 73.22 57.39 80.42 57.00 86.54 56.92 C 86.59 52.38 86.58 47.84 86.49 43.31 C 81.13 43.47 74.95 42.76 70.65 46.68 Z" />
<path fill="#626262" opacity="1.00" d=" M 45.82 65.80 C 47.35 63.68 50.35 63.63 52.60 64.46 C 55.53 66.84 57.92 69.97 59.66 73.32 C 61.21 78.89 60.81 84.80 60.53 90.52 C 53.52 90.48 46.50 90.50 39.49 90.48 C 39.13 85.80 39.08 81.08 39.62 76.41 C 39.97 72.12 43.17 68.90 45.82 65.80 M 43.84 75.87 C 43.05 79.36 43.32 82.96 43.29 86.51 C 47.78 86.58 52.27 86.58 56.75 86.51 C 56.70 82.95 56.95 79.32 56.17 75.82 C 55.28 72.28 52.37 69.84 50.00 67.26 C 47.63 69.85 44.70 72.31 43.84 75.87 Z" />
</g>
<g id="#4f4f4fff">
<path fill="#4f4f4f" opacity="1.00" d=" M 43.25 13.50 C 47.78 13.42 52.30 13.41 56.82 13.47 C 56.97 19.80 57.12 27.35 51.41 31.52 C 49.63 33.37 47.78 30.70 46.55 29.48 C 42.58 25.14 43.30 18.92 43.25 13.50 Z" />
<path fill="#4f4f4f" opacity="1.00" d=" M 13.49 43.30 C 17.55 43.43 21.74 43.11 25.65 44.40 C 28.51 45.62 30.58 48.03 32.83 50.07 C 30.35 52.40 28.04 55.31 24.63 56.26 C 20.97 57.06 17.19 56.86 13.47 56.92 C 13.41 52.38 13.42 47.84 13.49 43.30 Z" />
<path fill="#4f4f4f" opacity="1.00" d=" M 70.65 46.68 C 74.95 42.76 81.13 43.47 86.49 43.31 C 86.58 47.84 86.59 52.38 86.54 56.92 C 80.42 57.00 73.22 57.39 69.01 52.01 C 66.68 50.33 69.08 47.85 70.65 46.68 Z" />
<path fill="#4f4f4f" opacity="1.00" d=" M 43.84 75.87 C 44.70 72.31 47.63 69.85 50.00 67.26 C 52.37 69.84 55.28 72.28 56.17 75.82 C 56.95 79.32 56.70 82.95 56.75 86.51 C 52.27 86.58 47.78 86.58 43.29 86.51 C 43.32 82.96 43.05 79.36 43.84 75.87 Z" />
</g>
</svg>
