<?xml version="1.0" encoding="UTF-8" ?>
<!DOCTYPE svg PUBLIC "-//W3C//DTD SVG 1.1//EN" "http://www.w3.org/Graphics/SVG/1.1/DTD/svg11.dtd">
<svg width="100pt" height="100pt" viewBox="0 0 100 100" version="1.1" xmlns="http://www.w3.org/2000/svg">
<g id="#404040ff">
<path fill="#404040" opacity="1.00" d=" M 31.94 7.34 C 33.97 5.56 35.78 2.73 38.85 3.02 C 46.26 2.97 53.68 2.97 61.09 3.02 C 65.07 2.91 68.83 7.06 67.87 11.05 C 67.31 16.98 67.42 22.99 66.50 28.87 C 63.59 33.51 60.16 37.89 56.64 42.10 C 52.32 43.01 47.79 42.32 43.38 42.44 C 40.86 39.05 38.32 35.68 35.75 32.32 C 34.63 30.75 33.23 29.16 33.20 27.11 C 32.65 20.53 32.40 13.93 31.94 7.34 M 38.40 7.00 C 37.62 7.75 36.85 8.50 36.08 9.25 C 36.67 15.39 36.46 21.63 37.49 27.71 C 39.69 31.58 42.78 34.84 45.30 38.49 C 48.43 38.50 51.57 38.50 54.70 38.49 C 57.25 34.80 60.38 31.50 62.59 27.58 C 63.54 21.56 63.36 15.40 63.96 9.32 C 63.18 8.55 62.40 7.77 61.61 7.00 C 53.87 7.00 46.14 7.00 38.40 7.00 Z" />
</g>
<g id="#d7d7d7ff">
<path fill="#d7d7d7" opacity="1.00" d=" M 38.40 7.00 C 46.14 7.00 53.87 7.00 61.61 7.00 C 62.40 7.77 63.18 8.55 63.96 9.32 C 63.36 15.40 63.54 21.56 62.59 27.58 C 60.38 31.50 57.25 34.80 54.70 38.49 C 51.57 38.50 48.43 38.50 45.30 38.49 C 42.78 34.84 39.69 31.58 37.49 27.71 C 36.46 21.63 36.67 15.39 36.08 9.25 C 36.85 8.50 37.62 7.75 38.40 7.00 M 39.44 10.40 C 38.71 14.76 39.34 19.21 39.59 23.59 C 39.84 28.75 44.28 32.11 47.08 36.01 C 49.04 35.99 50.99 35.98 52.95 35.96 C 55.82 32.02 60.37 28.60 60.43 23.30 C 60.81 18.84 60.80 14.36 60.91 9.89 C 55.27 9.39 49.60 9.37 43.94 9.48 C 42.44 9.64 40.70 9.40 39.44 10.40 Z" />
</g>
<g id="#ffffffff">
<path fill="#ffffff" opacity="1.00" d=" M 39.44 10.40 C 40.70 9.40 42.44 9.64 43.94 9.48 C 49.60 9.37 55.27 9.39 60.91 9.89 C 60.80 14.36 60.81 18.84 60.43 23.30 C 60.37 28.60 55.82 32.02 52.95 35.96 C 50.99 35.98 49.04 35.99 47.08 36.01 C 44.28 32.11 39.84 28.75 39.59 23.59 C 39.34 19.21 38.71 14.76 39.44 10.40 M 43.15 14.02 C 43.02 20.83 43.54 29.44 50.74 32.61 C 52.63 30.20 54.97 27.94 55.85 24.92 C 56.84 21.35 56.76 17.61 56.84 13.94 C 52.29 13.47 47.70 13.48 43.15 14.02 Z" />
</g>
<g id="#f5f5f5ff">
<path fill="#f5f5f5" opacity="1.00" d=" M 43.15 14.02 C 47.70 13.48 52.29 13.47 56.84 13.94 C 56.76 17.61 56.84 21.35 55.85 24.92 C 54.97 27.94 52.63 30.20 50.74 32.61 C 43.54 29.44 43.02 20.83 43.15 14.02 Z" />
</g>
<g id="#202020ff">
<path fill="#202020" opacity="1.00" d=" M 7.24 32.07 C 14.33 32.61 21.48 32.67 28.53 33.53 C 33.43 36.55 38.18 40.07 42.34 44.05 C 42.48 48.23 43.08 52.68 41.96 56.71 C 38.60 59.83 34.71 62.33 31.14 65.19 C 28.40 67.68 24.49 66.94 21.12 67.33 C 16.46 67.42 11.78 68.39 7.14 67.75 C 5.27 66.39 3.00 64.62 3.05 62.07 C 2.91 54.38 3.02 46.67 3.00 38.97 C 2.61 35.89 5.44 34.08 7.24 32.07 M 9.37 36.56 C 7.78 36.71 7.11 38.54 7.10 39.93 C 6.74 44.95 7.09 49.99 6.93 55.03 C 7.01 57.49 6.70 60.09 7.60 62.44 C 8.71 64.37 11.19 63.79 13.03 63.84 C 17.64 63.52 22.32 63.58 26.87 62.68 C 30.49 61.39 33.40 58.68 36.31 56.26 C 39.46 53.92 38.76 49.45 38.16 46.08 C 35.95 43.19 32.86 41.13 29.92 39.06 C 27.09 36.93 23.40 37.09 20.05 36.80 C 16.50 36.66 12.92 36.13 9.37 36.56 Z" />
<path fill="#202020" opacity="1.00" d=" M 87.27 32.36 C 89.05 32.27 90.85 32.09 92.64 32.32 C 94.86 33.81 97.29 35.98 97.00 38.94 C 97.02 46.32 97.01 53.70 97.00 61.08 C 97.31 64.73 93.74 68.53 90.01 67.99 C 84.03 67.64 78.04 67.39 72.08 66.81 C 68.62 65.71 66.10 62.81 63.13 60.83 C 61.29 59.23 58.77 58.13 57.68 55.87 C 57.32 51.97 57.31 48.01 57.71 44.11 C 59.94 41.25 63.32 39.52 66.06 37.18 C 68.23 35.71 70.20 33.44 72.97 33.28 C 77.73 32.90 82.51 32.75 87.27 32.36 M 88.34 36.40 C 83.06 36.66 77.67 36.57 72.51 37.77 C 68.49 39.78 64.74 42.61 61.85 46.06 C 61.24 49.41 60.54 53.88 63.66 56.24 C 67.30 59.19 71.00 62.98 75.99 63.15 C 80.91 63.43 85.86 64.10 90.79 63.73 C 93.48 62.70 92.89 59.32 93.07 57.03 C 92.88 51.05 93.36 45.05 92.80 39.09 C 92.70 36.78 90.21 36.23 88.34 36.40 Z" />
<path fill="#202020" opacity="1.00" d=" M 43.49 58.01 C 47.50 57.04 51.80 57.38 55.88 57.76 C 58.56 59.52 59.99 62.62 62.04 65.03 C 63.90 67.80 66.86 70.25 66.88 73.84 C 67.25 79.24 67.57 84.63 67.90 90.03 C 68.46 93.69 64.77 97.41 61.11 97.01 C 53.71 97.01 46.31 97.02 38.91 97.00 C 35.79 97.43 33.00 94.76 32.12 92.02 C 32.38 85.14 32.56 78.19 33.55 71.38 C 36.45 66.66 39.92 62.24 43.49 58.01 M 45.45 62.28 C 41.53 66.33 37.03 70.97 36.92 76.97 C 36.69 81.76 35.92 86.60 36.57 91.39 C 37.71 93.24 40.14 92.89 41.98 93.05 C 47.99 92.98 54.00 93.20 60.00 92.95 C 61.79 93.04 63.93 91.98 63.70 89.90 C 63.67 84.32 63.52 78.67 62.52 73.17 C 60.61 68.84 57.54 64.89 53.94 61.82 C 51.20 61.32 47.96 60.88 45.45 62.28 Z" />
</g>
<g id="#313131ff">
<path fill="#313131" opacity="1.00" d=" M 9.37 36.56 C 12.92 36.13 16.50 36.66 20.05 36.80 C 23.40 37.09 27.09 36.93 29.92 39.06 C 32.86 41.13 35.95 43.19 38.16 46.08 C 38.76 49.45 39.46 53.92 36.31 56.26 C 33.40 58.68 30.49 61.39 26.87 62.68 C 22.32 63.58 17.64 63.52 13.03 63.84 C 11.19 63.79 8.71 64.37 7.60 62.44 C 6.70 60.09 7.01 57.49 6.93 55.03 C 7.09 49.99 6.74 44.95 7.10 39.93 C 7.11 38.54 7.78 36.71 9.37 36.56 M 10.25 39.48 C 8.52 46.30 10.00 53.53 9.48 60.51 C 15.05 61.19 20.76 61.00 26.30 60.13 C 29.98 58.42 32.80 55.35 35.99 52.90 C 35.97 51.01 35.95 49.12 35.92 47.23 C 32.62 44.83 29.80 41.54 25.92 40.06 C 20.75 39.32 15.46 39.11 10.25 39.48 Z" />
<path fill="#313131" opacity="1.00" d=" M 88.34 36.40 C 90.21 36.23 92.70 36.78 92.80 39.09 C 93.36 45.05 92.88 51.05 93.07 57.03 C 92.89 59.32 93.48 62.70 90.79 63.73 C 85.86 64.10 80.91 63.43 75.99 63.15 C 71.00 62.98 67.30 59.19 63.66 56.24 C 60.54 53.88 61.24 49.41 61.85 46.06 C 64.74 42.61 68.49 39.78 72.51 37.77 C 77.67 36.57 83.06 36.66 88.34 36.40 M 74.06 40.06 C 70.19 41.54 67.37 44.83 64.09 47.26 C 64.07 49.13 64.06 51.01 64.05 52.89 C 67.22 55.37 70.05 58.49 73.80 60.11 C 79.30 60.99 85.00 61.27 90.53 60.44 C 89.97 53.49 91.52 46.28 89.72 39.51 C 84.52 39.08 79.22 39.33 74.06 40.06 Z" />
<path fill="#313131" opacity="1.00" d=" M 45.45 62.28 C 47.96 60.88 51.20 61.32 53.94 61.82 C 57.54 64.89 60.61 68.84 62.52 73.17 C 63.52 78.67 63.67 84.32 63.70 89.90 C 63.93 91.98 61.79 93.04 60.00 92.95 C 54.00 93.20 47.99 92.98 41.98 93.05 C 40.14 92.89 37.71 93.24 36.57 91.39 C 35.92 86.60 36.69 81.76 36.92 76.97 C 37.03 70.97 41.53 66.33 45.45 62.28 M 45.82 65.80 C 43.26 68.98 39.83 72.10 39.62 76.45 C 39.24 81.12 38.86 85.85 39.62 90.51 C 46.40 90.27 53.20 90.88 59.95 90.27 C 61.43 88.88 60.76 86.72 60.86 84.94 C 60.51 81.08 60.88 77.06 59.71 73.32 C 57.89 70.00 55.49 66.91 52.64 64.41 C 50.36 63.77 47.30 63.55 45.82 65.80 Z" />
</g>
<g id="#626262ff">
<path fill="#626262" opacity="1.00" d=" M 10.25 39.48 C 15.46 39.11 20.75 39.32 25.92 40.06 C 29.80 41.54 32.62 44.83 35.92 47.23 C 35.95 49.12 35.97 51.01 35.99 52.90 C 32.80 55.35 29.98 58.42 26.30 60.13 C 20.76 61.00 15.05 61.19 9.48 60.51 C 10.00 53.53 8.52 46.30 10.25 39.48 M 13.51 43.31 C 13.41 47.84 13.40 52.37 13.48 56.89 C 17.19 56.82 20.96 57.09 24.61 56.27 C 28.03 55.36 30.32 52.43 32.76 50.08 C 30.54 48.01 28.49 45.54 25.61 44.36 C 21.71 43.11 17.55 43.45 13.51 43.31 Z" />
<path fill="#626262" opacity="1.00" d=" M 74.06 40.06 C 79.22 39.33 84.52 39.08 89.72 39.51 C 91.52 46.28 89.97 53.49 90.53 60.44 C 85.00 61.27 79.30 60.99 73.80 60.11 C 70.05 58.49 67.22 55.37 64.05 52.89 C 64.06 51.01 64.07 49.13 64.09 47.26 C 67.37 44.83 70.19 41.54 74.06 40.06 M 71.24 46.23 C 69.86 47.46 67.81 48.68 67.99 50.79 C 69.76 53.03 72.04 54.96 74.69 56.07 C 78.52 57.18 82.58 56.79 86.52 56.89 C 86.60 52.38 86.59 47.86 86.48 43.34 C 81.36 43.54 75.48 42.66 71.24 46.23 Z" />
<path fill="#626262" opacity="1.00" d=" M 45.82 65.80 C 47.30 63.55 50.36 63.77 52.64 64.41 C 55.49 66.91 57.89 70.00 59.71 73.32 C 60.88 77.06 60.51 81.08 60.86 84.94 C 60.76 86.72 61.43 88.88 59.95 90.27 C 53.20 90.88 46.40 90.27 39.62 90.51 C 38.86 85.85 39.24 81.12 39.62 76.45 C 39.83 72.10 43.26 68.98 45.82 65.80 M 43.83 75.85 C 43.05 79.33 43.33 82.94 43.29 86.49 C 47.77 86.60 52.25 86.60 56.73 86.49 C 56.68 82.94 56.96 79.33 56.19 75.84 C 55.33 72.29 52.38 69.87 50.00 67.32 C 47.62 69.87 44.66 72.29 43.83 75.85 Z" />
</g>
<g id="#4f4f4fff">
<path fill="#4f4f4f" opacity="1.00" d=" M 13.51 43.31 C 17.55 43.45 21.71 43.11 25.61 44.36 C 28.49 45.54 30.54 48.01 32.76 50.08 C 30.32 52.43 28.03 55.36 24.61 56.27 C 20.96 57.09 17.19 56.82 13.48 56.89 C 13.40 52.37 13.41 47.84 13.51 43.31 Z" />
<path fill="#4f4f4f" opacity="1.00" d=" M 71.24 46.23 C 75.48 42.66 81.36 43.54 86.48 43.34 C 86.59 47.86 86.60 52.38 86.52 56.89 C 82.58 56.79 78.52 57.18 74.69 56.07 C 72.04 54.96 69.76 53.03 67.99 50.79 C 67.81 48.68 69.86 47.46 71.24 46.23 Z" />
<path fill="#4f4f4f" opacity="1.00" d=" M 43.83 75.85 C 44.66 72.29 47.62 69.87 50.00 67.32 C 52.38 69.87 55.33 72.29 56.19 75.84 C 56.96 79.33 56.68 82.94 56.73 86.49 C 52.25 86.60 47.77 86.60 43.29 86.49 C 43.33 82.94 43.05 79.33 43.83 75.85 Z" />
</g>
</svg>
