<?xml version="1.0" encoding="UTF-8" ?>
<!DOCTYPE svg PUBLIC "-//W3C//DTD SVG 1.1//EN" "http://www.w3.org/Graphics/SVG/1.1/DTD/svg11.dtd">
<svg width="100pt" height="100pt" viewBox="0 0 100 100" version="1.1" xmlns="http://www.w3.org/2000/svg">
<g id="#232323ff">
<path fill="#232323" opacity="1.00" d=" M 32.10 8.10 C 33.25 5.45 35.81 2.78 38.94 3.01 C 46.32 2.99 53.70 2.99 61.07 3.01 C 64.19 2.78 66.69 5.44 67.92 8.03 C 67.67 14.95 67.31 21.92 66.58 28.81 C 63.61 33.43 60.17 37.79 56.72 42.06 C 52.39 43.07 47.76 42.29 43.31 42.39 C 40.15 37.79 36.37 33.59 33.43 28.84 C 32.73 21.96 32.37 15.01 32.10 8.10 M 38.72 9.66 C 38.60 15.47 38.63 21.33 39.80 27.04 C 41.74 30.43 44.54 33.21 46.91 36.29 C 48.96 36.28 51.02 36.28 53.07 36.29 C 55.96 32.33 60.44 28.98 60.93 23.77 C 61.43 19.49 61.50 15.14 61.18 10.85 C 60.40 8.69 57.81 9.45 56.05 9.20 C 50.27 9.28 44.47 8.92 38.72 9.66 Z" />
<path fill="#232323" opacity="1.00" d=" M 7.27 32.11 C 14.37 32.53 21.50 32.79 28.57 33.48 C 33.40 36.64 38.20 40.10 42.39 44.06 C 42.60 48.02 42.62 52.01 42.38 55.97 C 40.66 58.68 37.46 60.04 35.10 62.14 C 32.26 64.04 29.80 67.28 26.04 67.04 C 20.68 67.29 15.32 67.75 9.95 67.99 C 6.78 68.57 4.02 65.69 3.11 62.95 C 2.84 54.94 3.09 46.90 2.99 38.88 C 2.58 35.82 5.47 34.06 7.27 32.11 M 9.34 40.96 C 9.14 47.73 8.99 54.54 9.56 61.31 C 14.93 61.06 20.39 61.80 25.71 60.92 C 29.75 59.06 32.87 55.77 36.28 53.01 C 36.27 51.03 36.27 49.05 36.26 47.08 C 33.14 44.68 30.31 41.86 26.90 39.88 C 22.31 39.12 17.64 38.63 12.99 38.63 C 11.48 38.53 9.09 38.90 9.34 40.96 Z" />
<path fill="#232323" opacity="1.00" d=" M 43.33 58.12 C 47.50 57.11 52.49 57.06 56.68 58.15 C 60.15 62.37 63.48 66.76 66.53 71.29 C 67.37 78.14 67.62 85.09 67.91 91.99 C 66.91 94.75 64.19 97.54 60.97 97.01 C 53.66 96.99 46.34 97.00 39.02 97.01 C 35.81 97.54 33.09 94.76 32.10 92.00 C 32.44 85.12 32.63 78.18 33.51 71.35 C 36.46 66.73 39.89 62.38 43.33 58.12 M 47.07 63.74 C 44.66 66.86 41.79 69.68 39.91 73.17 C 38.14 78.73 38.80 84.66 38.72 90.41 C 46.21 91.01 53.79 91.03 61.28 90.38 C 61.15 84.64 61.94 78.68 60.10 73.12 C 58.18 69.67 55.36 66.83 52.93 63.74 C 50.98 63.75 49.02 63.74 47.07 63.74 Z" />
</g>
<g id="#535353ff">
<path fill="#535353" opacity="1.00" d=" M 38.72 9.66 C 44.47 8.92 50.27 9.28 56.05 9.20 C 57.81 9.45 60.40 8.69 61.18 10.85 C 61.50 15.14 61.43 19.49 60.93 23.77 C 60.44 28.98 55.96 32.33 53.07 36.29 C 51.02 36.28 48.96 36.28 46.91 36.29 C 44.54 33.21 41.74 30.43 39.80 27.04 C 38.63 21.33 38.60 15.47 38.72 9.66 Z" />
<path fill="#535353" opacity="1.00" d=" M 71.47 33.50 C 77.64 32.89 83.86 32.66 90.05 32.26 C 93.20 31.56 95.66 34.52 96.82 37.06 C 97.13 45.02 96.85 53.01 96.96 60.99 C 97.36 64.64 93.76 68.52 90.03 67.94 C 84.04 67.59 78.03 67.36 72.06 66.80 C 69.06 65.93 66.89 63.40 64.35 61.69 C 62.14 59.76 59.20 58.47 57.64 55.92 C 57.33 51.90 57.61 47.86 57.55 43.83 C 62.14 40.33 66.53 36.50 71.47 33.50 M 72.53 37.44 C 68.88 40.20 65.22 42.94 61.65 45.78 C 61.66 48.67 61.67 51.55 61.61 54.44 C 65.20 57.26 68.83 60.03 72.48 62.78 C 78.60 62.73 84.66 63.75 90.78 63.85 C 91.46 63.17 92.14 62.48 92.81 61.79 C 92.79 53.99 92.81 46.19 92.81 38.39 C 92.06 37.71 91.32 37.02 90.58 36.33 C 84.57 36.85 78.56 37.38 72.53 37.44 Z" />
<path fill="#535353" opacity="1.00" d=" M 9.34 40.96 C 9.09 38.90 11.48 38.53 12.99 38.63 C 17.64 38.63 22.31 39.12 26.90 39.88 C 30.31 41.86 33.14 44.68 36.26 47.08 C 36.27 49.05 36.27 51.03 36.28 53.01 C 32.87 55.77 29.75 59.06 25.71 60.92 C 20.39 61.80 14.93 61.06 9.56 61.31 C 8.99 54.54 9.14 47.73 9.34 40.96 Z" />
<path fill="#535353" opacity="1.00" d=" M 47.07 63.74 C 49.02 63.74 50.98 63.75 52.93 63.74 C 55.36 66.83 58.18 69.67 60.10 73.12 C 61.94 78.68 61.15 84.64 61.28 90.38 C 53.79 91.03 46.21 91.01 38.72 90.41 C 38.80 84.66 38.14 78.73 39.91 73.17 C 41.79 69.68 44.66 66.86 47.07 63.74 Z" />
</g>
<g id="#f7f7f7ff">
<path fill="#f7f7f7" opacity="1.00" d=" M 72.53 37.44 C 78.56 37.38 84.57 36.85 90.58 36.33 C 91.32 37.02 92.06 37.71 92.81 38.39 C 92.81 46.19 92.79 53.99 92.81 61.79 C 92.14 62.48 91.46 63.17 90.78 63.85 C 84.66 63.75 78.60 62.73 72.48 62.78 C 68.83 60.03 65.20 57.26 61.61 54.44 C 61.67 51.55 61.66 48.67 61.65 45.78 C 65.22 42.94 68.88 40.20 72.53 37.44 Z" />
</g>
</svg>
