<?xml version="1.0" encoding="UTF-8" ?>
<!DOCTYPE svg PUBLIC "-//W3C//DTD SVG 1.1//EN" "http://www.w3.org/Graphics/SVG/1.1/DTD/svg11.dtd">
<svg width="100pt" height="100pt" viewBox="0 0 100 100" version="1.1" xmlns="http://www.w3.org/2000/svg">
<g id="#202020ff">
<path fill="#202020" opacity="1.00" d=" M 36.38 3.44 C 39.49 2.61 42.78 3.10 45.97 2.99 C 51.64 3.16 57.34 2.65 62.99 3.24 C 65.62 4.26 68.35 6.87 67.91 9.95 C 67.40 16.22 67.44 22.56 66.49 28.78 C 64.78 32.14 62.13 34.91 59.99 38.00 C 58.73 39.48 57.76 41.40 56.00 42.31 C 51.95 42.69 47.85 42.65 43.80 42.34 C 40.95 39.77 38.97 36.43 36.60 33.46 C 35.26 31.51 33.40 29.67 33.22 27.19 C 32.71 21.45 32.46 15.70 32.09 9.95 C 31.41 6.95 34.15 4.85 36.38 3.44 M 35.95 8.26 C 36.48 13.48 36.42 18.75 37.01 23.96 C 37.50 28.79 40.38 33.00 43.79 36.30 C 46.35 38.95 50.55 39.23 53.86 38.01 C 57.89 35.47 60.86 31.29 62.43 26.82 C 63.87 20.76 63.34 14.46 64.07 8.30 C 54.84 6.19 45.18 6.27 35.95 8.26 Z" />
<path fill="#202020" opacity="1.00" d=" M 88.30 32.31 C 92.47 31.18 97.20 34.53 96.99 38.93 C 97.03 46.31 97.02 53.69 97.00 61.06 C 97.32 64.73 93.75 68.46 90.02 67.99 C 84.01 67.69 77.97 67.40 71.98 66.82 C 69.03 65.86 66.82 63.47 64.30 61.74 C 62.08 59.86 59.29 58.46 57.69 55.95 C 57.32 51.97 57.29 47.92 57.75 43.95 C 60.00 41.43 62.93 39.67 65.53 37.56 C 68.08 35.77 70.52 33.21 73.86 33.24 C 78.67 32.90 83.49 32.64 88.30 32.31 M 87.40 36.40 C 82.44 36.40 77.38 36.58 72.58 37.94 C 68.61 39.46 65.07 42.18 62.45 45.52 C 60.57 48.80 60.91 53.52 63.72 56.21 C 67.01 59.62 71.18 62.52 76.01 63.07 C 81.08 63.65 86.31 64.35 91.37 63.36 C 94.25 59.80 92.69 54.32 93.14 49.99 C 93.04 45.89 93.47 41.68 92.27 37.71 C 91.19 36.17 89.01 36.69 87.40 36.40 Z" />
<path fill="#202020" opacity="1.00" d=" M 43.50 58.14 C 47.37 56.88 51.81 57.46 55.86 57.76 C 58.48 59.56 60.01 62.52 62.01 64.94 C 63.89 67.75 66.83 70.29 66.88 73.92 C 67.25 79.62 67.69 85.31 67.91 91.01 C 68.10 93.58 65.75 95.35 63.89 96.70 C 59.29 97.38 54.61 96.86 49.98 97.00 C 45.36 96.86 40.71 97.37 36.13 96.71 C 33.91 95.20 31.42 92.99 32.10 89.99 C 32.63 83.81 32.50 77.52 33.58 71.41 C 36.41 66.68 39.82 62.23 43.50 58.14 M 45.47 62.48 C 42.15 65.10 39.46 68.64 37.88 72.56 C 36.46 77.55 36.24 82.83 36.36 87.99 C 36.62 89.44 36.13 91.39 37.59 92.34 C 41.62 93.46 45.86 93.06 49.99 93.14 C 54.14 93.06 58.38 93.44 62.43 92.33 C 63.67 91.69 63.45 90.17 63.62 89.02 C 63.93 84.66 63.59 80.27 62.96 75.95 C 62.35 71.20 59.43 67.15 56.14 63.84 C 53.54 60.89 48.75 60.55 45.47 62.48 Z" />
</g>
<g id="#313131ff">
<path fill="#313131" opacity="1.00" d=" M 35.95 8.26 C 45.18 6.27 54.84 6.19 64.07 8.30 C 63.34 14.46 63.87 20.76 62.43 26.82 C 60.86 31.29 57.89 35.47 53.86 38.01 C 50.55 39.23 46.35 38.95 43.79 36.30 C 40.38 33.00 37.50 28.79 37.01 23.96 C 36.42 18.75 36.48 13.48 35.95 8.26 M 39.34 9.66 C 39.32 14.30 39.02 18.95 39.55 23.57 C 40.26 28.59 44.00 32.29 47.08 36.03 C 49.04 35.99 51.00 35.97 52.96 35.96 C 55.87 32.33 59.72 28.87 60.29 23.99 C 60.93 19.29 60.80 14.53 60.92 9.80 C 53.73 9.49 46.53 9.31 39.34 9.66 Z" />
<path fill="#313131" opacity="1.00" d=" M 87.40 36.40 C 89.01 36.69 91.19 36.17 92.27 37.71 C 93.47 41.68 93.04 45.89 93.14 49.99 C 92.69 54.32 94.25 59.80 91.37 63.36 C 86.31 64.35 81.08 63.65 76.01 63.07 C 71.18 62.52 67.01 59.62 63.72 56.21 C 60.91 53.52 60.57 48.80 62.45 45.52 C 65.07 42.18 68.61 39.46 72.58 37.94 C 77.38 36.58 82.44 36.40 87.40 36.40 M 74.11 40.29 C 68.73 42.15 63.41 46.48 63.60 52.70 C 67.69 55.79 71.44 60.19 76.89 60.60 C 81.25 60.97 85.86 61.65 90.08 60.15 C 91.18 53.25 90.28 46.21 90.28 39.26 C 84.89 39.45 79.38 38.94 74.11 40.29 Z" />
<path fill="#313131" opacity="1.00" d=" M 45.47 62.48 C 48.75 60.55 53.54 60.89 56.14 63.84 C 59.43 67.15 62.35 71.20 62.96 75.95 C 63.59 80.27 63.93 84.66 63.62 89.02 C 63.45 90.17 63.67 91.69 62.43 92.33 C 58.38 93.44 54.14 93.06 49.99 93.14 C 45.86 93.06 41.62 93.46 37.59 92.34 C 36.13 91.39 36.62 89.44 36.36 87.99 C 36.24 82.83 36.46 77.55 37.88 72.56 C 39.46 68.64 42.15 65.10 45.47 62.48 M 39.84 90.12 C 46.75 91.04 53.75 90.33 60.70 90.44 C 60.45 83.68 61.95 76.16 57.88 70.20 C 55.65 67.07 52.54 62.76 48.08 64.22 C 39.30 69.38 37.72 81.00 39.84 90.12 Z" />
</g>
<g id="#626262ff">
<path fill="#626262" opacity="1.00" d=" M 39.34 9.66 C 46.53 9.31 53.73 9.49 60.92 9.80 C 60.80 14.53 60.93 19.29 60.29 23.99 C 59.72 28.87 55.87 32.33 52.96 35.96 C 51.00 35.97 49.04 35.99 47.08 36.03 C 44.00 32.29 40.26 28.59 39.55 23.57 C 39.02 18.95 39.32 14.30 39.34 9.66 M 43.18 13.46 C 43.24 16.75 43.12 20.06 43.65 23.33 C 44.26 27.37 47.47 30.21 49.98 33.17 C 52.51 30.25 55.76 27.45 56.36 23.42 C 56.91 20.10 56.81 16.73 56.89 13.38 C 52.32 13.42 47.75 13.45 43.18 13.46 Z" />
<path fill="#626262" opacity="1.00" d=" M 74.11 40.29 C 79.38 38.94 84.89 39.45 90.28 39.26 C 90.28 46.21 91.18 53.25 90.08 60.15 C 85.86 61.65 81.25 60.97 76.89 60.60 C 71.44 60.19 67.69 55.79 63.60 52.70 C 63.41 46.48 68.73 42.15 74.11 40.29 M 67.90 50.05 C 71.13 57.22 79.95 57.13 86.63 56.97 C 86.58 52.40 86.55 47.83 86.53 43.27 C 79.90 43.15 71.36 43.20 67.90 50.05 Z" />
<path fill="#626262" opacity="1.00" d=" M 39.84 90.12 C 37.72 81.00 39.30 69.38 48.08 64.22 C 52.54 62.76 55.65 67.07 57.88 70.20 C 61.95 76.16 60.45 83.68 60.70 90.44 C 53.75 90.33 46.75 91.04 39.84 90.12 M 43.69 76.63 C 43.15 79.91 43.25 83.25 43.20 86.57 C 47.74 86.55 52.28 86.56 56.82 86.58 C 56.68 82.75 57.04 78.80 55.91 75.09 C 54.66 71.94 52.13 69.57 49.98 67.04 C 47.54 69.96 44.46 72.73 43.69 76.63 Z" />
</g>
<g id="#4f4f4fff">
<path fill="#4f4f4f" opacity="1.00" d=" M 43.18 13.46 C 47.75 13.45 52.32 13.42 56.89 13.38 C 56.81 16.73 56.91 20.10 56.36 23.42 C 55.76 27.45 52.51 30.25 49.98 33.17 C 47.47 30.21 44.26 27.37 43.65 23.33 C 43.12 20.06 43.24 16.75 43.18 13.46 Z" />
<path fill="#4f4f4f" opacity="1.00" d=" M 67.90 50.05 C 71.36 43.20 79.90 43.15 86.53 43.27 C 86.55 47.83 86.58 52.40 86.63 56.97 C 79.95 57.13 71.13 57.22 67.90 50.05 Z" />
<path fill="#4f4f4f" opacity="1.00" d=" M 43.69 76.63 C 44.46 72.73 47.54 69.96 49.98 67.04 C 52.13 69.57 54.66 71.94 55.91 75.09 C 57.04 78.80 56.68 82.75 56.82 86.58 C 52.28 86.56 47.74 86.55 43.20 86.57 C 43.25 83.25 43.15 79.91 43.69 76.63 Z" />
</g>
<g id="#404040ff">
<path fill="#404040" opacity="1.00" d=" M 7.40 32.44 C 14.45 32.19 21.59 32.88 28.60 33.59 C 33.49 36.53 38.13 40.10 42.31 43.99 C 42.67 48.00 42.65 52.06 42.33 56.07 C 38.36 60.19 33.50 63.54 28.71 66.66 C 22.50 67.51 16.17 67.59 9.91 68.00 C 6.79 68.50 4.06 65.75 3.15 63.04 C 2.79 54.99 3.07 46.92 3.01 38.86 C 2.73 35.98 5.11 33.74 7.40 32.44 M 9.25 36.18 C 8.50 36.90 7.75 37.62 7.00 38.34 C 7.00 46.18 7.00 54.02 7.00 61.86 C 7.73 62.59 8.46 63.33 9.19 64.06 C 15.34 63.67 21.50 63.25 27.66 62.92 C 31.26 60.16 34.87 57.40 38.50 54.68 C 38.50 51.64 38.50 48.60 38.49 45.57 C 34.85 42.84 31.25 40.07 27.62 37.32 C 21.50 36.97 15.37 36.57 9.25 36.18 Z" />
</g>
<g id="#d7d7d7ff">
<path fill="#d7d7d7" opacity="1.00" d=" M 9.25 36.18 C 15.37 36.57 21.50 36.97 27.62 37.32 C 31.25 40.07 34.85 42.84 38.49 45.57 C 38.50 48.60 38.50 51.64 38.50 54.68 C 34.87 57.40 31.26 60.16 27.66 62.92 C 21.50 63.25 15.34 63.67 9.19 64.06 C 8.46 63.33 7.73 62.59 7.00 61.86 C 7.00 54.02 7.00 46.18 7.00 38.34 C 7.75 37.62 8.50 36.90 9.25 36.18 M 9.77 39.26 C 9.39 46.47 9.35 53.70 9.75 60.92 C 15.04 60.83 20.42 61.27 25.63 60.14 C 29.87 58.71 33.00 55.29 36.47 52.64 C 36.48 46.51 31.36 42.14 25.99 40.30 C 20.70 38.92 15.17 39.46 9.77 39.26 Z" />
</g>
<g id="#ffffffff">
<path fill="#ffffff" opacity="1.00" d=" M 9.77 39.26 C 15.17 39.46 20.70 38.92 25.99 40.30 C 31.36 42.14 36.48 46.51 36.47 52.64 C 33.00 55.29 29.87 58.71 25.63 60.14 C 20.42 61.27 15.04 60.83 9.75 60.92 C 9.35 53.70 9.39 46.47 9.77 39.26 M 13.82 43.21 C 13.79 47.87 13.77 52.52 13.77 57.18 C 16.87 56.98 20.02 56.93 23.08 56.29 C 26.90 55.52 29.94 52.92 33.06 50.76 C 30.86 48.70 28.96 46.16 26.24 44.77 C 22.24 43.48 17.98 43.41 13.82 43.21 Z" />
</g>
<g id="#f5f5f5ff">
<path fill="#f5f5f5" opacity="1.00" d=" M 13.82 43.21 C 17.98 43.41 22.24 43.48 26.24 44.77 C 28.96 46.16 30.86 48.70 33.06 50.76 C 29.94 52.92 26.90 55.52 23.08 56.29 C 20.02 56.93 16.87 56.98 13.77 57.18 C 13.77 52.52 13.79 47.87 13.82 43.21 Z" />
</g>
</svg>
