<?xml version="1.0" encoding="UTF-8" ?>
<!DOCTYPE svg PUBLIC "-//W3C//DTD SVG 1.1//EN" "http://www.w3.org/Graphics/SVG/1.1/DTD/svg11.dtd">
<svg width="100pt" height="100pt" viewBox="0 0 100 100" version="1.1" xmlns="http://www.w3.org/2000/svg">
<g id="#1b1b1bff">
<path fill="#1b1b1b" opacity="1.00" d=" M 19.25 19.24 C 21.39 18.81 23.62 18.73 25.74 19.29 C 44.15 24.16 63.12 26.54 82.07 28.04 C 85.19 28.33 88.48 28.99 90.94 31.07 C 93.76 33.46 94.85 37.37 94.72 40.96 C 93.98 49.97 93.95 59.01 94.01 68.04 C 94.06 72.16 92.99 76.97 89.15 79.21 C 85.89 81.48 81.75 81.11 77.99 80.90 C 59.18 79.39 40.40 76.85 22.04 72.43 C 15.46 71.25 10.12 65.98 7.86 59.84 C 4.19 49.44 4.14 37.44 9.39 27.55 C 11.09 23.39 14.79 20.08 19.25 19.24 M 19.29 24.48 C 16.17 25.47 14.54 28.54 13.30 31.33 C 9.43 39.70 9.79 49.53 12.76 58.11 C 14.19 62.32 17.45 66.27 21.98 67.18 C 40.67 71.73 59.78 74.36 78.94 75.92 C 81.53 75.96 84.54 76.50 86.73 74.75 C 88.87 72.81 88.92 69.67 89.02 67.00 C 89.02 59.65 88.88 52.29 89.42 44.95 C 89.54 42.15 90.04 39.08 88.48 36.56 C 86.98 33.97 83.80 33.23 81.03 33.00 C 62.30 31.57 43.56 29.20 25.32 24.55 C 23.35 24.15 21.23 23.68 19.29 24.48 Z" />
</g>
<g id="#313131ff">
<path fill="#313131" opacity="1.00" d=" M 19.29 24.48 C 21.23 23.68 23.35 24.15 25.32 24.55 C 43.56 29.20 62.30 31.57 81.03 33.00 C 83.80 33.23 86.98 33.97 88.48 36.56 C 90.04 39.08 89.54 42.15 89.42 44.95 C 88.88 52.29 89.02 59.65 89.02 67.00 C 88.92 69.67 88.87 72.81 86.73 74.75 C 84.54 76.50 81.53 75.96 78.94 75.92 C 59.78 74.36 40.67 71.73 21.98 67.18 C 17.45 66.27 14.19 62.32 12.76 58.11 C 9.79 49.53 9.43 39.70 13.30 31.33 C 14.54 28.54 16.17 25.47 19.29 24.48 M 21.15 27.95 C 14.05 34.97 13.28 46.04 15.74 55.24 C 16.71 58.45 18.21 62.27 21.87 63.10 C 38.51 67.83 55.71 70.25 72.91 71.81 C 75.48 71.89 78.21 72.43 80.69 71.52 C 82.31 69.77 81.58 67.14 81.77 64.98 C 81.47 56.95 82.15 48.94 82.17 40.93 C 82.25 38.28 79.36 36.99 77.08 37.06 C 58.19 35.81 39.46 32.69 21.15 27.95 Z" />
</g>
<g id="#626262ff">
<path fill="#626262" opacity="1.00" d=" M 21.15 27.95 C 39.46 32.69 58.19 35.81 77.08 37.06 C 79.36 36.99 82.25 38.28 82.17 40.93 C 82.15 48.94 81.47 56.95 81.77 64.98 C 81.58 67.14 82.31 69.77 80.69 71.52 C 78.21 72.43 75.48 71.89 72.91 71.81 C 55.71 70.25 38.51 67.83 21.87 63.10 C 18.21 62.27 16.71 58.45 15.74 55.24 C 13.28 46.04 14.05 34.97 21.15 27.95 M 20.49 56.38 C 21.35 59.14 24.42 59.63 26.83 60.27 C 43.54 64.28 60.60 67.17 77.79 67.94 C 77.71 59.04 78.05 50.15 78.03 41.25 C 59.40 39.76 40.79 37.37 22.72 32.48 C 17.29 39.18 17.51 48.69 20.49 56.38 Z" />
</g>
<g id="#4f4f4fff">
<path fill="#4f4f4f" opacity="1.00" d=" M 20.49 56.38 C 17.51 48.69 17.29 39.18 22.72 32.48 C 40.79 37.37 59.40 39.76 78.03 41.25 C 78.05 50.15 77.71 59.04 77.79 67.94 C 60.60 67.17 43.54 64.28 26.83 60.27 C 24.42 59.63 21.35 59.14 20.49 56.38 M 24.52 37.44 C 24.47 43.25 24.48 49.06 24.50 54.87 C 28.25 55.87 31.99 56.87 35.74 57.85 C 35.75 56.61 35.77 55.37 35.78 54.14 C 33.36 53.54 30.94 52.96 28.52 52.38 C 28.49 47.68 28.54 42.98 28.46 38.28 C 27.48 38.07 25.50 37.65 24.52 37.44 M 37.79 45.40 C 38.43 46.38 39.08 47.36 39.74 48.35 C 40.90 47.62 42.07 46.89 43.23 46.16 C 43.26 50.66 43.23 55.15 43.27 59.64 C 44.51 59.96 45.75 60.29 46.99 60.61 C 47.01 54.67 47.01 48.72 47.00 42.78 C 43.55 41.32 40.58 43.70 37.79 45.40 Z" />
</g>
<g id="#8f8f8fff">
<path fill="#8f8f8f" opacity="1.00" d=" M 24.52 37.44 C 25.50 37.65 27.48 38.07 28.46 38.28 C 28.54 42.98 28.49 47.68 28.52 52.38 C 30.94 52.96 33.36 53.54 35.78 54.14 C 35.77 55.37 35.75 56.61 35.74 57.85 C 31.99 56.87 28.25 55.87 24.50 54.87 C 24.48 49.06 24.47 43.25 24.52 37.44 Z" />
<path fill="#8f8f8f" opacity="1.00" d=" M 37.79 45.40 C 40.58 43.70 43.55 41.32 47.00 42.78 C 47.01 48.72 47.01 54.67 46.99 60.61 C 45.75 60.29 44.51 59.96 43.27 59.64 C 43.23 55.15 43.26 50.66 43.23 46.16 C 42.07 46.89 40.90 47.62 39.74 48.35 C 39.08 47.36 38.43 46.38 37.79 45.40 Z" />
</g>
</svg>
