<?xml version="1.0" encoding="UTF-8" ?>
<!DOCTYPE svg PUBLIC "-//W3C//DTD SVG 1.1//EN" "http://www.w3.org/Graphics/SVG/1.1/DTD/svg11.dtd">
<svg width="100pt" height="100pt" viewBox="0 0 100 100" version="1.1" xmlns="http://www.w3.org/2000/svg">
<g id="#1b1b1bff">
<path fill="#1b1b1b" opacity="1.00" d=" M 13.14 17.35 C 31.36 15.71 49.71 15.70 67.95 16.85 C 75.84 17.97 83.82 17.22 91.74 17.58 C 93.51 17.51 94.10 19.53 93.98 20.96 C 94.07 33.97 93.93 46.99 94.04 60.00 C 94.07 62.55 93.96 65.10 93.64 67.63 C 88.79 68.35 83.89 67.79 79.03 68.05 C 77.15 67.95 75.96 69.58 74.80 70.79 C 72.07 73.50 73.67 78.10 70.88 80.85 C 65.80 87.39 57.03 88.34 49.44 89.57 C 39.01 90.66 28.27 90.91 18.07 88.11 C 15.37 87.27 12.33 86.84 10.22 84.80 C 7.57 82.29 6.48 78.58 6.37 75.02 C 5.35 57.04 6.54 38.95 9.47 21.19 C 9.60 19.12 10.90 17.31 13.14 17.35 M 20.00 21.84 C 18.13 22.16 15.83 21.91 14.44 23.44 C 13.27 27.72 13.11 32.20 12.48 36.58 C 11.30 49.21 10.27 61.95 11.42 74.62 C 11.86 77.49 12.47 81.26 15.67 82.28 C 24.06 85.49 33.17 85.28 41.99 85.07 C 49.74 84.79 58.10 84.25 64.66 79.69 C 68.76 77.21 67.22 71.51 70.26 68.27 C 72.33 65.99 74.68 63.24 78.00 63.10 C 81.63 62.86 85.26 63.03 88.89 62.90 C 89.06 49.60 89.15 36.29 88.84 22.99 C 83.44 22.49 78.02 22.91 72.63 22.42 C 55.15 20.65 37.51 20.60 20.00 21.84 Z" />
</g>
<g id="#313131ff">
<path fill="#313131" opacity="1.00" d=" M 20.00 21.84 C 37.51 20.60 55.15 20.65 72.63 22.42 C 78.02 22.91 83.44 22.49 88.84 22.99 C 89.15 36.29 89.06 49.60 88.89 62.90 C 85.26 63.03 81.63 62.86 78.00 63.10 C 74.68 63.24 72.33 65.99 70.26 68.27 C 67.22 71.51 68.76 77.21 64.66 79.69 C 58.10 84.25 49.74 84.79 41.99 85.07 C 33.17 85.28 24.06 85.49 15.67 82.28 C 12.47 81.26 11.86 77.49 11.42 74.62 C 10.27 61.95 11.30 49.21 12.48 36.58 C 13.11 32.20 13.27 27.72 14.44 23.44 C 15.83 21.91 18.13 22.16 20.00 21.84 M 16.60 25.45 C 14.01 40.83 13.31 56.48 14.06 72.04 C 14.27 74.80 14.58 78.50 17.82 79.32 C 25.44 82.11 33.76 81.74 41.74 81.53 C 47.75 81.04 54.00 81.05 59.65 78.70 C 62.52 77.36 65.83 74.94 65.46 71.37 C 65.11 63.25 65.05 55.11 65.30 46.98 C 65.55 39.70 66.54 32.43 66.08 25.14 C 49.64 23.70 32.99 23.39 16.60 25.45 Z" />
</g>
<g id="#616161ff">
<path fill="#616161" opacity="1.00" d=" M 16.60 25.45 C 32.99 23.39 49.64 23.70 66.08 25.14 C 66.54 32.43 65.55 39.70 65.30 46.98 C 65.05 55.11 65.11 63.25 65.46 71.37 C 65.83 74.94 62.52 77.36 59.65 78.70 C 54.00 81.05 47.75 81.04 41.74 81.53 C 33.76 81.74 25.44 82.11 17.82 79.32 C 14.58 78.50 14.27 74.80 14.06 72.04 C 13.31 56.48 14.01 40.83 16.60 25.45 M 20.29 29.20 C 18.50 40.37 17.62 51.68 17.86 62.99 C 18.04 66.76 17.45 70.73 18.72 74.35 C 21.45 77.58 26.21 76.99 30.01 77.25 C 38.78 77.09 47.82 77.98 56.33 75.35 C 58.33 74.58 61.19 73.57 61.06 70.96 C 61.55 59.92 60.52 48.81 61.67 37.78 C 61.96 34.92 62.01 32.05 61.90 29.18 C 48.09 27.38 34.12 27.95 20.29 29.20 Z" />
</g>
<g id="#4f4f4fff">
<path fill="#4f4f4f" opacity="1.00" d=" M 20.29 29.20 C 34.12 27.95 48.09 27.38 61.90 29.18 C 62.01 32.05 61.96 34.92 61.67 37.78 C 60.52 48.81 61.55 59.92 61.06 70.96 C 61.19 73.57 58.33 74.58 56.33 75.35 C 47.82 77.98 38.78 77.09 30.01 77.25 C 26.21 76.99 21.45 77.58 18.72 74.35 C 17.45 70.73 18.04 66.76 17.86 62.99 C 17.62 51.68 18.50 40.37 20.29 29.20 M 24.32 45.23 C 24.31 51.08 24.32 56.92 24.30 62.76 C 27.89 63.05 31.50 63.06 35.09 62.84 C 35.20 62.08 35.41 60.57 35.51 59.81 C 33.07 59.41 30.61 59.22 28.15 59.03 C 28.05 54.37 28.18 49.70 27.90 45.05 C 26.71 45.11 25.51 45.17 24.32 45.23 M 38.80 50.26 C 40.92 49.85 42.92 49.02 44.97 48.38 C 46.94 48.09 47.13 50.90 45.86 51.85 C 43.16 55.43 37.62 57.48 38.03 62.73 C 42.32 63.09 46.64 63.09 50.94 62.77 C 50.63 61.78 50.31 60.79 50.00 59.81 C 47.66 59.77 45.32 59.73 42.98 59.69 C 45.70 56.47 50.99 54.00 50.22 49.07 C 49.53 42.80 38.02 43.63 38.80 50.26 Z" />
</g>
<g id="#8f8f8fff">
<path fill="#8f8f8f" opacity="1.00" d=" M 24.32 45.23 C 25.51 45.17 26.71 45.11 27.90 45.05 C 28.18 49.70 28.05 54.37 28.15 59.03 C 30.61 59.22 33.07 59.41 35.51 59.81 C 35.41 60.57 35.20 62.08 35.09 62.84 C 31.50 63.06 27.89 63.05 24.30 62.76 C 24.32 56.92 24.31 51.08 24.32 45.23 Z" />
</g>
<g id="#8e8e8eff">
<path fill="#8e8e8e" opacity="1.00" d=" M 38.80 50.26 C 38.02 43.63 49.53 42.80 50.22 49.07 C 50.99 54.00 45.70 56.47 42.98 59.69 C 45.32 59.73 47.66 59.77 50.00 59.81 C 50.31 60.79 50.63 61.78 50.94 62.77 C 46.64 63.09 42.32 63.09 38.03 62.73 C 37.62 57.48 43.16 55.43 45.86 51.85 C 47.13 50.90 46.94 48.09 44.97 48.38 C 42.92 49.02 40.92 49.85 38.80 50.26 Z" />
</g>
</svg>
