<?xml version="1.0" encoding="UTF-8" ?>
<!DOCTYPE svg PUBLIC "-//W3C//DTD SVG 1.1//EN" "http://www.w3.org/Graphics/SVG/1.1/DTD/svg11.dtd">
<svg width="100pt" height="100pt" viewBox="0 0 100 100" version="1.1" xmlns="http://www.w3.org/2000/svg">
<g id="#151515ff">
<path fill="#151515" opacity="1.00" d=" M 41.39 6.56 C 53.05 4.77 65.73 6.41 75.40 13.58 C 84.02 20.10 91.02 29.34 93.27 40.07 C 95.89 52.54 93.56 66.37 85.62 76.54 C 78.85 84.90 69.60 91.69 58.84 93.67 C 48.73 95.18 37.86 94.45 28.89 89.13 C 19.32 83.45 11.07 74.72 7.80 63.89 C 4.39 52.67 5.01 40.01 10.58 29.59 C 16.98 18.06 28.10 8.64 41.39 6.56 M 42.38 10.47 C 28.41 12.90 16.81 23.88 11.87 36.91 C 7.80 48.83 9.50 62.81 17.05 73.02 C 22.80 80.52 30.59 86.77 39.87 89.15 C 50.64 91.71 62.60 90.25 71.79 83.80 C 76.35 80.42 80.59 76.46 83.84 71.78 C 89.87 62.85 91.53 51.39 89.31 40.94 C 87.21 31.20 80.64 23.03 72.94 17.01 C 64.27 10.52 52.90 8.78 42.38 10.47 Z" />
<path fill="#151515" opacity="1.00" d=" M 44.38 14.43 C 53.96 13.22 64.25 14.97 71.93 21.14 C 78.34 26.48 83.60 33.68 85.27 41.98 C 87.35 52.24 85.45 63.56 78.91 71.91 C 73.59 78.30 66.57 83.61 58.30 85.36 C 49.33 87.03 39.58 86.16 31.68 81.29 C 25.93 77.49 20.59 72.66 17.61 66.33 C 13.16 57.34 12.78 46.46 16.18 37.07 C 20.88 25.41 31.60 15.79 44.38 14.43 M 45.32 18.44 C 33.54 19.72 23.73 28.87 19.65 39.70 C 16.29 49.61 17.94 61.31 24.63 69.47 C 30.64 76.66 39.37 82.29 49.04 82.06 C 66.01 83.16 81.95 67.94 82.02 51.00 C 82.65 39.74 76.14 29.04 67.00 22.86 C 60.68 18.59 52.76 17.62 45.32 18.44 Z" />
</g>
<g id="#272727ff">
<path fill="#272727" opacity="1.00" d=" M 42.38 10.47 C 52.90 8.78 64.27 10.52 72.94 17.01 C 80.64 23.03 87.21 31.20 89.31 40.94 C 91.53 51.39 89.87 62.85 83.84 71.78 C 80.59 76.46 76.35 80.42 71.79 83.80 C 62.60 90.25 50.64 91.71 39.87 89.15 C 30.59 86.77 22.80 80.52 17.05 73.02 C 9.50 62.81 7.80 48.83 11.87 36.91 C 16.81 23.88 28.41 12.90 42.38 10.47 M 44.38 14.43 C 31.60 15.79 20.88 25.41 16.18 37.07 C 12.78 46.46 13.16 57.34 17.61 66.33 C 20.59 72.66 25.93 77.49 31.68 81.29 C 39.58 86.16 49.33 87.03 58.30 85.36 C 66.57 83.61 73.59 78.30 78.91 71.91 C 85.45 63.56 87.35 52.24 85.27 41.98 C 83.60 33.68 78.34 26.48 71.93 21.14 C 64.25 14.97 53.96 13.22 44.38 14.43 Z" />
</g>
<g id="#3f3f3fff">
<path fill="#3f3f3f" opacity="1.00" d=" M 45.32 18.44 C 52.76 17.62 60.68 18.59 67.00 22.86 C 76.14 29.04 82.65 39.74 82.02 51.00 C 81.95 67.94 66.01 83.16 49.04 82.06 C 39.37 82.29 30.64 76.66 24.63 69.47 C 17.94 61.31 16.29 49.61 19.65 39.70 C 23.73 28.87 33.54 19.72 45.32 18.44 M 45.33 25.48 C 33.62 27.47 24.27 39.20 25.01 51.09 C 25.22 62.10 33.79 72.01 44.36 74.57 C 50.80 75.77 57.82 75.06 63.33 71.28 C 70.62 66.87 75.21 58.50 75.03 49.98 C 75.26 41.22 70.05 32.83 62.63 28.40 C 57.50 25.18 51.20 24.71 45.33 25.48 Z" />
</g>
<g id="#555555ff">
<path fill="#555555" opacity="1.00" d=" M 45.33 25.48 C 51.20 24.71 57.50 25.18 62.63 28.40 C 70.05 32.83 75.26 41.22 75.03 49.98 C 75.21 58.50 70.62 66.87 63.33 71.28 C 57.82 75.06 50.80 75.77 44.36 74.57 C 33.79 72.01 25.22 62.10 25.01 51.09 C 24.27 39.20 33.62 27.47 45.33 25.48 M 44.33 37.12 C 44.39 45.38 44.37 53.64 44.34 61.90 C 49.49 61.92 54.65 61.91 59.80 61.91 C 59.78 60.28 59.78 58.66 59.78 57.04 C 56.41 56.99 53.04 56.92 49.67 56.96 C 49.63 50.35 49.64 43.73 49.69 37.12 C 47.90 37.14 46.12 37.14 44.33 37.12 Z" />
</g>
<g id="#8c8c8cff">
<path fill="#8c8c8c" opacity="1.00" d=" M 44.33 37.12 C 46.12 37.14 47.90 37.14 49.69 37.12 C 49.64 43.73 49.63 50.35 49.67 56.96 C 53.04 56.92 56.41 56.99 59.78 57.04 C 59.78 58.66 59.78 60.28 59.80 61.91 C 54.65 61.91 49.49 61.92 44.34 61.90 C 44.37 53.64 44.39 45.38 44.33 37.12 Z" />
</g>
</svg>
