<?xml version="1.0" encoding="UTF-8" ?>
<!DOCTYPE svg PUBLIC "-//W3C//DTD SVG 1.1//EN" "http://www.w3.org/Graphics/SVG/1.1/DTD/svg11.dtd">
<svg width="1000pt" height="1000pt" viewBox="0 0 1000 1000" version="1.1" xmlns="http://www.w3.org/2000/svg">
<g id="#ffffffff">
<path fill="#ffffff" opacity="1.00" d=" M 470.14 48.73 C 490.21 48.73 510.27 48.73 530.34 48.74 C 530.34 189.20 530.33 329.67 530.34 470.13 C 670.81 470.14 811.28 470.13 951.75 470.13 C 951.74 490.20 951.75 510.27 951.74 530.33 C 811.27 530.33 670.80 530.33 530.34 530.33 C 530.34 670.80 530.33 811.26 530.34 951.72 C 510.28 951.75 490.21 951.72 470.14 951.74 C 470.14 811.27 470.14 670.80 470.14 530.34 C 329.67 530.32 189.20 530.34 48.74 530.33 C 48.73 510.26 48.73 490.20 48.73 470.14 C 189.20 470.13 329.67 470.14 470.14 470.13 C 470.14 329.67 470.14 189.20 470.14 48.73 Z" />
</g>
</svg>
