<?xml version="1.0" encoding="UTF-8" ?>
<!DOCTYPE svg PUBLIC "-//W3C//DTD SVG 1.1//EN" "http://www.w3.org/Graphics/SVG/1.1/DTD/svg11.dtd">
<svg width="100pt" height="100pt" viewBox="0 0 100 100" version="1.1" xmlns="http://www.w3.org/2000/svg">
<g id="#1b1b1bff">
<path fill="#1b1b1b" opacity="1.00" d=" M 74.30 19.28 C 79.31 18.11 85.07 19.63 88.36 23.72 C 96.15 34.93 96.42 50.04 91.20 62.36 C 88.78 67.18 84.24 71.03 78.93 72.18 C 60.27 76.78 41.16 79.35 22.03 80.90 C 18.00 81.17 13.52 81.42 10.13 78.83 C 6.68 76.45 5.96 71.91 5.98 68.01 C 6.04 59.36 6.05 50.69 5.35 42.05 C 4.99 38.35 5.83 34.25 8.54 31.54 C 11.00 29.12 14.55 28.35 17.87 28.05 C 36.86 26.54 55.86 24.16 74.30 19.28 M 75.33 24.43 C 56.89 29.12 37.96 31.55 19.02 33.00 C 16.24 33.24 13.08 34.00 11.53 36.56 C 9.95 39.09 10.45 42.18 10.58 45.00 C 11.17 52.67 10.92 60.37 10.99 68.05 C 11.07 70.61 11.30 73.78 13.75 75.26 C 16.00 76.34 18.61 75.99 21.03 75.92 C 40.18 74.34 59.30 71.77 77.98 67.18 C 82.23 66.37 85.59 62.95 86.96 58.93 C 90.81 48.57 90.64 36.11 84.18 26.81 C 82.16 24.11 78.41 23.54 75.33 24.43 Z" />
</g>
<g id="#313131ff">
<path fill="#313131" opacity="1.00" d=" M 75.33 24.43 C 78.41 23.54 82.16 24.11 84.18 26.81 C 90.64 36.11 90.81 48.57 86.96 58.93 C 85.59 62.95 82.23 66.37 77.98 67.18 C 59.30 71.77 40.18 74.34 21.03 75.92 C 18.61 75.99 16.00 76.34 13.75 75.26 C 11.30 73.78 11.07 70.61 10.99 68.05 C 10.92 60.37 11.17 52.67 10.58 45.00 C 10.45 42.18 9.95 39.09 11.53 36.56 C 13.08 34.00 16.24 33.24 19.02 33.00 C 37.96 31.55 56.89 29.12 75.33 24.43 M 76.44 28.40 C 58.67 33.31 40.33 35.78 21.98 37.15 C 19.47 37.10 17.34 39.44 17.79 41.95 C 18.21 50.99 18.24 60.05 18.36 69.10 C 18.08 72.23 21.91 72.12 24.06 71.99 C 42.04 70.70 59.96 68.04 77.40 63.41 C 79.57 62.93 81.50 61.57 82.50 59.56 C 86.89 51.28 86.69 40.87 82.42 32.59 C 81.07 30.53 79.44 27.05 76.44 28.40 Z" />
</g>
<g id="#626262ff">
<path fill="#626262" opacity="1.00" d=" M 76.44 28.40 C 79.44 27.05 81.07 30.53 82.42 32.59 C 86.69 40.87 86.89 51.28 82.50 59.56 C 81.50 61.57 79.57 62.93 77.40 63.41 C 59.96 68.04 42.04 70.70 24.06 71.99 C 21.91 72.12 18.08 72.23 18.36 69.10 C 18.24 60.05 18.21 50.99 17.79 41.95 C 17.34 39.44 19.47 37.10 21.98 37.15 C 40.33 35.78 58.67 33.31 76.44 28.40 M 73.36 33.37 C 56.61 37.93 39.27 39.77 22.02 41.22 C 21.89 50.13 22.29 59.04 22.25 67.95 C 27.89 67.92 33.48 67.16 39.07 66.47 C 52.10 64.80 65.27 62.87 77.77 58.78 C 83.14 51.80 82.97 41.13 78.24 33.79 C 77.22 31.90 74.94 33.21 73.36 33.37 Z" />
</g>
<g id="#4f4f4fff">
<path fill="#4f4f4f" opacity="1.00" d=" M 73.36 33.37 C 74.94 33.21 77.22 31.90 78.24 33.79 C 82.97 41.13 83.14 51.80 77.77 58.78 C 65.27 62.87 52.10 64.80 39.07 66.47 C 33.48 67.16 27.89 67.92 22.25 67.95 C 22.29 59.04 21.89 50.13 22.02 41.22 C 39.27 39.77 56.61 37.93 73.36 33.37 M 65.04 44.89 C 65.52 45.37 66.49 46.35 66.97 46.84 C 68.14 45.58 69.32 44.31 70.50 43.05 C 70.51 47.42 70.51 51.79 70.46 56.15 C 71.89 55.86 74.64 56.44 74.24 54.10 C 74.32 48.65 74.24 43.20 74.21 37.75 C 69.90 38.11 67.74 42.09 65.04 44.89 M 49.04 43.35 C 48.96 49.27 49.00 55.20 49.01 61.13 C 50.33 60.78 51.66 60.45 52.99 60.11 C 52.98 57.73 52.90 55.35 53.12 52.98 C 56.31 52.37 56.71 57.10 58.32 59.06 C 59.94 58.75 61.56 58.45 63.18 58.12 C 61.82 55.99 60.42 53.87 59.00 51.76 C 61.68 49.67 64.06 45.63 61.47 42.55 C 57.63 40.44 53.06 42.79 49.04 43.35 Z" />
<path fill="#4f4f4f" opacity="1.00" d=" M 52.96 45.84 C 54.66 45.55 56.35 45.23 58.05 44.89 C 59.90 48.38 55.65 49.37 53.11 50.03 C 53.06 48.63 53.00 47.24 52.96 45.84 Z" />
</g>
<g id="#8f8f8fff">
<path fill="#8f8f8f" opacity="1.00" d=" M 65.04 44.89 C 67.74 42.09 69.90 38.11 74.21 37.75 C 74.24 43.20 74.32 48.65 74.24 54.10 C 74.64 56.44 71.89 55.86 70.46 56.15 C 70.51 51.79 70.51 47.42 70.50 43.05 C 69.32 44.31 68.14 45.58 66.97 46.84 C 66.49 46.35 65.52 45.37 65.04 44.89 Z" />
<path fill="#8f8f8f" opacity="1.00" d=" M 49.04 43.35 C 53.06 42.79 57.63 40.44 61.47 42.55 C 64.06 45.63 61.68 49.67 59.00 51.76 C 60.42 53.87 61.82 55.99 63.18 58.12 C 61.56 58.45 59.94 58.75 58.32 59.06 C 56.71 57.10 56.31 52.37 53.12 52.98 C 52.90 55.35 52.98 57.73 52.99 60.11 C 51.66 60.45 50.33 60.78 49.01 61.13 C 49.00 55.20 48.96 49.27 49.04 43.35 M 52.96 45.84 C 53.00 47.24 53.06 48.63 53.11 50.03 C 55.65 49.37 59.90 48.38 58.05 44.89 C 56.35 45.23 54.66 45.55 52.96 45.84 Z" />
</g>
</svg>
