<?xml version="1.0" encoding="UTF-8" ?>
<!DOCTYPE svg PUBLIC "-//W3C//DTD SVG 1.1//EN" "http://www.w3.org/Graphics/SVG/1.1/DTD/svg11.dtd">
<svg width="100pt" height="100pt" viewBox="0 0 100 100" version="1.1" xmlns="http://www.w3.org/2000/svg">
<g id="#1b1b1bff">
<path fill="#1b1b1b" opacity="1.00" d=" M 29.95 17.08 C 48.59 15.44 67.38 15.60 86.01 17.23 C 87.40 17.35 88.72 17.87 90.05 18.27 C 93.35 37.33 94.79 56.77 93.55 76.09 C 93.27 80.19 91.32 84.62 87.41 86.43 C 75.20 90.96 61.86 90.98 49.09 89.36 C 41.53 88.24 33.00 86.36 28.41 79.62 C 26.85 77.72 26.98 75.20 26.91 72.90 C 25.36 71.27 24.10 69.18 22.10 68.11 C 17.17 67.61 12.17 68.48 7.26 67.74 C 5.70 67.13 6.10 65.35 5.99 64.03 C 6.05 49.66 5.93 35.28 6.04 20.91 C 5.85 19.17 7.11 17.58 8.92 17.61 C 15.92 17.18 22.97 17.97 29.95 17.08 M 26.56 22.43 C 21.40 22.73 16.23 22.38 11.07 22.74 C 10.95 36.13 10.98 49.53 11.04 62.93 C 15.04 63.08 19.04 62.84 23.03 63.09 C 25.37 63.10 26.67 65.38 28.25 66.76 C 29.56 68.35 31.59 69.69 31.77 71.91 C 32.29 74.05 31.84 76.69 33.63 78.32 C 38.30 83.32 45.56 83.88 51.93 84.74 C 62.73 85.42 74.01 86.20 84.33 82.30 C 88.03 80.91 88.50 76.42 88.74 73.01 C 89.54 56.11 88.44 39.10 85.50 22.43 C 65.94 20.20 46.14 20.62 26.56 22.43 Z" />
</g>
<g id="#313131ff">
<path fill="#313131" opacity="1.00" d=" M 26.56 22.43 C 46.14 20.62 65.94 20.20 85.50 22.43 C 88.44 39.10 89.54 56.11 88.74 73.01 C 88.50 76.42 88.03 80.91 84.33 82.30 C 74.01 86.20 62.73 85.42 51.93 84.74 C 45.56 83.88 38.30 83.32 33.63 78.32 C 31.84 76.69 32.29 74.05 31.77 71.91 C 31.59 69.69 29.56 68.35 28.25 66.76 C 26.67 65.38 25.37 63.10 23.03 63.09 C 19.04 62.84 15.04 63.08 11.04 62.93 C 10.98 49.53 10.95 36.13 11.07 22.74 C 16.23 22.38 21.40 22.73 26.56 22.43 M 36.43 24.60 C 34.68 24.54 33.27 25.90 33.60 27.68 C 34.80 41.08 35.43 54.58 34.68 68.03 C 34.64 69.97 34.38 71.96 34.84 73.88 C 36.87 77.49 40.98 79.35 44.88 80.13 C 53.51 81.61 62.30 81.66 71.03 81.43 C 75.54 81.12 80.22 80.50 84.24 78.29 C 85.45 76.46 85.78 74.24 85.93 72.09 C 86.74 58.04 86.05 43.90 84.07 29.97 C 83.70 28.21 83.68 26.09 82.15 24.87 C 76.52 23.77 70.72 24.44 65.01 24.27 C 55.49 24.44 45.93 23.88 36.43 24.60 Z" />
</g>
<g id="#626262ff">
<path fill="#626262" opacity="1.00" d=" M 36.43 24.60 C 45.93 23.88 55.49 24.44 65.01 24.27 C 70.72 24.44 76.52 23.77 82.15 24.87 C 83.68 26.09 83.70 28.21 84.07 29.97 C 86.05 43.90 86.74 58.04 85.93 72.09 C 85.78 74.24 85.45 76.46 84.24 78.29 C 80.22 80.50 75.54 81.12 71.03 81.43 C 62.30 81.66 53.51 81.61 44.88 80.13 C 40.98 79.35 36.87 77.49 34.84 73.88 C 34.38 71.96 34.64 69.97 34.68 68.03 C 35.43 54.58 34.80 41.08 33.60 27.68 C 33.27 25.90 34.68 24.54 36.43 24.60 M 38.14 28.30 C 37.84 37.87 39.33 47.41 39.01 57.00 C 39.23 62.09 38.27 67.20 38.78 72.26 C 41.57 76.00 46.73 76.36 51.00 76.92 C 61.13 77.72 71.73 78.77 81.53 75.41 C 83.01 59.99 82.22 44.36 79.83 29.06 C 65.99 27.67 52.03 28.19 38.14 28.30 Z" />
</g>
<g id="#4f4f4fff">
<path fill="#4f4f4f" opacity="1.00" d=" M 38.14 28.30 C 52.03 28.19 65.99 27.67 79.83 29.06 C 82.22 44.36 83.01 59.99 81.53 75.41 C 71.73 78.77 61.13 77.72 51.00 76.92 C 46.73 76.36 41.57 76.00 38.78 72.26 C 38.27 67.20 39.23 62.09 39.01 57.00 C 39.33 47.41 37.84 37.87 38.14 28.30 M 49.35 45.18 C 49.46 51.09 49.42 56.99 49.39 62.90 C 50.65 62.90 51.90 62.90 53.16 62.91 C 53.17 60.41 53.17 57.91 53.18 55.41 C 56.75 56.08 57.17 60.36 58.94 62.93 C 60.42 62.93 61.90 62.93 63.39 62.93 C 61.97 60.51 60.53 58.10 59.06 55.72 C 62.57 54.24 64.16 49.49 61.32 46.62 C 57.87 44.20 53.30 45.38 49.35 45.18 M 65.01 50.02 C 65.81 50.15 67.42 50.42 68.22 50.55 C 68.96 49.69 69.70 48.83 70.43 47.97 C 71.81 48.21 74.37 49.04 73.23 50.94 C 70.99 54.08 67.67 56.24 64.99 58.98 C 64.97 60.28 64.96 61.59 64.94 62.89 C 69.02 62.92 73.10 62.92 77.19 62.89 C 77.19 62.10 77.20 60.51 77.20 59.72 C 74.44 59.71 71.68 59.72 68.92 59.75 C 72.33 56.68 78.44 53.76 76.71 48.17 C 74.70 42.74 65.45 44.21 65.01 50.02 Z" />
<path fill="#4f4f4f" opacity="1.00" d=" M 53.19 48.12 C 54.62 48.25 56.05 48.31 57.45 48.59 C 59.19 48.86 59.32 51.35 58.00 52.24 C 56.38 52.51 54.73 52.51 53.09 52.58 C 53.12 51.09 53.16 49.60 53.19 48.12 Z" />
</g>
<g id="#8f8f8fff">
<path fill="#8f8f8f" opacity="1.00" d=" M 49.35 45.18 C 53.30 45.38 57.87 44.20 61.32 46.62 C 64.16 49.49 62.57 54.24 59.06 55.72 C 60.53 58.10 61.97 60.51 63.39 62.93 C 61.90 62.93 60.42 62.93 58.94 62.93 C 57.17 60.36 56.75 56.08 53.18 55.41 C 53.17 57.91 53.17 60.41 53.16 62.91 C 51.90 62.90 50.65 62.90 49.39 62.90 C 49.42 56.99 49.46 51.09 49.35 45.18 M 53.19 48.12 C 53.16 49.60 53.12 51.09 53.09 52.58 C 54.73 52.51 56.38 52.51 58.00 52.24 C 59.32 51.35 59.19 48.86 57.45 48.59 C 56.05 48.31 54.62 48.25 53.19 48.12 Z" />
<path fill="#8f8f8f" opacity="1.00" d=" M 65.01 50.02 C 65.45 44.21 74.70 42.74 76.71 48.17 C 78.44 53.76 72.33 56.68 68.92 59.75 C 71.68 59.72 74.44 59.71 77.20 59.72 C 77.20 60.51 77.19 62.10 77.19 62.89 C 73.10 62.92 69.02 62.92 64.94 62.89 C 64.96 61.59 64.97 60.28 64.99 58.98 C 67.67 56.24 70.99 54.08 73.23 50.94 C 74.37 49.04 71.81 48.21 70.43 47.97 C 69.70 48.83 68.96 49.69 68.22 50.55 C 67.42 50.42 65.81 50.15 65.01 50.02 Z" />
</g>
</svg>
