<?xml version="1.0" encoding="UTF-8" ?>
<!DOCTYPE svg PUBLIC "-//W3C//DTD SVG 1.1//EN" "http://www.w3.org/Graphics/SVG/1.1/DTD/svg11.dtd">
<svg width="100pt" height="100pt" viewBox="0 0 100 100" version="1.1" xmlns="http://www.w3.org/2000/svg">
<g id="#151515ff">
<path fill="#151515" opacity="1.00" d=" M 41.46 6.55 C 52.85 4.83 65.21 6.33 74.79 13.15 C 83.97 19.81 91.30 29.61 93.45 40.91 C 95.56 52.25 93.75 64.60 87.24 74.27 C 80.92 83.20 71.76 90.51 61.01 93.19 C 49.82 95.57 37.46 94.62 27.61 88.40 C 19.79 83.33 12.83 76.38 9.19 67.67 C 4.68 56.72 4.44 43.92 8.99 32.95 C 14.83 19.76 26.94 8.85 41.46 6.55 M 42.37 10.51 C 28.14 12.93 16.41 24.31 11.63 37.64 C 7.81 49.61 9.73 63.56 17.49 73.59 C 23.37 81.01 31.29 87.17 40.64 89.36 C 51.19 91.60 62.82 90.15 71.75 83.81 C 77.68 79.47 83.08 74.07 86.34 67.41 C 91.73 56.22 91.69 42.34 85.65 31.41 C 81.94 25.05 76.80 19.39 70.57 15.43 C 62.26 10.14 51.95 9.03 42.37 10.51 Z" />
<path fill="#151515" opacity="1.00" d=" M 44.34 14.46 C 53.67 13.30 63.71 14.85 71.33 20.68 C 78.26 26.15 83.79 33.87 85.40 42.67 C 87.20 52.73 85.34 63.75 78.91 71.89 C 73.48 78.46 66.17 83.93 57.63 85.47 C 49.36 86.81 40.43 86.26 33.01 82.04 C 25.56 77.71 19.04 71.18 16.14 62.93 C 12.10 51.51 13.45 37.83 21.22 28.26 C 26.67 20.80 35.10 15.51 44.34 14.46 M 45.32 18.44 C 33.55 19.72 23.76 28.84 19.67 39.64 C 16.30 49.55 17.92 61.28 24.62 69.45 C 30.61 76.65 39.35 82.26 49.00 82.07 C 66.37 83.20 82.59 67.29 82.03 49.94 C 82.29 39.31 76.13 29.41 67.71 23.32 C 61.27 18.73 53.04 17.55 45.32 18.44 Z" />
</g>
<g id="#272727ff">
<path fill="#272727" opacity="1.00" d=" M 42.37 10.51 C 51.95 9.03 62.26 10.14 70.57 15.43 C 76.80 19.39 81.94 25.05 85.65 31.41 C 91.69 42.34 91.73 56.22 86.34 67.41 C 83.08 74.07 77.68 79.47 71.75 83.81 C 62.82 90.15 51.19 91.60 40.64 89.36 C 31.29 87.17 23.37 81.01 17.49 73.59 C 9.73 63.56 7.81 49.61 11.63 37.64 C 16.41 24.31 28.14 12.93 42.37 10.51 M 44.34 14.46 C 35.10 15.51 26.67 20.80 21.22 28.26 C 13.45 37.83 12.10 51.51 16.14 62.93 C 19.04 71.18 25.56 77.71 33.01 82.04 C 40.43 86.26 49.36 86.81 57.63 85.47 C 66.17 83.93 73.48 78.46 78.91 71.89 C 85.34 63.75 87.20 52.73 85.40 42.67 C 83.79 33.87 78.26 26.15 71.33 20.68 C 63.71 14.85 53.67 13.30 44.34 14.46 Z" />
</g>
<g id="#3f3f3fff">
<path fill="#3f3f3f" opacity="1.00" d=" M 45.32 18.44 C 53.04 17.55 61.27 18.73 67.71 23.32 C 76.13 29.41 82.29 39.31 82.03 49.94 C 82.59 67.29 66.37 83.20 49.00 82.07 C 39.35 82.26 30.61 76.65 24.62 69.45 C 17.92 61.28 16.30 49.55 19.67 39.64 C 23.76 28.84 33.55 19.72 45.32 18.44 M 45.44 25.49 C 38.27 26.47 32.35 31.49 28.54 37.40 C 22.93 46.12 24.08 58.40 30.91 66.13 C 38.29 75.43 52.59 77.96 62.68 71.71 C 69.98 67.50 74.87 59.47 75.00 51.00 C 75.63 41.89 70.32 33.04 62.64 28.39 C 57.53 25.25 51.27 24.71 45.44 25.49 Z" />
</g>
<g id="#555555ff">
<path fill="#555555" opacity="1.00" d=" M 45.44 25.49 C 51.27 24.71 57.53 25.25 62.64 28.39 C 70.32 33.04 75.63 41.89 75.00 51.00 C 74.87 59.47 69.98 67.50 62.68 71.71 C 52.59 77.96 38.29 75.43 30.91 66.13 C 24.08 58.40 22.93 46.12 28.54 37.40 C 32.35 31.49 38.27 26.47 45.44 25.49 M 42.09 37.11 C 42.12 45.39 42.11 53.67 42.10 61.94 C 43.86 61.94 45.63 61.92 47.40 61.89 C 47.42 58.56 47.39 55.23 47.41 51.90 C 48.09 51.90 49.44 51.89 50.12 51.89 C 51.90 55.19 53.63 58.52 55.31 61.87 C 57.46 61.90 59.61 61.92 61.76 61.94 C 59.72 58.50 57.66 55.07 55.51 51.70 C 61.37 50.22 62.88 41.39 57.54 38.39 C 52.73 36.21 47.21 37.42 42.09 37.11 Z" />
<path fill="#555555" opacity="1.00" d=" M 47.40 41.41 C 50.19 41.44 52.98 41.82 55.60 42.85 C 55.17 44.26 55.45 46.23 53.88 47.00 C 51.75 47.50 49.55 47.47 47.38 47.62 C 47.38 45.55 47.38 43.48 47.40 41.41 Z" />
</g>
<g id="#8c8c8cff">
<path fill="#8c8c8c" opacity="1.00" d=" M 42.09 37.11 C 47.21 37.42 52.73 36.21 57.54 38.39 C 62.88 41.39 61.37 50.22 55.51 51.70 C 57.66 55.07 59.72 58.50 61.76 61.94 C 59.61 61.92 57.46 61.90 55.31 61.87 C 53.63 58.52 51.90 55.19 50.12 51.89 C 49.44 51.89 48.09 51.90 47.41 51.90 C 47.39 55.23 47.42 58.56 47.40 61.89 C 45.63 61.92 43.86 61.94 42.10 61.94 C 42.11 53.67 42.12 45.39 42.09 37.11 M 47.40 41.41 C 47.38 43.48 47.38 45.55 47.38 47.62 C 49.55 47.47 51.75 47.50 53.88 47.00 C 55.45 46.23 55.17 44.26 55.60 42.85 C 52.98 41.82 50.19 41.44 47.40 41.41 Z" />
</g>
</svg>
