<?xml version="1.0" encoding="UTF-8" ?>
<!DOCTYPE svg PUBLIC "-//W3C//DTD SVG 1.1//EN" "http://www.w3.org/Graphics/SVG/1.1/DTD/svg11.dtd">
<svg width="100pt" height="100pt" viewBox="0 0 100 100" version="1.1" xmlns="http://www.w3.org/2000/svg">
<g id="#1b1b1bff">
<path fill="#1b1b1b" opacity="1.00" d=" M 11.17 19.07 C 12.92 17.97 15.09 18.30 17.06 18.22 C 41.05 18.46 65.06 17.90 89.04 18.50 C 89.47 19.96 89.87 21.46 89.78 23.00 C 89.68 33.36 89.82 43.73 89.72 54.09 C 90.04 55.71 88.52 56.88 87.01 56.73 C 62.66 56.79 38.30 56.71 13.95 56.77 C 12.25 56.99 9.88 56.25 10.28 54.10 C 10.18 44.07 10.32 34.03 10.22 24.00 C 10.34 22.35 9.93 20.40 11.17 19.07 M 15.33 23.32 C 15.21 32.77 15.21 42.23 15.33 51.68 C 38.44 51.77 61.56 51.76 84.67 51.69 C 84.79 42.23 84.79 32.77 84.67 23.31 C 61.56 23.24 38.44 23.23 15.33 23.32 Z" />
</g>
<g id="#313131ff">
<path fill="#313131" opacity="1.00" d=" M 15.33 23.32 C 38.44 23.23 61.56 23.24 84.67 23.31 C 84.79 32.77 84.79 42.23 84.67 51.69 C 61.56 51.76 38.44 51.77 15.33 51.68 C 15.21 42.23 15.21 32.77 15.33 23.32 M 19.38 27.41 C 18.67 33.60 19.01 39.86 19.08 46.08 C 18.95 48.21 21.57 48.00 23.00 48.02 C 41.34 47.96 59.68 48.04 78.01 47.99 C 79.30 48.18 81.06 47.52 80.93 45.96 C 81.16 39.92 80.93 33.87 80.98 27.82 C 79.38 27.28 77.72 26.89 76.01 26.97 C 61.68 27.04 47.34 26.98 33.00 27.00 C 28.46 27.04 23.89 26.74 19.38 27.41 Z" />
</g>
<g id="#626262ff">
<path fill="#626262" opacity="1.00" d=" M 19.38 27.41 C 23.89 26.74 28.46 27.04 33.00 27.00 C 47.34 26.98 61.68 27.04 76.01 26.97 C 77.72 26.89 79.38 27.28 80.98 27.82 C 80.93 33.87 81.16 39.92 80.93 45.96 C 81.06 47.52 79.30 48.18 78.01 47.99 C 59.68 48.04 41.34 47.96 23.00 48.02 C 21.57 48.00 18.95 48.21 19.08 46.08 C 19.01 39.86 18.67 33.60 19.38 27.41 M 23.07 31.07 C 22.91 35.36 22.91 39.64 23.07 43.93 C 41.02 44.05 58.98 44.06 76.92 43.93 C 77.10 39.65 77.10 35.37 76.94 31.09 C 58.99 30.93 41.03 30.95 23.07 31.07 Z" />
</g>
<g id="#4f4f4fff">
<path fill="#4f4f4f" opacity="1.00" d=" M 23.07 31.07 C 41.03 30.95 58.99 30.93 76.94 31.09 C 77.10 35.37 77.10 39.65 76.92 43.93 C 58.98 44.06 41.02 44.05 23.07 43.93 C 22.91 39.64 22.91 35.36 23.07 31.07 Z" />
</g>
<g id="#191919fe">
<path fill="#191919" opacity="1.00" d=" M 7.31 67.30 C 10.30 64.74 14.58 65.65 17.84 67.15 C 16.94 68.07 16.05 68.99 15.16 69.90 C 13.14 69.38 10.28 68.36 9.18 70.91 C 10.70 74.58 17.54 73.11 17.51 78.07 C 18.11 84.67 8.76 86.21 4.92 82.16 C 5.75 81.21 6.58 80.27 7.40 79.32 C 9.15 80.68 11.97 81.73 13.66 79.69 C 14.34 76.68 10.16 76.71 8.35 75.57 C 4.76 74.55 4.63 69.37 7.31 67.30 Z" />
<path fill="#191919" opacity="1.00" d=" M 20.68 66.12 C 24.64 66.12 28.61 66.13 32.58 66.10 C 32.62 67.31 32.66 68.51 32.72 69.72 C 29.93 69.64 27.15 69.55 24.37 69.50 C 24.40 70.41 24.46 72.24 24.49 73.15 C 27.04 73.13 29.59 73.12 32.14 73.12 C 32.16 73.99 32.18 75.73 32.20 76.61 C 29.60 76.63 27.00 76.60 24.41 76.51 C 24.40 77.51 24.39 79.52 24.39 80.53 C 27.28 80.42 30.16 80.38 33.05 80.42 C 33.05 81.58 33.05 82.74 33.04 83.90 C 28.92 83.91 24.80 83.90 20.68 83.90 C 20.70 77.97 20.71 72.05 20.68 66.12 Z" />
<path fill="#191919" opacity="1.00" d=" M 36.33 66.09 C 37.60 66.11 38.87 66.12 40.14 66.14 C 40.13 70.91 40.14 75.68 40.12 80.46 C 42.57 80.43 45.01 80.41 47.46 80.38 C 47.43 81.26 47.36 83.03 47.33 83.91 C 43.67 83.90 40.00 83.90 36.34 83.91 C 36.39 77.97 36.40 72.03 36.33 66.09 Z" />
<path fill="#191919" opacity="1.00" d=" M 50.05 66.10 C 54.01 66.14 57.98 66.14 61.95 66.09 C 61.92 67.27 61.90 68.46 61.89 69.65 C 59.16 69.61 56.44 69.59 53.71 69.58 C 53.73 70.47 53.78 72.23 53.81 73.12 C 56.36 73.12 58.91 73.13 61.46 73.12 C 61.50 74.30 61.54 75.49 61.59 76.68 C 58.97 76.62 56.36 76.59 53.75 76.58 C 53.75 77.55 53.74 79.48 53.74 80.44 C 56.65 80.44 59.56 80.41 62.47 80.38 C 62.44 81.26 62.37 83.03 62.34 83.91 C 58.24 83.89 54.14 83.90 50.05 83.93 C 50.08 77.98 50.07 72.04 50.05 66.10 Z" />
<path fill="#191919" opacity="1.00" d=" M 67.83 67.84 C 71.27 64.83 76.76 64.97 80.16 67.99 C 79.25 68.81 78.35 69.63 77.44 70.46 C 75.68 69.43 73.53 68.64 71.57 69.63 C 67.41 71.80 67.65 78.98 72.13 80.63 C 74.17 81.44 76.06 80.21 77.66 79.08 C 78.69 79.93 79.72 80.78 80.76 81.64 C 77.59 84.48 72.74 85.37 69.02 83.05 C 63.74 80.05 63.21 71.65 67.83 67.84 Z" />
<path fill="#191919" opacity="1.00" d=" M 81.30 66.10 C 85.93 66.14 90.55 66.12 95.18 66.12 C 95.20 66.96 95.24 68.65 95.26 69.49 C 93.55 69.46 91.83 69.44 90.12 69.42 C 90.15 74.24 90.13 79.07 90.15 83.89 C 88.88 83.90 87.61 83.91 86.35 83.92 C 86.42 79.07 86.30 74.21 86.47 69.36 C 84.74 69.44 83.02 69.50 81.29 69.57 C 81.29 68.41 81.30 67.26 81.30 66.10 Z" />
</g>
</svg>
