<?xml version="1.0" encoding="UTF-8" ?>
<!DOCTYPE svg PUBLIC "-//W3C//DTD SVG 1.1//EN" "http://www.w3.org/Graphics/SVG/1.1/DTD/svg11.dtd">
<svg width="360pt" height="24pt" viewBox="0 0 360 24" version="1.1" xmlns="http://www.w3.org/2000/svg">
<g id="#87878787">
<path fill="#878787" opacity="0.53" d=" M 10.91 0.00 L 13.09 0.00 C 13.08 2.63 13.15 5.35 11.99 7.79 C 10.87 5.33 10.91 2.63 10.91 0.00 Z" />
<path fill="#878787" opacity="0.53" d=" M 41.02 0.00 L 42.91 0.00 C 43.08 2.30 43.03 4.61 42.93 6.91 C 42.42 6.72 41.40 6.35 40.89 6.16 C 40.92 4.10 40.97 2.05 41.02 0.00 Z" />
<path fill="#878787" opacity="0.53" d=" M 70.76 0.00 L 73.22 0.00 C 73.15 2.68 73.30 5.49 71.80 7.86 C 70.90 5.34 70.84 2.65 70.76 0.00 Z" />
<path fill="#878787" opacity="0.53" d=" M 100.93 0.00 L 103.05 0.00 C 103.04 2.49 103.04 4.98 102.84 7.46 C 99.89 6.07 101.25 2.55 100.93 0.00 Z" />
<path fill="#878787" opacity="0.53" d=" M 130.81 0.00 L 133.15 0.00 C 133.11 2.53 133.04 5.05 132.82 7.57 C 130.09 5.96 131.05 2.62 130.81 0.00 Z" />
<path fill="#878787" opacity="0.53" d=" M 191.30 0.00 L 192.66 0.00 C 192.63 2.52 192.55 5.06 192.01 7.53 C 191.45 5.06 191.36 2.52 191.30 0.00 Z" />
<path fill="#878787" opacity="0.53" d=" M 221.36 0.00 L 222.59 0.00 C 222.57 2.51 222.50 5.02 222.06 7.49 C 221.46 5.04 221.39 2.51 221.36 0.00 Z" />
<path fill="#878787" opacity="0.53" d=" M 251.25 0.00 L 252.58 0.00 C 252.85 2.54 252.78 5.13 251.88 7.55 C 251.39 5.07 251.30 2.53 251.25 0.00 Z" />
<path fill="#878787" opacity="0.53" d=" M 281.22 0.00 L 282.73 0.00 C 282.72 2.50 282.65 5.00 282.37 7.49 C 280.95 5.24 281.28 2.53 281.22 0.00 Z" />
<path fill="#878787" opacity="0.53" d=" M 311.17 0.00 L 312.79 0.00 C 312.94 2.29 312.93 4.58 312.88 6.87 C 312.38 6.66 311.37 6.26 310.86 6.05 C 310.96 4.04 311.06 2.02 311.17 0.00 Z" />
<path fill="#878787" opacity="0.53" d=" M 341.06 0.00 L 342.73 0.00 C 343.30 2.60 343.18 5.29 341.84 7.64 C 341.05 5.17 340.98 2.57 341.06 0.00 Z" />
<path fill="#878787" opacity="0.53" d=" M 5.18 2.15 C 5.59 1.89 6.42 1.37 6.83 1.11 C 7.95 2.91 9.02 4.74 10.06 6.59 C 8.87 7.70 7.74 8.89 6.70 10.15 C 4.72 9.14 2.80 7.99 0.93 6.79 C 1.25 6.38 1.90 5.56 2.22 5.14 C 3.46 5.86 4.69 6.58 5.90 7.32 C 6.44 6.91 6.96 6.50 7.49 6.07 C 6.70 4.78 5.93 3.47 5.18 2.15 Z" />
<path fill="#878787" opacity="0.53" d=" M 17.30 1.30 C 18.24 1.43 18.77 2.41 18.17 3.24 C 17.21 4.92 16.39 7.95 13.82 7.21 C 14.84 5.16 15.86 3.09 17.30 1.30 Z" />
<path fill="#878787" opacity="0.53" d=" M 35.14 1.44 C 35.71 1.47 36.84 1.52 37.40 1.54 C 38.31 3.23 39.22 4.93 40.09 6.64 C 38.89 7.73 37.75 8.90 36.71 10.15 C 34.71 9.17 32.79 8.05 30.94 6.82 C 31.26 6.37 31.90 5.46 32.21 5.01 C 33.48 5.79 34.74 6.57 35.99 7.38 C 36.44 6.94 36.88 6.50 37.32 6.05 C 36.38 4.62 35.65 3.07 35.14 1.44 Z" />
<path fill="#878787" opacity="0.53" d=" M 43.95 6.79 C 44.95 4.79 45.71 2.46 47.64 1.13 C 50.06 2.30 47.15 4.43 46.65 5.91 C 47.08 6.45 47.52 6.98 47.96 7.51 C 49.38 6.65 50.86 5.87 52.39 5.22 C 52.38 5.73 52.37 6.74 52.36 7.25 C 50.71 8.12 49.06 9.00 47.40 9.86 C 46.28 8.80 45.14 7.78 43.95 6.79 Z" />
<path fill="#878787" opacity="0.53" d=" M 65.03 2.23 C 65.46 1.91 66.34 1.26 66.77 0.93 C 68.05 2.77 69.17 4.70 70.14 6.72 C 68.89 7.77 67.72 8.91 66.64 10.13 C 64.92 9.26 63.23 8.36 61.54 7.44 C 61.51 6.86 61.45 5.69 61.42 5.11 C 63.04 5.62 64.59 6.35 66.02 7.27 C 66.49 6.87 66.95 6.46 67.40 6.04 C 66.59 4.78 65.81 3.51 65.03 2.23 Z" />
<path fill="#878787" opacity="0.53" d=" M 76.68 1.57 C 77.22 1.56 78.28 1.55 78.81 1.54 C 78.26 3.11 77.51 4.61 76.62 6.02 C 77.08 6.49 77.56 6.96 78.04 7.42 C 79.29 6.63 80.55 5.85 81.81 5.08 C 82.09 5.53 82.65 6.42 82.93 6.86 C 81.11 8.03 79.23 9.11 77.29 10.05 C 76.25 8.88 75.16 7.75 74.04 6.67 C 74.90 4.96 75.79 3.27 76.68 1.57 Z" />
<path fill="#878787" opacity="0.53" d=" M 95.14 2.23 C 95.52 1.90 96.29 1.25 96.67 0.92 C 98.07 2.81 99.28 4.84 100.28 6.98 C 99.81 7.18 98.87 7.59 98.40 7.79 C 97.23 5.99 96.15 4.13 95.14 2.23 Z" />
<path fill="#878787" opacity="0.53" d=" M 107.22 0.96 C 107.64 1.27 108.46 1.90 108.87 2.21 C 108.15 3.45 107.43 4.68 106.68 5.89 C 107.09 6.43 107.50 6.96 107.92 7.49 C 109.22 6.70 110.54 5.94 111.86 5.20 C 112.12 5.59 112.63 6.38 112.88 6.78 C 111.10 7.94 109.28 9.03 107.43 10.06 C 106.30 8.87 105.11 7.74 103.84 6.69 C 104.86 4.72 106.00 2.81 107.22 0.96 Z" />
<path fill="#878787" opacity="0.53" d=" M 137.18 0.92 C 137.63 1.25 138.54 1.91 138.99 2.24 C 138.20 3.50 137.42 4.75 136.61 6.00 C 137.05 6.44 137.50 6.88 137.95 7.32 C 139.38 6.41 140.92 5.66 142.53 5.12 C 142.51 5.69 142.48 6.83 142.47 7.40 C 140.77 8.31 139.07 9.21 137.36 10.09 C 136.27 8.89 135.10 7.75 133.85 6.71 C 134.83 4.71 135.95 2.78 137.18 0.92 Z" />
<path fill="#878787" opacity="0.53" d=" M 166.52 1.57 C 167.11 1.52 168.29 1.44 168.88 1.39 C 168.38 3.03 167.66 4.59 166.72 6.03 C 167.13 6.49 167.55 6.95 167.97 7.40 C 169.22 6.59 170.49 5.80 171.76 5.02 C 172.09 5.46 172.75 6.36 173.09 6.81 C 171.23 8.04 169.30 9.16 167.30 10.15 C 166.24 8.89 165.09 7.72 163.87 6.63 C 164.74 4.94 165.63 3.25 166.52 1.57 Z" />
<path fill="#878787" opacity="0.53" d=" M 215.31 1.55 C 215.76 1.61 216.66 1.74 217.11 1.81 C 217.97 3.38 219.09 4.86 219.54 6.62 C 218.62 7.75 217.62 10.06 215.80 9.30 C 214.05 8.54 211.19 7.60 211.72 5.15 C 213.11 5.95 214.47 6.79 215.84 7.63 C 216.42 7.05 217.01 6.45 217.58 5.85 C 216.79 4.43 216.04 3.00 215.31 1.55 Z" />
<path fill="#878787" opacity="0.53" d=" M 227.23 1.42 C 227.56 1.58 228.22 1.89 228.55 2.05 C 227.47 4.05 226.56 6.49 224.15 7.19 C 225.10 5.22 226.17 3.32 227.23 1.42 Z" />
<path fill="#878787" opacity="0.53" d=" M 247.61 5.95 C 246.94 4.39 244.58 2.58 246.56 1.04 C 247.77 2.88 248.83 4.83 249.73 6.85 C 248.71 7.83 247.73 8.84 246.77 9.87 C 245.05 9.03 243.35 8.15 241.65 7.26 C 241.63 6.76 241.60 5.74 241.59 5.24 C 243.09 5.82 244.51 6.57 245.87 7.43 C 246.46 6.95 247.03 6.45 247.61 5.95 Z" />
<path fill="#878787" opacity="0.53" d=" M 275.85 3.25 C 275.23 2.44 275.78 1.49 276.65 1.25 C 278.13 3.06 279.17 5.15 280.20 7.23 C 277.63 7.90 276.80 4.98 275.85 3.25 Z" />
<path fill="#878787" opacity="0.53" d=" M 284.69 5.79 C 285.58 4.15 286.34 1.18 288.79 1.73 C 288.01 3.11 287.20 4.47 286.38 5.83 C 286.95 6.43 287.53 7.02 288.12 7.60 C 289.50 6.97 290.90 6.41 292.33 5.90 C 291.17 7.87 287.63 10.89 285.71 8.29 C 285.04 7.68 284.00 6.78 284.69 5.79 Z" />
<path fill="#878787" opacity="0.53" d=" M 305.28 1.58 C 305.77 1.60 306.76 1.64 307.25 1.65 C 308.18 3.70 310.36 5.81 309.05 8.17 C 307.41 6.22 306.08 4.01 305.28 1.58 Z" />
<path fill="#878787" opacity="0.53" d=" M 317.16 1.38 C 317.55 1.57 318.32 1.94 318.70 2.13 C 317.92 3.36 317.13 4.59 316.35 5.83 C 316.94 6.42 317.55 7.01 318.16 7.60 C 319.54 6.82 320.94 6.06 322.34 5.31 C 322.31 5.77 322.25 6.69 322.22 7.14 C 320.58 7.93 319.05 9.24 317.22 9.44 C 316.11 8.83 314.78 7.80 314.51 6.49 C 315.02 4.63 316.21 3.05 317.16 1.38 Z" />
<path fill="#878787" opacity="0.53" d=" M 335.10 2.18 C 335.52 1.90 336.38 1.33 336.81 1.05 C 338.02 2.86 339.11 4.76 340.04 6.74 C 338.87 7.76 337.74 8.84 336.67 9.96 C 334.96 9.10 333.26 8.21 331.58 7.32 C 331.56 6.79 331.54 5.73 331.53 5.20 C 333.11 5.74 334.60 6.49 336.02 7.38 C 336.49 6.92 336.95 6.44 337.42 5.97 C 336.62 4.71 335.86 3.45 335.10 2.18 Z" />
<path fill="#878787" opacity="0.53" d=" M 346.73 1.66 C 347.24 1.64 348.26 1.60 348.77 1.59 C 348.18 3.09 347.42 4.51 346.57 5.87 C 347.06 6.47 347.57 7.07 348.09 7.66 C 349.46 6.81 350.85 5.97 352.25 5.17 C 352.87 7.85 349.46 8.77 347.56 9.48 C 346.13 9.14 345.25 7.65 344.09 6.83 C 344.95 5.09 345.84 3.37 346.73 1.66 Z" />
<path fill="#878787" opacity="0.53" d=" M 185.99 1.43 C 187.55 3.08 191.06 6.19 188.28 8.28 C 186.39 11.21 183.51 7.66 181.40 6.82 C 181.59 6.47 181.96 5.76 182.15 5.41 C 183.38 6.14 184.60 6.88 185.82 7.63 C 186.41 7.06 187.00 6.48 187.58 5.89 C 186.89 4.46 186.36 2.97 185.99 1.43 Z" />
<path fill="#878787" opacity="0.53" d=" M 16.75 10.20 C 16.15 7.10 19.98 6.61 21.93 5.29 C 22.13 5.68 22.54 6.47 22.75 6.86 C 20.79 8.04 18.80 9.19 16.75 10.20 Z" />
<path fill="#878787" opacity="0.53" d=" M 122.02 5.47 C 123.50 6.27 124.99 7.06 126.49 7.84 C 126.58 8.36 126.76 9.38 126.85 9.89 C 125.06 8.80 123.25 7.75 121.42 6.73 C 121.57 6.41 121.87 5.79 122.02 5.47 Z" />
<path fill="#878787" opacity="0.53" d=" M 196.20 8.37 C 198.02 7.23 199.88 6.15 201.78 5.13 C 202.10 5.52 202.75 6.29 203.08 6.68 C 201.18 8.06 199.17 9.26 197.07 10.30 C 196.85 9.82 196.42 8.86 196.20 8.37 Z" />
<path fill="#878787" opacity="0.53" d=" M 270.99 6.31 C 271.40 6.08 272.22 5.63 272.63 5.40 C 274.33 6.78 277.92 7.29 277.21 10.18 C 274.98 9.17 272.86 7.90 270.99 6.31 Z" />
<path fill="#878787" opacity="0.53" d=" M 301.89 4.99 C 303.72 6.39 307.77 6.96 307.45 9.77 C 305.11 9.89 303.12 8.30 301.42 6.88 C 301.54 6.41 301.78 5.47 301.89 4.99 Z" />
<path fill="#878787" opacity="0.53" d=" M 0.00 10.95 C 2.49 10.96 4.98 10.96 7.46 11.15 C 6.06 14.07 2.55 12.77 0.00 13.06 L 0.00 10.95 Z" />
<path fill="#878787" opacity="0.53" d=" M 16.95 11.50 C 19.22 11.29 21.51 11.25 23.80 11.23 C 23.81 11.61 23.82 12.37 23.83 12.75 C 21.56 12.48 18.57 13.62 16.95 11.50 Z" />
<path fill="#878787" opacity="0.53" d=" M 29.45 10.98 C 32.06 10.85 34.69 10.86 37.29 11.16 C 36.22 14.08 32.71 13.12 30.29 12.98 C 30.08 12.48 29.66 11.48 29.45 10.98 Z" />
<path fill="#878787" opacity="0.53" d=" M 47.20 12.77 C 47.38 12.30 47.76 11.35 47.95 10.88 C 49.77 11.39 54.42 9.75 53.80 12.81 C 51.62 13.28 49.39 13.00 47.20 12.77 Z" />
<path fill="#878787" opacity="0.53" d=" M 76.76 11.50 C 79.20 10.92 81.71 10.91 84.20 11.13 C 83.40 14.27 78.46 13.66 76.76 11.50 Z" />
<path fill="#878787" opacity="0.53" d=" M 90.27 11.33 C 92.53 11.36 94.79 11.39 97.05 11.56 C 95.32 13.46 92.44 12.36 90.19 12.65 C 90.21 12.32 90.25 11.66 90.27 11.33 Z" />
<path fill="#878787" opacity="0.53" d=" M 106.77 11.29 C 109.16 10.93 111.57 10.96 113.98 10.97 C 113.98 11.48 113.98 12.50 113.98 13.01 C 111.55 12.69 108.02 14.17 106.77 11.29 Z" />
<path fill="#878787" opacity="0.53" d=" M 119.81 11.50 C 122.25 11.37 124.70 11.41 127.14 11.64 C 125.06 12.96 121.57 13.50 119.81 11.50 Z" />
<path fill="#878787" opacity="0.53" d=" M 137.07 12.82 C 137.28 12.33 137.71 11.35 137.92 10.87 C 140.02 10.92 142.12 10.97 144.21 11.09 C 143.75 14.56 139.41 12.73 137.07 12.82 Z" />
<path fill="#878787" opacity="0.53" d=" M 150.30 12.62 C 149.50 10.79 151.89 11.43 152.93 11.21 C 154.48 10.98 156.04 11.35 157.15 12.48 C 154.88 12.70 152.58 12.85 150.30 12.62 Z" />
<path fill="#878787" opacity="0.53" d=" M 166.72 11.20 C 169.33 10.84 171.97 10.85 174.59 11.04 C 173.81 14.29 167.98 14.05 166.72 11.20 Z" />
<path fill="#878787" opacity="0.53" d=" M 180.18 11.24 C 182.33 11.24 184.49 11.19 186.63 11.49 C 186.15 13.97 182.09 12.24 180.17 12.75 C 180.18 12.38 180.18 11.62 180.18 11.24 Z" />
<path fill="#878787" opacity="0.53" d=" M 196.75 11.19 C 199.16 10.91 201.58 10.97 204.00 10.98 C 204.00 11.49 204.00 12.50 204.00 13.01 C 201.55 12.61 197.75 14.35 196.75 11.19 Z" />
<path fill="#878787" opacity="0.53" d=" M 209.76 11.16 C 212.24 10.90 214.74 10.93 217.18 11.45 C 215.60 13.74 210.65 14.19 209.76 11.16 Z" />
<path fill="#878787" opacity="0.53" d=" M 226.63 12.77 C 227.87 9.99 231.28 10.86 233.71 11.01 C 233.92 11.52 234.34 12.52 234.55 13.02 C 231.91 13.17 229.25 13.16 226.63 12.77 Z" />
<path fill="#878787" opacity="0.53" d=" M 240.26 12.85 C 239.30 10.35 242.60 11.04 244.07 10.87 C 245.43 10.64 246.34 11.69 247.21 12.52 C 244.93 12.91 242.56 13.41 240.26 12.85 Z" />
<path fill="#878787" opacity="0.53" d=" M 270.03 10.97 C 272.32 10.97 274.62 10.96 276.91 11.15 C 276.73 11.63 276.39 12.58 276.21 13.06 C 274.14 13.03 272.07 13.01 270.01 13.00 C 270.02 12.49 270.03 11.48 270.03 10.97 Z" />
<path fill="#878787" opacity="0.53" d=" M 287.18 12.52 C 287.36 12.22 287.73 11.62 287.92 11.32 C 289.89 11.35 291.86 11.37 293.83 11.40 C 293.81 11.72 293.75 12.35 293.73 12.67 C 291.54 12.63 289.36 12.59 287.18 12.52 Z" />
<path fill="#878787" opacity="0.53" d=" M 299.72 12.86 C 300.35 9.47 304.55 11.28 306.92 11.14 C 306.70 11.65 306.27 12.65 306.06 13.16 C 303.94 13.09 301.82 13.02 299.72 12.86 Z" />
<path fill="#878787" opacity="0.53" d=" M 316.89 12.40 C 318.91 11.01 322.44 10.50 324.19 12.49 C 321.75 12.62 319.31 12.60 316.89 12.40 Z" />
<path fill="#878787" opacity="0.53" d=" M 329.41 12.98 C 330.01 9.91 333.71 10.94 335.97 11.04 C 336.28 11.49 336.91 12.40 337.22 12.85 C 334.62 13.13 332.01 13.15 329.41 12.98 Z" />
<path fill="#878787" opacity="0.53" d=" M 346.85 11.56 C 349.27 11.29 351.72 11.26 354.16 11.34 C 352.83 13.81 348.75 13.15 346.85 11.56 Z" />
<path fill="#878787" opacity="0.53" d=" M 0.82 17.72 C 2.56 15.94 4.75 14.74 7.00 13.71 C 7.19 14.20 7.58 15.17 7.77 15.65 C 6.05 16.72 4.30 17.75 2.55 18.78 C 2.12 18.51 1.25 17.98 0.82 17.72 Z" />
<path fill="#878787" opacity="0.53" d=" M 14.29 17.11 C 15.34 16.19 16.26 15.09 17.47 14.37 C 19.26 15.12 20.91 16.18 22.58 17.17 C 22.41 17.53 22.06 18.25 21.89 18.61 C 20.65 17.87 19.41 17.12 18.17 16.37 C 17.58 16.95 16.99 17.53 16.42 18.11 C 17.05 19.52 17.60 20.96 18.08 22.42 C 16.22 21.14 15.23 19.08 14.29 17.11 Z" />
<path fill="#878787" opacity="0.53" d=" M 45.98 14.63 C 48.49 14.30 50.53 15.92 52.56 17.12 C 52.41 17.51 52.11 18.29 51.96 18.67 C 49.82 17.56 47.77 16.26 45.98 14.63 Z" />
<path fill="#878787" opacity="0.53" d=" M 61.26 18.64 C 62.05 16.02 64.98 15.33 67.11 14.14 C 66.43 16.88 63.58 17.74 61.26 18.64 Z" />
<path fill="#878787" opacity="0.53" d=" M 74.24 17.07 C 75.32 16.14 76.29 15.06 77.48 14.28 C 79.18 14.95 80.76 15.88 82.36 16.75 C 82.37 17.26 82.39 18.27 82.39 18.77 C 80.90 18.18 79.49 17.42 78.13 16.57 C 77.54 17.05 76.96 17.55 76.39 18.06 C 77.08 19.61 79.44 21.44 77.39 22.94 C 76.19 21.07 75.15 19.10 74.24 17.07 Z" />
<path fill="#878787" opacity="0.53" d=" M 91.63 18.10 C 92.84 16.17 94.93 15.23 96.91 14.28 C 97.82 15.34 98.90 16.28 99.63 17.48 C 98.61 19.25 97.94 22.87 95.23 22.23 C 96.00 20.86 96.80 19.51 97.62 18.17 C 97.05 17.58 96.47 16.99 95.88 16.41 C 94.49 17.04 93.07 17.60 91.63 18.10 Z" />
<path fill="#878787" opacity="0.53" d=" M 106.81 13.81 C 109.08 14.88 111.26 16.18 113.17 17.83 C 110.69 19.06 106.25 16.74 106.81 13.81 Z" />
<path fill="#878787" opacity="0.53" d=" M 121.76 16.88 C 123.72 15.82 125.69 14.09 128.08 14.85 C 126.11 16.38 123.93 17.60 121.68 18.65 C 121.70 18.21 121.74 17.32 121.76 16.88 Z" />
<path fill="#878787" opacity="0.53" d=" M 136.45 14.30 C 139.10 13.94 141.09 16.18 143.19 17.42 C 141.15 19.89 138.30 16.94 136.54 15.52 C 136.52 15.22 136.47 14.60 136.45 14.30 Z" />
<path fill="#878787" opacity="0.53" d=" M 155.12 14.96 C 157.15 13.54 158.50 16.22 159.92 17.23 C 159.04 18.94 158.15 20.64 157.26 22.34 C 156.75 22.36 155.74 22.39 155.23 22.41 C 155.83 20.91 156.57 19.49 157.44 18.13 C 156.92 17.51 156.40 16.90 155.87 16.30 C 154.67 17.13 153.47 17.95 152.27 18.78 C 150.41 16.87 153.77 15.71 155.12 14.96 Z" />
<path fill="#878787" opacity="0.53" d=" M 163.96 17.25 C 165.13 16.23 166.25 15.16 167.32 14.04 C 169.03 14.90 170.73 15.79 172.43 16.68 C 172.44 17.21 172.46 18.27 172.47 18.80 C 170.89 18.25 169.39 17.50 167.98 16.62 C 167.51 17.08 167.04 17.56 166.58 18.04 C 167.37 19.29 168.14 20.55 168.91 21.82 C 168.47 22.10 167.60 22.66 167.17 22.94 C 165.96 21.12 164.88 19.23 163.96 17.25 Z" />
<path fill="#878787" opacity="0.53" d=" M 181.22 17.18 C 183.17 15.99 185.15 14.83 187.20 13.79 C 187.93 16.86 184.05 17.36 182.16 18.69 C 181.92 18.31 181.45 17.56 181.22 17.18 Z" />
<path fill="#878787" opacity="0.53" d=" M 193.94 17.41 C 195.14 16.29 196.27 15.10 197.32 13.85 C 199.45 14.86 201.49 16.09 203.17 17.77 C 202.73 18.02 201.86 18.51 201.42 18.76 C 200.32 18.07 199.22 17.37 198.13 16.66 C 197.60 17.06 197.07 17.47 196.55 17.89 C 197.92 19.48 198.44 21.26 198.11 23.23 C 196.24 21.67 195.02 19.55 193.94 17.41 Z" />
<path fill="#878787" opacity="0.53" d=" M 211.66 16.74 C 213.70 15.81 215.82 13.63 218.16 14.97 C 216.19 16.58 214.01 17.94 211.57 18.72 C 211.59 18.23 211.64 17.24 211.66 16.74 Z" />
<path fill="#878787" opacity="0.53" d=" M 226.17 15.62 C 226.39 15.13 226.82 14.17 227.04 13.68 C 228.88 15.09 234.17 15.94 232.02 19.09 C 230.05 17.97 228.09 16.83 226.17 15.62 Z" />
<path fill="#878787" opacity="0.53" d=" M 241.08 17.18 C 243.09 16.02 244.97 14.04 247.46 14.25 C 247.77 16.98 243.92 17.51 242.16 18.87 C 241.89 18.45 241.35 17.60 241.08 17.18 Z" />
<path fill="#878787" opacity="0.53" d=" M 257.16 13.67 C 258.88 14.64 260.62 15.58 262.39 16.49 C 262.45 17.09 262.57 18.28 262.63 18.88 C 260.98 18.39 259.41 17.68 257.98 16.73 C 257.51 17.13 257.05 17.54 256.59 17.96 C 257.40 19.22 258.19 20.49 258.98 21.76 C 258.54 22.09 257.67 22.74 257.23 23.06 C 255.95 21.19 254.62 19.31 253.90 17.14 C 254.32 16.95 255.15 16.56 255.56 16.37 C 256.09 15.47 256.62 14.57 257.16 13.67 Z" />
<path fill="#878787" opacity="0.53" d=" M 271.23 18.10 C 271.94 15.78 274.75 15.19 276.59 13.95 C 277.70 15.13 278.87 16.24 280.13 17.27 C 278.85 19.07 277.96 23.98 274.99 22.06 C 275.75 20.73 276.51 19.41 277.32 18.11 C 276.92 17.58 276.51 17.06 276.10 16.54 C 274.59 17.97 272.97 18.49 271.23 18.10 Z" />
<path fill="#878787" opacity="0.53" d=" M 301.54 16.61 C 303.31 15.64 305.10 14.68 306.91 13.75 C 307.15 14.22 307.63 15.16 307.87 15.63 C 305.88 16.98 303.78 18.19 301.45 18.84 C 301.47 18.28 301.51 17.17 301.54 16.61 Z" />
<path fill="#878787" opacity="0.53" d=" M 316.85 14.16 C 318.68 15.08 320.49 16.05 322.34 16.95 C 322.25 17.52 322.17 18.09 322.10 18.67 C 320.11 17.48 317.50 16.66 316.85 14.16 Z" />
<path fill="#878787" opacity="0.53" d=" M 330.94 17.23 C 333.03 16.22 336.32 12.26 338.07 15.45 C 336.15 16.68 334.18 17.83 332.20 18.95 C 331.88 18.52 331.26 17.66 330.94 17.23 Z" />
<path fill="#878787" opacity="0.53" d=" M 44.86 15.91 C 46.38 17.90 47.60 20.09 48.65 22.35 C 48.21 22.32 47.33 22.26 46.89 22.22 C 45.82 20.27 44.08 18.30 44.86 15.91 Z" />
<path fill="#878787" opacity="0.53" d=" M 125.55 22.33 C 126.04 19.73 127.71 17.47 129.87 16.00 C 129.02 18.15 128.52 22.52 125.55 22.33 Z" />
<path fill="#878787" opacity="0.53" d=" M 134.08 17.25 C 134.44 16.99 135.17 16.47 135.54 16.22 C 136.83 18.27 138.08 20.38 138.64 22.78 C 135.87 22.23 135.25 19.35 134.08 17.25 Z" />
<path fill="#878787" opacity="0.53" d=" M 217.21 18.03 C 217.82 17.14 219.25 15.31 219.89 17.16 C 219.40 19.44 217.85 21.27 216.61 23.18 C 214.49 21.72 216.19 19.61 217.21 18.03 Z" />
<path fill="#878787" opacity="0.53" d=" M 225.47 16.34 C 227.26 17.97 228.10 20.30 228.85 22.53 C 228.29 22.52 227.17 22.49 226.62 22.47 C 225.61 20.63 224.62 18.78 223.66 16.92 C 224.11 16.77 225.02 16.49 225.47 16.34 Z" />
<path fill="#878787" opacity="0.53" d=" M 248.47 16.18 C 248.87 16.41 249.66 16.89 250.06 17.12 C 248.86 19.31 248.25 22.30 245.38 22.88 C 245.65 20.35 247.05 18.21 248.47 16.18 Z" />
<path fill="#878787" opacity="0.53" d=" M 283.70 17.04 C 284.18 16.83 285.15 16.42 285.63 16.21 C 286.77 18.03 287.85 19.88 288.87 21.76 C 288.47 22.10 287.68 22.77 287.28 23.10 C 285.93 21.17 284.73 19.15 283.70 17.04 Z" />
<path fill="#878787" opacity="0.53" d=" M 308.48 16.33 C 309.90 16.16 310.39 17.52 309.54 18.58 C 308.58 20.30 307.41 23.97 304.92 22.06 C 306.01 20.10 306.98 18.03 308.48 16.33 Z" />
<path fill="#878787" opacity="0.53" d=" M 338.34 16.07 C 338.82 16.34 339.79 16.87 340.27 17.13 C 339.34 18.93 338.38 20.71 337.42 22.49 C 336.84 22.50 335.70 22.54 335.13 22.56 C 335.81 20.22 337.00 18.09 338.34 16.07 Z" />
<path fill="#878787" opacity="0.53" d=" M 11.34 24.00 C 11.37 21.47 11.45 18.93 11.98 16.45 C 12.55 18.93 12.64 21.47 12.70 24.00 L 11.34 24.00 Z" />
<path fill="#878787" opacity="0.53" d=" M 35.44 21.98 C 36.54 20.00 37.38 17.45 39.87 16.87 C 38.89 18.80 37.82 20.68 36.77 22.56 C 36.44 22.42 35.77 22.13 35.44 21.98 Z" />
<path fill="#878787" opacity="0.53" d=" M 41.41 24.00 C 41.43 21.49 41.51 18.97 41.94 16.49 C 42.53 18.95 42.61 21.48 42.64 24.00 L 41.41 24.00 Z" />
<path fill="#878787" opacity="0.53" d=" M 71.42 24.00 C 71.15 21.46 71.23 18.86 72.11 16.44 C 72.60 18.93 72.70 21.47 72.75 24.00 L 71.42 24.00 Z" />
<path fill="#878787" opacity="0.53" d=" M 101.23 24.00 C 101.23 21.45 101.32 18.88 102.01 16.42 C 102.66 18.89 102.75 21.46 102.81 24.00 L 101.23 24.00 Z" />
<path fill="#878787" opacity="0.53" d=" M 103.80 16.86 C 106.87 15.99 107.35 19.99 108.69 21.84 C 108.32 22.07 107.58 22.55 107.20 22.79 C 106.00 20.85 104.85 18.89 103.80 16.86 Z" />
<path fill="#878787" opacity="0.53" d=" M 131.22 24.00 C 130.83 21.43 130.98 18.82 131.86 16.36 C 133.17 18.71 133.07 21.41 132.93 24.00 L 131.22 24.00 Z" />
<path fill="#878787" opacity="0.53" d=" M 161.27 24.00 C 160.71 21.40 160.82 18.71 162.15 16.36 C 162.95 18.83 163.02 21.43 162.94 24.00 L 161.27 24.00 Z" />
<path fill="#878787" opacity="0.53" d=" M 188.20 17.00 C 188.69 16.95 189.68 16.85 190.18 16.80 C 189.15 18.85 188.12 20.93 186.71 22.74 C 184.04 21.50 187.23 18.47 188.20 17.00 Z" />
<path fill="#878787" opacity="0.53" d=" M 190.91 24.00 C 190.92 21.37 190.85 18.66 192.01 16.21 C 193.12 18.67 193.09 21.37 193.10 24.00 L 190.91 24.00 Z" />
<path fill="#878787" opacity="0.53" d=" M 221.03 17.04 C 221.56 17.26 222.62 17.71 223.15 17.94 C 223.09 19.96 223.03 21.98 222.96 24.00 L 221.09 24.00 C 220.93 21.68 220.96 19.36 221.03 17.04 Z" />
<path fill="#878787" opacity="0.53" d=" M 250.80 24.00 C 250.98 21.39 250.21 18.17 252.75 16.44 C 253.03 18.95 253.12 21.48 253.20 24.00 L 250.80 24.00 Z" />
<path fill="#878787" opacity="0.53" d=" M 280.93 24.00 C 281.22 21.44 279.93 17.95 282.82 16.49 C 283.04 18.99 283.04 21.50 283.06 24.00 L 280.93 24.00 Z" />
<path fill="#878787" opacity="0.53" d=" M 310.95 17.06 C 311.50 17.23 312.61 17.58 313.16 17.75 C 313.13 19.83 313.10 21.92 313.07 24.00 L 310.89 24.00 C 310.91 21.69 310.93 19.37 310.95 17.06 Z" />
</g>
</svg>
