<?xml version="1.0" encoding="UTF-8" ?>
<!DOCTYPE svg PUBLIC "-//W3C//DTD SVG 1.1//EN" "http://www.w3.org/Graphics/SVG/1.1/DTD/svg11.dtd">
<svg width="82pt" height="82pt" viewBox="0 0 82 82" version="1.1" xmlns="http://www.w3.org/2000/svg">
<g id="#232323ff">
<path fill="#232323" opacity="1.00" d=" M 31.48 1.59 C 42.62 -0.62 54.92 0.86 64.21 7.80 C 71.79 13.61 78.04 21.66 80.35 31.05 C 82.93 41.81 81.34 53.80 75.03 63.02 C 69.95 70.32 62.96 76.57 54.44 79.47 C 48.59 81.74 42.22 81.74 36.05 81.39 C 21.94 80.01 9.44 70.10 3.71 57.31 C -0.86 46.36 -0.71 33.32 4.75 22.71 C 10.21 12.39 19.91 4.06 31.48 1.59 M 35.21 8.06 C 19.46 10.12 7.03 25.21 7.60 40.98 C 6.86 59.06 23.78 75.83 41.92 74.38 C 50.72 74.78 59.16 70.36 65.03 64.01 C 71.49 57.92 74.83 48.87 74.39 40.05 C 74.50 29.35 68.38 19.33 59.81 13.23 C 52.70 8.37 43.66 6.68 35.21 8.06 Z" />
</g>
<g id="#505050ff">
<path fill="#505050" opacity="1.00" d=" M 35.21 8.06 C 43.66 6.68 52.70 8.37 59.81 13.23 C 68.38 19.33 74.50 29.35 74.39 40.05 C 74.83 48.87 71.49 57.92 65.03 64.01 C 59.16 70.36 50.72 74.78 41.92 74.38 C 23.78 75.83 6.86 59.06 7.60 40.98 C 7.03 25.21 19.46 10.12 35.21 8.06 M 24.23 24.37 C 23.20 26.40 23.56 28.76 23.48 30.96 C 23.66 39.62 23.28 48.31 23.64 56.97 C 24.01 57.31 24.74 58.01 25.11 58.35 C 35.36 58.66 45.64 58.46 55.90 58.45 C 57.92 58.72 58.78 56.58 58.51 54.93 C 58.51 46.29 58.45 37.66 58.52 29.02 C 58.38 27.44 58.78 25.65 57.86 24.25 C 56.39 23.39 54.61 23.59 52.98 23.48 C 45.33 23.51 37.68 23.54 30.02 23.47 C 28.07 23.51 26.00 23.37 24.23 24.37 Z" />
<path fill="#505050" opacity="1.00" d=" M 28.50 28.50 C 36.83 28.49 45.17 28.49 53.50 28.50 C 53.51 36.83 53.51 45.17 53.50 53.50 C 45.17 53.51 36.83 53.51 28.50 53.50 C 28.49 45.17 28.48 36.83 28.50 28.50 Z" />
</g>
<g id="#d08ed2ff">
<path fill="#d08ed2" opacity="1.00" d=" M 24.23 24.37 C 26.00 23.37 28.07 23.51 30.02 23.47 C 37.68 23.54 45.33 23.51 52.98 23.48 C 54.61 23.59 56.39 23.39 57.86 24.25 C 58.78 25.65 58.38 27.44 58.52 29.02 C 58.45 37.66 58.51 46.29 58.51 54.93 C 58.78 56.58 57.92 58.72 55.90 58.45 C 45.64 58.46 35.36 58.66 25.11 58.35 C 24.74 58.01 24.01 57.31 23.64 56.97 C 23.28 48.31 23.66 39.62 23.48 30.96 C 23.56 28.76 23.20 26.40 24.23 24.37 M 28.50 28.50 C 28.48 36.83 28.49 45.17 28.50 53.50 C 36.83 53.51 45.17 53.51 53.50 53.50 C 53.51 45.17 53.51 36.83 53.50 28.50 C 45.17 28.49 36.83 28.49 28.50 28.50 Z" />
</g>
</svg>
