<?xml version="1.0" encoding="UTF-8" ?>
<!DOCTYPE svg PUBLIC "-//W3C//DTD SVG 1.1//EN" "http://www.w3.org/Graphics/SVG/1.1/DTD/svg11.dtd">
<svg width="100pt" height="100pt" viewBox="0 0 100 100" version="1.1" xmlns="http://www.w3.org/2000/svg">
<g id="#1b1b1bff">
<path fill="#1b1b1b" opacity="1.00" d=" M 14.27 11.42 C 15.90 11.08 17.55 11.50 19.15 11.82 C 40.42 16.83 61.72 21.71 83.00 26.65 C 84.35 27.23 86.79 27.05 86.79 29.05 C 87.22 33.01 87.09 37.03 86.90 41.01 C 86.93 42.69 84.94 43.07 83.70 43.44 C 63.81 48.03 43.92 52.63 24.04 57.27 C 21.04 57.92 18.07 58.91 14.98 58.98 C 13.18 58.68 12.95 56.58 13.00 55.11 C 12.98 42.06 13.02 29.02 12.98 15.97 C 13.11 14.42 12.79 12.44 14.27 11.42 M 18.06 16.93 C 17.96 29.04 17.94 41.16 18.07 53.27 C 39.39 48.62 60.60 43.43 81.89 38.62 C 81.96 36.38 82.01 34.13 82.08 31.89 C 60.83 26.55 39.41 21.84 18.06 16.93 Z" />
</g>
<g id="#313131ff">
<path fill="#313131" opacity="1.00" d=" M 18.06 16.93 C 39.41 21.84 60.83 26.55 82.08 31.89 C 82.01 34.13 81.96 36.38 81.89 38.62 C 60.60 43.43 39.39 48.62 18.07 53.27 C 17.94 41.16 17.96 29.04 18.06 16.93 M 21.16 23.02 C 20.79 31.70 20.95 40.42 21.19 49.11 C 23.50 48.97 25.82 48.91 28.08 48.37 C 39.21 45.60 50.40 43.09 61.55 40.44 C 67.02 39.10 72.61 38.19 77.86 36.09 C 76.97 34.63 76.03 32.98 74.14 32.77 C 58.12 29.05 42.07 25.43 26.05 21.70 C 24.40 21.44 21.33 20.47 21.16 23.02 Z" />
</g>
<g id="#626262ff">
<path fill="#626262" opacity="1.00" d=" M 21.16 23.02 C 21.33 20.47 24.40 21.44 26.05 21.70 C 42.07 25.43 58.12 29.05 74.14 32.77 C 76.03 32.98 76.97 34.63 77.86 36.09 C 72.61 38.19 67.02 39.10 61.55 40.44 C 50.40 43.09 39.21 45.60 28.08 48.37 C 25.82 48.91 23.50 48.97 21.19 49.11 C 20.95 40.42 20.79 31.70 21.16 23.02 M 25.08 25.85 C 24.92 32.14 24.93 38.44 25.06 44.74 C 38.25 41.66 51.50 38.81 64.58 35.31 C 58.72 32.98 52.44 32.11 46.35 30.60 C 39.26 28.99 32.22 27.18 25.08 25.85 Z" />
</g>
<g id="#4f4f4fff">
<path fill="#4f4f4f" opacity="1.00" d=" M 25.08 25.85 C 32.22 27.18 39.26 28.99 46.35 30.60 C 52.44 32.11 58.72 32.98 64.58 35.31 C 51.50 38.81 38.25 41.66 25.06 44.74 C 24.93 38.44 24.92 32.14 25.08 25.85 Z" />
</g>
<g id="#191919fe">
<path fill="#191919" opacity="1.00" d=" M 15.53 74.42 C 13.19 71.78 14.87 67.27 18.08 66.23 C 21.00 64.96 24.07 66.16 26.89 67.06 C 26.01 67.97 25.14 68.88 24.26 69.80 C 21.89 69.20 19.37 69.00 17.52 70.95 C 19.82 73.07 23.02 73.64 25.49 75.45 C 27.99 78.45 25.83 83.58 21.99 84.09 C 19.13 84.99 16.32 83.76 13.83 82.43 C 14.65 81.43 15.47 80.42 16.28 79.40 C 17.93 80.16 19.77 81.38 21.64 80.55 C 22.47 79.91 22.56 78.76 23.03 77.89 C 20.53 76.76 17.74 76.10 15.53 74.42 Z" />
<path fill="#191919" opacity="1.00" d=" M 27.97 66.12 C 32.61 66.12 37.24 66.14 41.88 66.09 C 41.87 66.94 41.84 68.66 41.82 69.52 C 40.13 69.49 38.43 69.46 36.73 69.42 C 36.80 74.26 36.75 79.09 36.81 83.92 C 35.55 83.92 34.30 83.92 33.05 83.92 C 33.08 79.10 33.06 74.28 33.07 69.46 C 31.37 69.46 29.66 69.46 27.96 69.46 C 27.96 68.62 27.97 66.96 27.97 66.12 Z" />
<path fill="#191919" opacity="1.00" d=" M 47.64 66.15 C 48.69 66.13 49.75 66.10 50.80 66.08 C 53.36 72.03 55.87 77.99 58.48 83.92 C 57.04 83.91 55.59 83.91 54.15 83.92 C 53.68 82.66 53.22 81.40 52.76 80.14 C 50.40 80.13 48.05 80.15 45.69 80.14 C 45.17 81.41 44.66 82.69 44.18 83.99 C 42.81 83.95 41.44 83.91 40.07 83.87 C 42.65 77.99 45.15 72.07 47.64 66.15 M 46.86 76.94 C 48.39 76.92 49.91 76.91 51.44 76.90 C 50.66 74.93 49.89 72.96 49.13 70.98 C 48.39 72.97 47.62 74.96 46.86 76.94 Z" />
<path fill="#191919" opacity="1.00" d=" M 60.38 66.10 C 64.34 66.41 68.95 65.19 72.39 67.68 C 75.12 70.54 73.58 75.29 70.05 76.69 C 71.51 79.11 73.00 81.52 74.45 83.94 C 72.92 83.92 71.38 83.91 69.85 83.89 C 68.28 81.13 67.54 77.45 64.30 76.13 C 64.18 78.72 64.17 81.31 64.17 83.90 C 62.91 83.90 61.65 83.91 60.39 83.92 C 60.43 77.98 60.44 72.04 60.38 66.10 M 64.17 69.05 C 64.17 70.63 64.18 72.20 64.19 73.78 C 65.99 73.46 68.01 73.70 69.63 72.71 C 71.20 69.21 66.35 69.22 64.17 69.05 Z" />
<path fill="#191919" opacity="1.00" d=" M 74.67 66.11 C 79.28 66.13 83.89 66.13 88.49 66.10 C 88.53 66.98 88.59 68.74 88.63 69.62 C 86.87 69.51 85.12 69.41 83.37 69.30 C 83.51 74.17 83.43 79.04 83.48 83.92 C 82.53 83.91 80.63 83.90 79.68 83.90 C 79.71 79.05 79.67 74.19 79.74 69.34 C 78.01 69.42 76.27 69.49 74.53 69.56 C 74.57 68.70 74.64 66.97 74.67 66.11 Z" />
</g>
</svg>
