<?xml version="1.0" encoding="UTF-8" ?>
<!DOCTYPE svg PUBLIC "-//W3C//DTD SVG 1.1//EN" "http://www.w3.org/Graphics/SVG/1.1/DTD/svg11.dtd">
<svg width="82pt" height="82pt" viewBox="0 0 82 82" version="1.1" xmlns="http://www.w3.org/2000/svg">
<g id="#1b1b1bff">
<path fill="#1b1b1b" opacity="1.00" d=" M 31.40 1.60 C 42.34 -0.56 54.42 0.74 63.65 7.40 C 72.12 13.62 78.94 22.74 80.83 33.24 C 82.48 42.46 81.25 52.38 76.56 60.57 C 70.44 70.98 60.08 79.30 47.95 81.16 C 40.88 81.91 33.47 81.90 26.78 79.19 C 16.99 75.60 8.96 67.88 4.30 58.63 C -0.70 47.88 -0.90 34.85 4.08 24.05 C 9.35 13.11 19.38 4.21 31.40 1.60 M 33.34 5.32 C 21.85 7.43 12.35 15.99 7.48 26.39 C 3.92 34.37 3.66 43.62 6.07 51.95 C 8.82 61.32 15.95 68.91 24.34 73.62 C 31.51 77.60 40.03 78.25 48.01 77.03 C 56.86 75.47 64.52 69.93 70.13 63.09 C 77.55 53.73 79.36 40.54 75.66 29.31 C 72.67 20.93 66.60 13.62 58.93 9.13 C 51.27 4.62 41.97 3.93 33.34 5.32 Z" />
</g>
<g id="#313131ff">
<path fill="#313131" opacity="1.00" d=" M 33.34 5.32 C 41.97 3.93 51.27 4.62 58.93 9.13 C 66.60 13.62 72.67 20.93 75.66 29.31 C 79.36 40.54 77.55 53.73 70.13 63.09 C 64.52 69.93 56.86 75.47 48.01 77.03 C 40.03 78.25 31.51 77.60 24.34 73.62 C 15.95 68.91 8.82 61.32 6.07 51.95 C 3.66 43.62 3.92 34.37 7.48 26.39 C 12.35 15.99 21.85 7.43 33.34 5.32 M 35.42 8.52 C 19.00 10.35 6.54 26.79 8.04 43.02 C 8.48 59.91 24.14 74.80 41.08 74.06 C 52.55 74.63 63.11 67.58 69.24 58.26 C 73.08 52.27 74.48 44.96 73.91 37.92 C 73.03 26.46 65.46 15.81 55.05 11.00 C 48.96 8.10 42.02 7.82 35.42 8.52 Z" />
</g>
<g id="#626262ff">
<path fill="#626262" opacity="1.00" d=" M 35.42 8.52 C 42.02 7.82 48.96 8.10 55.05 11.00 C 65.46 15.81 73.03 26.46 73.91 37.92 C 74.48 44.96 73.08 52.27 69.24 58.26 C 63.11 67.58 52.55 74.63 41.08 74.06 C 24.14 74.80 8.48 59.91 8.04 43.02 C 6.54 26.79 19.00 10.35 35.42 8.52 M 36.31 11.41 C 22.74 13.00 11.62 25.38 11.02 38.93 C 10.57 46.09 12.46 53.49 16.92 59.18 C 22.63 66.42 31.59 71.56 41.01 71.09 C 55.95 71.57 69.83 58.96 70.88 44.06 C 72.30 32.98 66.58 21.64 57.30 15.64 C 51.13 11.63 43.52 10.44 36.31 11.41 Z" />
</g>
<g id="#4f4f4fff">
<path fill="#4f4f4f" opacity="1.00" d=" M 36.31 11.41 C 43.52 10.44 51.13 11.63 57.30 15.64 C 66.58 21.64 72.30 32.98 70.88 44.06 C 69.83 58.96 55.95 71.57 41.01 71.09 C 31.59 71.56 22.63 66.42 16.92 59.18 C 12.46 53.49 10.57 46.09 11.02 38.93 C 11.62 25.38 22.74 13.00 36.31 11.41 M 37.37 23.33 C 32.44 32.71 27.18 41.92 22.25 51.31 C 21.27 52.67 21.69 54.23 22.26 55.64 C 34.19 55.83 46.13 55.75 58.06 55.71 C 59.99 56.00 61.18 53.65 60.18 52.13 C 55.14 42.48 49.73 33.04 44.68 23.40 C 43.84 21.62 42.43 20.23 41.00 18.92 C 39.54 20.16 38.20 21.57 37.37 23.33 Z" />
<path fill="#4f4f4f" opacity="1.00" d=" M 28.36 50.67 C 32.61 43.01 36.72 35.26 41.00 27.61 C 45.27 35.29 49.46 43.01 53.62 50.75 C 45.20 50.71 36.78 50.84 28.36 50.67 Z" />
</g>
<g id="#49da7cff">
<path fill="#49da7c" opacity="1.00" d=" M 37.37 23.33 C 38.20 21.57 39.54 20.16 41.00 18.92 C 42.43 20.23 43.84 21.62 44.68 23.40 C 49.73 33.04 55.14 42.48 60.18 52.13 C 61.18 53.65 59.99 56.00 58.06 55.71 C 46.13 55.75 34.19 55.83 22.26 55.64 C 21.69 54.23 21.27 52.67 22.25 51.31 C 27.18 41.92 32.44 32.71 37.37 23.33 M 28.36 50.67 C 36.78 50.84 45.20 50.71 53.62 50.75 C 49.46 43.01 45.27 35.29 41.00 27.61 C 36.72 35.26 32.61 43.01 28.36 50.67 Z" />
</g>
</svg>
