/* XPM */
static const char * delbookm_xpm[] = {
/* columns rows colors chars-per-pixel */
"16 15 3 1",
". c Black",
"  c None",
"X c #FF4040",
/* pixels */
"        ....... ",
"        .XXXXX. ",
"  .   . .XXXXX. ",
"  .. .. .XXXXX. ",
"   ...  .XXXXX. ",
"    .   .XXXXX. ",
"   ...  .XXXXX. ",
"  .. .. .XXXXX. ",
"  .   . .XXXXX. ",
"        .XXXXX. ",
"        .XXXXX. ",
"        .XXXXX. ",
"        .XX.XX. ",
"        .X. .X. ",
"        ..   .. "
};
