/* XPM */
static const char * delete_xpm[] = {
/* columns rows colors chars-per-pixel */
"16 15 21 1",
"2 c #A5AEBD",
"* c #5478B4",
"< c #95A3BB",
"O c #9AA7BC",
"; c #758EB7",
"$ c #6986B6",
"# c #4971B2",
"& c #8A9CBA",
"X c #8598B9",
"  c None",
"o c #ABB2BE",
"- c #7F95B9",
"= c #4E74B3",
"1 c #A0ABBC",
"+ c #6F8AB7",
". c #B5B9BF",
"@ c #3E69B1",
", c #90A0BA",
": c #6483B5",
"> c #5A7BB4",
"% c #5F7FB5",
/* pixels */
"                ",
"    .Xo      OO ",
"    +@#.    $@% ",
"    &@@X  .*@*o ",
"     =@= .*@*.  ",
"     -@@X*@*.   ",
"     .#@@@$.    ",
"      ;@@:      ",
"     ;@@@+      ",
"   .>@#%@@.     ",
"  o*@*oO@@,     ",
" <#@*. .@@=     ",
"&@@$    :@@1    ",
";#&     2#>.    ",
"                "
};
