/* XPM */
static const char * filesaveas_xpm[] = {
/* columns rows colors chars-per-pixel */
"16 15 23 1",
"X c Black",
"+ c #FFFFFF",
"< c #D5D6D8",
"> c #446A8C",
"3 c #CAD2DC",
", c #C0C7D1",
"  c #5F666D",
"* c #A5B0BA",
"O c #65839D",
"1 c #DCE2EA",
"2 c #C3C5C8",
": c #E1E6EE",
". c #FFFF00",
"- c #C6CCD3",
"@ c None",
"& c #305F81",
"4 c #D6DFE7",
"; c #D2D9E0",
"= c #B7BFC7",
"o c #1B4467",
"$ c #BCBDBE",
"# c #7A90AC",
"% c #5D7C93",
/* pixels */
"         .X .XX.",
" oO+++++++.X.X.@",
" #O+$$$$$XX...XX",
" #O++++++.......",
" #O+$$$$$XX...XX",
" #O+++++++.X.X.@",
" ##%%%%%%.X%.X .",
" ############# @",
" ###&&&&&&&&## @",
" ##&***=-;:+&# @",
" ##&*o>>-;:+&# @",
" ##&*o>>,<1+&# @",
" ##&*o>>234+&# @",
" ##&224+++++&# @",
"@             @@"
};
