/* XPM */
static const char * harddisk_xpm[] = {
/* columns rows colors chars-per-pixel */
"16 15 39 1",
"7 c #E3E4E6",
"4 c #FFFFFF",
"5 c #839CB5",
". c #547897",
"1 c #4D7492",
"@ c #376485",
"o c #7A92A3",
"u c #D1D9E5",
"y c #446A8C",
"i c #51B03D",
"> c #CAD2DC",
"O c #718BA7",
"2 c #65839D",
"6 c #DCE2EA",
"0 c #C3C5C8",
"9 c #F5F6F7",
": c #EBEBEC",
"< c #597B9A",
"t c #C6CCD3",
"  c None",
"* c #DFE0E2",
"e c #467291",
"a c #526E8B",
", c #7393AB",
"p c #130A0B",
"# c #AABFCD",
"r c #B4C4D3",
"; c #CFCFD0",
"X c #6F90A6",
"+ c #6A89A2",
"- c #D2D3D4",
"= c #DCDBDA",
"w c #E4E9ED",
"q c #C6C8CA",
"% c #215579",
"$ c #E7E7E7",
"3 c #7F97B0",
"8 c #C0D1DC",
"& c #5D7C93",
/* pixels */
"                ",
"   .XoooXO+@    ",
"  #$$%%%%$$$X   ",
"  &$*==-;$$$&   ",
"  &:>+,<1234o5  ",
" ###+67;;78242  ",
" &4,49*0q*9we4. ",
" &4+49*,,*9wo4. ",
"&4%r,67;;782t%4.",
"&44468rrrr84444,",
"y11111111111111e",
"1uu1:::::::::::1",
"1uu1::::::::ip:1",
"auu&:::::::::::1",
"1111111111111111"
};
