/* XPM */
static const char * new_dir_xpm[] = {
/* columns rows colors chars-per-pixel */
"16 15 22 1",
"X c Black",
"> c #9BACC2",
"o c #547897",
"1 c #7F99B4",
"O c #D1D9E5",
"< c #EAEDF3",
"# c #CAD2DC",
"3 c #718BA7",
"@ c #BECAD9",
"& c #E1E6EE",
"; c #F5F6F7",
". c #FFFF00",
", c #8DA0B9",
"  c None",
"% c #D6DFE7",
"$ c #D2D9E0",
"- c #ADBACE",
"= c #EEF1F3",
"+ c #B3BFD1",
"2 c #7A90AC",
": c #A2B3C5",
"* c #E5EAF1",
/* pixels */
"         .X .XX.",
" ooooo    .X.X. ",
" oOOOOo  XX...XX",
" oooooooo.......",
" o+@#$%&*XX...XX",
" o+@#$%&*=.X.X. ",
" o-+@#O%&.X;.X .",
" o:-+@#O%&*=;o  ",
" o>:-+@#O%&*=o  ",
" o,>:-+@#O%&<o  ",
" o1,>:-+@#O%&o  ",
" o21,>:-+@#O%o  ",
" o321,>:-+@#Oo  ",
" ooooooooooooo  ",
"                "
};
