/* XPM */
static const char * undo_xpm[] = {
/* columns rows colors chars-per-pixel */
"16 15 37 1",
"4 c #9BACC2",
"* c #4C7398",
"2 c #547B99",
"- c #547897",
"@ c #5A89A6",
"8 c #3A749C",
"6 c #5A809C",
", c #7F99B4",
"$ c #3F6F93",
"7 c #85A7BC",
"+ c #749BB4",
"> c #718BA7",
"0 c #A5B3C8",
"q c #BECAD9",
": c #65839D",
"u c #E1E6EE",
"X c #236289",
"y c #ADBED2",
"= c #597B9A",
"1 c #8DA0B9",
"  c None",
"% c #467291",
"3 c #7393AB",
"i c #4C809F",
"; c #A0BACB",
". c #6591AE",
"o c #407598",
"5 c #6F90A6",
"t c #D2D9E0",
"9 c #ADBACE",
"# c #326A8F",
"e c #467A9C",
"O c #ACC4D3",
"< c #7F97B0",
"r c #B3BFD1",
"w c #A2B3C5",
"& c #8FB0C3",
/* pixels */
"       .XXXoO   ",
"+    @X#####X+  ",
"X+  #$%%$#$%%#& ",
"#$@#*=-#+;+#=-o ",
"#:-=:=#    +=:# ",
"#>>>:#     &:>$ ",
"$,,,>o     o<,$ ",
"$1111<#    213+ ",
"o44<56#@  o44o  ",
"X$@7O    8493.  ",
"        80qwe   ",
"       8rty8    ",
"       +uq8     ",
"       @@i      ",
"                "
};
