<svg width="15" height="15" viewBox="0 0 15 15" fill="none" xmlns="http://www.w3.org/2000/svg">
<g clip-path="url(#clip0_76_466)">
<mask id="mask0_76_466" style="mask-type:luminance" maskUnits="userSpaceOnUse" x="0" y="0" width="15" height="15">
<path d="M15 0H0V15H15V0Z" fill="white"/>
</mask>
<g mask="url(#mask0_76_466)">
<path d="M6.29289 0.792893C6.68341 0.402369 7.31643 0.402369 7.70695 0.792893C8.0974 1.18342 8.09745 1.81646 7.70695 2.20696L3.41398 6.49993H13.9999C14.5522 6.49997 14.9999 6.94767 14.9999 7.49993C14.9999 8.05215 14.5521 8.49989 13.9999 8.49993H3.41398L7.70695 12.7928C8.0974 13.1834 8.09745 13.8164 7.70695 14.2069C7.31645 14.5974 6.68342 14.5974 6.29289 14.2069L0.292893 8.20696C-0.097631 7.81643 -0.097631 7.18342 0.292893 6.7929L6.29289 0.792893Z" fill="#1B1B1B"/>
</g>
</g>
<defs>
<clipPath id="clip0_76_466">
<rect width="15" height="15" fill="white"/>
</clipPath>
</defs>
</svg>
